%
M48
M72
T01C0.01200
T02C0.05906
%
T01
X105737Y120155
X109937Y120155
X105737Y115955
X109937Y115955
X109937Y111755
X105737Y111755
X97937Y97955
X102137Y97955
X106337Y97955
X97937Y94355
X102137Y94355
X106337Y94355
X106937Y141755
X106937Y138155
X106937Y134555
X110537Y141755
X110537Y138155
X110537Y134555
X74537Y126755
X74537Y130355
X74537Y133955
X74537Y137555
X19937Y125555
X24137Y125555
X124937Y126755
X97337Y126755
T02
X27137Y138640
X27137Y154388
X27137Y95366
X27137Y111114
M30
