G75*
%MOIN*%
%OFA0B0*%
%FSLAX25Y25*%
%IPPOS*%
%LPD*%
%AMOC8*
5,1,8,0,0,1.08239X$1,22.5*
%
%ADD10C,0.00000*%
%ADD11C,0.02400*%
%ADD12R,0.08400X0.11800*%
%ADD13C,0.00600*%
%ADD14R,0.14600X0.03800*%
%ADD15R,0.07100X0.11700*%
%ADD16R,0.10630X0.10039*%
%ADD17R,0.05906X0.05118*%
%ADD18R,0.05118X0.05906*%
%ADD19R,0.10630X0.06299*%
D10*
X0015380Y0032555D02*
X0192545Y0032555D01*
X0192783Y0032558D01*
X0193021Y0032566D01*
X0193258Y0032581D01*
X0193495Y0032601D01*
X0193731Y0032627D01*
X0193967Y0032658D01*
X0194202Y0032695D01*
X0194436Y0032738D01*
X0194669Y0032787D01*
X0194901Y0032841D01*
X0195131Y0032901D01*
X0195360Y0032966D01*
X0195587Y0033037D01*
X0195812Y0033113D01*
X0196035Y0033195D01*
X0196257Y0033282D01*
X0196476Y0033374D01*
X0196693Y0033472D01*
X0196907Y0033574D01*
X0197119Y0033682D01*
X0197329Y0033796D01*
X0197535Y0033914D01*
X0197739Y0034037D01*
X0197939Y0034165D01*
X0198136Y0034297D01*
X0198331Y0034435D01*
X0198521Y0034577D01*
X0198709Y0034724D01*
X0198892Y0034875D01*
X0199072Y0035030D01*
X0199248Y0035190D01*
X0199420Y0035354D01*
X0199589Y0035523D01*
X0199753Y0035695D01*
X0199913Y0035871D01*
X0200068Y0036051D01*
X0200219Y0036234D01*
X0200366Y0036422D01*
X0200508Y0036612D01*
X0200646Y0036807D01*
X0200778Y0037004D01*
X0200906Y0037204D01*
X0201029Y0037408D01*
X0201147Y0037614D01*
X0201261Y0037824D01*
X0201369Y0038036D01*
X0201471Y0038250D01*
X0201569Y0038467D01*
X0201661Y0038686D01*
X0201748Y0038908D01*
X0201830Y0039131D01*
X0201906Y0039356D01*
X0201977Y0039583D01*
X0202042Y0039812D01*
X0202102Y0040042D01*
X0202156Y0040274D01*
X0202205Y0040507D01*
X0202248Y0040741D01*
X0202285Y0040976D01*
X0202316Y0041212D01*
X0202342Y0041448D01*
X0202362Y0041685D01*
X0202377Y0041922D01*
X0202385Y0042160D01*
X0202388Y0042398D01*
X0202387Y0042398D02*
X0202387Y0219563D01*
X0202388Y0219563D02*
X0202385Y0219801D01*
X0202377Y0220039D01*
X0202362Y0220276D01*
X0202342Y0220513D01*
X0202316Y0220749D01*
X0202285Y0220985D01*
X0202248Y0221220D01*
X0202205Y0221454D01*
X0202156Y0221687D01*
X0202102Y0221919D01*
X0202042Y0222149D01*
X0201977Y0222378D01*
X0201906Y0222605D01*
X0201830Y0222830D01*
X0201748Y0223053D01*
X0201661Y0223275D01*
X0201569Y0223494D01*
X0201471Y0223711D01*
X0201369Y0223925D01*
X0201261Y0224137D01*
X0201147Y0224347D01*
X0201029Y0224553D01*
X0200906Y0224757D01*
X0200778Y0224957D01*
X0200646Y0225154D01*
X0200508Y0225349D01*
X0200366Y0225539D01*
X0200219Y0225727D01*
X0200068Y0225910D01*
X0199913Y0226090D01*
X0199753Y0226266D01*
X0199589Y0226438D01*
X0199420Y0226607D01*
X0199248Y0226771D01*
X0199072Y0226931D01*
X0198892Y0227086D01*
X0198709Y0227237D01*
X0198521Y0227384D01*
X0198331Y0227526D01*
X0198136Y0227664D01*
X0197939Y0227796D01*
X0197739Y0227924D01*
X0197535Y0228047D01*
X0197329Y0228165D01*
X0197119Y0228279D01*
X0196907Y0228387D01*
X0196693Y0228489D01*
X0196476Y0228587D01*
X0196257Y0228679D01*
X0196035Y0228766D01*
X0195812Y0228848D01*
X0195587Y0228924D01*
X0195360Y0228995D01*
X0195131Y0229060D01*
X0194901Y0229120D01*
X0194669Y0229174D01*
X0194436Y0229223D01*
X0194202Y0229266D01*
X0193967Y0229303D01*
X0193731Y0229334D01*
X0193495Y0229360D01*
X0193258Y0229380D01*
X0193021Y0229395D01*
X0192783Y0229403D01*
X0192545Y0229406D01*
X0015380Y0229406D01*
X0015142Y0229403D01*
X0014904Y0229395D01*
X0014667Y0229380D01*
X0014430Y0229360D01*
X0014194Y0229334D01*
X0013958Y0229303D01*
X0013723Y0229266D01*
X0013489Y0229223D01*
X0013256Y0229174D01*
X0013024Y0229120D01*
X0012794Y0229060D01*
X0012565Y0228995D01*
X0012338Y0228924D01*
X0012113Y0228848D01*
X0011890Y0228766D01*
X0011668Y0228679D01*
X0011449Y0228587D01*
X0011232Y0228489D01*
X0011018Y0228387D01*
X0010806Y0228279D01*
X0010596Y0228165D01*
X0010390Y0228047D01*
X0010186Y0227924D01*
X0009986Y0227796D01*
X0009789Y0227664D01*
X0009594Y0227526D01*
X0009404Y0227384D01*
X0009216Y0227237D01*
X0009033Y0227086D01*
X0008853Y0226931D01*
X0008677Y0226771D01*
X0008505Y0226607D01*
X0008336Y0226438D01*
X0008172Y0226266D01*
X0008012Y0226090D01*
X0007857Y0225910D01*
X0007706Y0225727D01*
X0007559Y0225539D01*
X0007417Y0225349D01*
X0007279Y0225154D01*
X0007147Y0224957D01*
X0007019Y0224757D01*
X0006896Y0224553D01*
X0006778Y0224347D01*
X0006664Y0224137D01*
X0006556Y0223925D01*
X0006454Y0223711D01*
X0006356Y0223494D01*
X0006264Y0223275D01*
X0006177Y0223053D01*
X0006095Y0222830D01*
X0006019Y0222605D01*
X0005948Y0222378D01*
X0005883Y0222149D01*
X0005823Y0221919D01*
X0005769Y0221687D01*
X0005720Y0221454D01*
X0005677Y0221220D01*
X0005640Y0220985D01*
X0005609Y0220749D01*
X0005583Y0220513D01*
X0005563Y0220276D01*
X0005548Y0220039D01*
X0005540Y0219801D01*
X0005537Y0219563D01*
X0005537Y0042398D01*
X0005540Y0042160D01*
X0005548Y0041922D01*
X0005563Y0041685D01*
X0005583Y0041448D01*
X0005609Y0041212D01*
X0005640Y0040976D01*
X0005677Y0040741D01*
X0005720Y0040507D01*
X0005769Y0040274D01*
X0005823Y0040042D01*
X0005883Y0039812D01*
X0005948Y0039583D01*
X0006019Y0039356D01*
X0006095Y0039131D01*
X0006177Y0038908D01*
X0006264Y0038686D01*
X0006356Y0038467D01*
X0006454Y0038250D01*
X0006556Y0038036D01*
X0006664Y0037824D01*
X0006778Y0037614D01*
X0006896Y0037408D01*
X0007019Y0037204D01*
X0007147Y0037004D01*
X0007279Y0036807D01*
X0007417Y0036612D01*
X0007559Y0036422D01*
X0007706Y0036234D01*
X0007857Y0036051D01*
X0008012Y0035871D01*
X0008172Y0035695D01*
X0008336Y0035523D01*
X0008505Y0035354D01*
X0008677Y0035190D01*
X0008853Y0035030D01*
X0009033Y0034875D01*
X0009216Y0034724D01*
X0009404Y0034577D01*
X0009594Y0034435D01*
X0009789Y0034297D01*
X0009986Y0034165D01*
X0010186Y0034037D01*
X0010390Y0033914D01*
X0010596Y0033796D01*
X0010806Y0033682D01*
X0011018Y0033574D01*
X0011232Y0033472D01*
X0011449Y0033374D01*
X0011668Y0033282D01*
X0011890Y0033195D01*
X0012113Y0033113D01*
X0012338Y0033037D01*
X0012565Y0032966D01*
X0012794Y0032901D01*
X0013024Y0032841D01*
X0013256Y0032787D01*
X0013489Y0032738D01*
X0013723Y0032695D01*
X0013958Y0032658D01*
X0014194Y0032627D01*
X0014430Y0032601D01*
X0014667Y0032581D01*
X0014904Y0032566D01*
X0015142Y0032558D01*
X0015380Y0032555D01*
D11*
X0095482Y0108403D02*
X0100982Y0108403D01*
X0100982Y0113403D02*
X0095482Y0113403D01*
X0095482Y0118403D02*
X0100982Y0118403D01*
X0100982Y0123403D02*
X0095482Y0123403D01*
X0115167Y0123403D02*
X0120667Y0123403D01*
X0120667Y0118403D02*
X0115167Y0118403D01*
X0115167Y0113403D02*
X0120667Y0113403D01*
X0120667Y0108403D02*
X0115167Y0108403D01*
D12*
X0108074Y0115903D03*
D13*
X0107674Y0115503D02*
X0107674Y0110303D01*
X0103974Y0110303D01*
X0103974Y0115503D01*
X0107674Y0115503D01*
X0108474Y0115503D02*
X0108474Y0110303D01*
X0112174Y0110303D01*
X0112174Y0115503D01*
X0108474Y0115503D01*
X0108474Y0116303D02*
X0108474Y0121503D01*
X0112174Y0121503D01*
X0112174Y0116303D01*
X0108474Y0116303D01*
X0107674Y0116303D02*
X0107674Y0121503D01*
X0103974Y0121503D01*
X0103974Y0116303D01*
X0107674Y0116303D01*
D14*
X0135474Y0152653D03*
X0135474Y0161953D03*
D15*
X0123524Y0141303D03*
X0097424Y0141303D03*
D16*
X0084074Y0136603D03*
X0084074Y0161603D03*
D17*
X0130874Y0117043D03*
X0130874Y0109563D03*
X0140074Y0109563D03*
X0140074Y0117043D03*
X0149400Y0117047D03*
X0149400Y0109567D03*
X0149400Y0130867D03*
X0149400Y0138347D03*
X0086274Y0104643D03*
X0086274Y0097163D03*
D18*
X0131620Y0130387D03*
X0139101Y0130387D03*
X0139614Y0100503D03*
X0132134Y0100503D03*
D19*
X0084274Y0113791D03*
X0084274Y0124815D03*
M02*
