G75*
%MOIN*%
%OFA0B0*%
%FSLAX25Y25*%
%IPPOS*%
%LPD*%
%AMOC8*
5,1,8,0,0,1.08239X$1,22.5*
%
%ADD10C,0.00000*%
%ADD11C,0.08858*%
%ADD12C,0.01200*%
%ADD13C,0.02400*%
D10*
X0015380Y0032555D02*
X0192545Y0032555D01*
X0192783Y0032558D01*
X0193021Y0032566D01*
X0193258Y0032581D01*
X0193495Y0032601D01*
X0193731Y0032627D01*
X0193967Y0032658D01*
X0194202Y0032695D01*
X0194436Y0032738D01*
X0194669Y0032787D01*
X0194901Y0032841D01*
X0195131Y0032901D01*
X0195360Y0032966D01*
X0195587Y0033037D01*
X0195812Y0033113D01*
X0196035Y0033195D01*
X0196257Y0033282D01*
X0196476Y0033374D01*
X0196693Y0033472D01*
X0196907Y0033574D01*
X0197119Y0033682D01*
X0197329Y0033796D01*
X0197535Y0033914D01*
X0197739Y0034037D01*
X0197939Y0034165D01*
X0198136Y0034297D01*
X0198331Y0034435D01*
X0198521Y0034577D01*
X0198709Y0034724D01*
X0198892Y0034875D01*
X0199072Y0035030D01*
X0199248Y0035190D01*
X0199420Y0035354D01*
X0199589Y0035523D01*
X0199753Y0035695D01*
X0199913Y0035871D01*
X0200068Y0036051D01*
X0200219Y0036234D01*
X0200366Y0036422D01*
X0200508Y0036612D01*
X0200646Y0036807D01*
X0200778Y0037004D01*
X0200906Y0037204D01*
X0201029Y0037408D01*
X0201147Y0037614D01*
X0201261Y0037824D01*
X0201369Y0038036D01*
X0201471Y0038250D01*
X0201569Y0038467D01*
X0201661Y0038686D01*
X0201748Y0038908D01*
X0201830Y0039131D01*
X0201906Y0039356D01*
X0201977Y0039583D01*
X0202042Y0039812D01*
X0202102Y0040042D01*
X0202156Y0040274D01*
X0202205Y0040507D01*
X0202248Y0040741D01*
X0202285Y0040976D01*
X0202316Y0041212D01*
X0202342Y0041448D01*
X0202362Y0041685D01*
X0202377Y0041922D01*
X0202385Y0042160D01*
X0202388Y0042398D01*
X0202387Y0042398D02*
X0202387Y0219563D01*
X0202388Y0219563D02*
X0202385Y0219801D01*
X0202377Y0220039D01*
X0202362Y0220276D01*
X0202342Y0220513D01*
X0202316Y0220749D01*
X0202285Y0220985D01*
X0202248Y0221220D01*
X0202205Y0221454D01*
X0202156Y0221687D01*
X0202102Y0221919D01*
X0202042Y0222149D01*
X0201977Y0222378D01*
X0201906Y0222605D01*
X0201830Y0222830D01*
X0201748Y0223053D01*
X0201661Y0223275D01*
X0201569Y0223494D01*
X0201471Y0223711D01*
X0201369Y0223925D01*
X0201261Y0224137D01*
X0201147Y0224347D01*
X0201029Y0224553D01*
X0200906Y0224757D01*
X0200778Y0224957D01*
X0200646Y0225154D01*
X0200508Y0225349D01*
X0200366Y0225539D01*
X0200219Y0225727D01*
X0200068Y0225910D01*
X0199913Y0226090D01*
X0199753Y0226266D01*
X0199589Y0226438D01*
X0199420Y0226607D01*
X0199248Y0226771D01*
X0199072Y0226931D01*
X0198892Y0227086D01*
X0198709Y0227237D01*
X0198521Y0227384D01*
X0198331Y0227526D01*
X0198136Y0227664D01*
X0197939Y0227796D01*
X0197739Y0227924D01*
X0197535Y0228047D01*
X0197329Y0228165D01*
X0197119Y0228279D01*
X0196907Y0228387D01*
X0196693Y0228489D01*
X0196476Y0228587D01*
X0196257Y0228679D01*
X0196035Y0228766D01*
X0195812Y0228848D01*
X0195587Y0228924D01*
X0195360Y0228995D01*
X0195131Y0229060D01*
X0194901Y0229120D01*
X0194669Y0229174D01*
X0194436Y0229223D01*
X0194202Y0229266D01*
X0193967Y0229303D01*
X0193731Y0229334D01*
X0193495Y0229360D01*
X0193258Y0229380D01*
X0193021Y0229395D01*
X0192783Y0229403D01*
X0192545Y0229406D01*
X0015380Y0229406D01*
X0015142Y0229403D01*
X0014904Y0229395D01*
X0014667Y0229380D01*
X0014430Y0229360D01*
X0014194Y0229334D01*
X0013958Y0229303D01*
X0013723Y0229266D01*
X0013489Y0229223D01*
X0013256Y0229174D01*
X0013024Y0229120D01*
X0012794Y0229060D01*
X0012565Y0228995D01*
X0012338Y0228924D01*
X0012113Y0228848D01*
X0011890Y0228766D01*
X0011668Y0228679D01*
X0011449Y0228587D01*
X0011232Y0228489D01*
X0011018Y0228387D01*
X0010806Y0228279D01*
X0010596Y0228165D01*
X0010390Y0228047D01*
X0010186Y0227924D01*
X0009986Y0227796D01*
X0009789Y0227664D01*
X0009594Y0227526D01*
X0009404Y0227384D01*
X0009216Y0227237D01*
X0009033Y0227086D01*
X0008853Y0226931D01*
X0008677Y0226771D01*
X0008505Y0226607D01*
X0008336Y0226438D01*
X0008172Y0226266D01*
X0008012Y0226090D01*
X0007857Y0225910D01*
X0007706Y0225727D01*
X0007559Y0225539D01*
X0007417Y0225349D01*
X0007279Y0225154D01*
X0007147Y0224957D01*
X0007019Y0224757D01*
X0006896Y0224553D01*
X0006778Y0224347D01*
X0006664Y0224137D01*
X0006556Y0223925D01*
X0006454Y0223711D01*
X0006356Y0223494D01*
X0006264Y0223275D01*
X0006177Y0223053D01*
X0006095Y0222830D01*
X0006019Y0222605D01*
X0005948Y0222378D01*
X0005883Y0222149D01*
X0005823Y0221919D01*
X0005769Y0221687D01*
X0005720Y0221454D01*
X0005677Y0221220D01*
X0005640Y0220985D01*
X0005609Y0220749D01*
X0005583Y0220513D01*
X0005563Y0220276D01*
X0005548Y0220039D01*
X0005540Y0219801D01*
X0005537Y0219563D01*
X0005537Y0042398D01*
X0005540Y0042160D01*
X0005548Y0041922D01*
X0005563Y0041685D01*
X0005583Y0041448D01*
X0005609Y0041212D01*
X0005640Y0040976D01*
X0005677Y0040741D01*
X0005720Y0040507D01*
X0005769Y0040274D01*
X0005823Y0040042D01*
X0005883Y0039812D01*
X0005948Y0039583D01*
X0006019Y0039356D01*
X0006095Y0039131D01*
X0006177Y0038908D01*
X0006264Y0038686D01*
X0006356Y0038467D01*
X0006454Y0038250D01*
X0006556Y0038036D01*
X0006664Y0037824D01*
X0006778Y0037614D01*
X0006896Y0037408D01*
X0007019Y0037204D01*
X0007147Y0037004D01*
X0007279Y0036807D01*
X0007417Y0036612D01*
X0007559Y0036422D01*
X0007706Y0036234D01*
X0007857Y0036051D01*
X0008012Y0035871D01*
X0008172Y0035695D01*
X0008336Y0035523D01*
X0008505Y0035354D01*
X0008677Y0035190D01*
X0008853Y0035030D01*
X0009033Y0034875D01*
X0009216Y0034724D01*
X0009404Y0034577D01*
X0009594Y0034435D01*
X0009789Y0034297D01*
X0009986Y0034165D01*
X0010186Y0034037D01*
X0010390Y0033914D01*
X0010596Y0033796D01*
X0010806Y0033682D01*
X0011018Y0033574D01*
X0011232Y0033472D01*
X0011449Y0033374D01*
X0011668Y0033282D01*
X0011890Y0033195D01*
X0012113Y0033113D01*
X0012338Y0033037D01*
X0012565Y0032966D01*
X0012794Y0032901D01*
X0013024Y0032841D01*
X0013256Y0032787D01*
X0013489Y0032738D01*
X0013723Y0032695D01*
X0013958Y0032658D01*
X0014194Y0032627D01*
X0014430Y0032601D01*
X0014667Y0032581D01*
X0014904Y0032566D01*
X0015142Y0032558D01*
X0015380Y0032555D01*
D11*
X0022708Y0095366D02*
X0031566Y0095366D01*
X0031566Y0111114D02*
X0022708Y0111114D01*
X0022708Y0138640D02*
X0031566Y0138640D01*
X0031566Y0154388D02*
X0022708Y0154388D01*
D12*
X0020574Y0159597D02*
X0007137Y0159597D01*
X0007137Y0158399D02*
X0018758Y0158399D01*
X0019519Y0159160D02*
X0017936Y0157577D01*
X0017079Y0155508D01*
X0017079Y0153268D01*
X0017936Y0151200D01*
X0019519Y0149616D01*
X0021588Y0148759D01*
X0032686Y0148759D01*
X0034755Y0149616D01*
X0036338Y0151200D01*
X0037195Y0153268D01*
X0037195Y0155508D01*
X0036338Y0157577D01*
X0034755Y0159160D01*
X0032686Y0160017D01*
X0021588Y0160017D01*
X0019519Y0159160D01*
X0017780Y0157200D02*
X0007137Y0157200D01*
X0007137Y0156002D02*
X0017283Y0156002D01*
X0017079Y0154803D02*
X0007137Y0154803D01*
X0007137Y0153605D02*
X0017079Y0153605D01*
X0017436Y0152406D02*
X0007137Y0152406D01*
X0007137Y0151208D02*
X0017932Y0151208D01*
X0019126Y0150009D02*
X0007137Y0150009D01*
X0007137Y0148811D02*
X0021463Y0148811D01*
X0022233Y0144669D02*
X0021296Y0144521D01*
X0020393Y0144228D01*
X0019548Y0143797D01*
X0018780Y0143239D01*
X0018109Y0142568D01*
X0017551Y0141800D01*
X0017120Y0140955D01*
X0016827Y0140052D01*
X0016699Y0139240D01*
X0026537Y0139240D01*
X0026537Y0138040D01*
X0027737Y0138040D01*
X0027737Y0132611D01*
X0032041Y0132611D01*
X0032978Y0132759D01*
X0033881Y0133053D01*
X0034726Y0133484D01*
X0035494Y0134041D01*
X0036165Y0134712D01*
X0036723Y0135480D01*
X0037154Y0136326D01*
X0037447Y0137228D01*
X0037575Y0138040D01*
X0027737Y0138040D01*
X0027737Y0139240D01*
X0037575Y0139240D01*
X0037447Y0140052D01*
X0037154Y0140955D01*
X0036723Y0141800D01*
X0036165Y0142568D01*
X0035494Y0143239D01*
X0034726Y0143797D01*
X0033881Y0144228D01*
X0032978Y0144521D01*
X0032041Y0144669D01*
X0027737Y0144669D01*
X0027737Y0139240D01*
X0026537Y0139240D01*
X0026537Y0144669D01*
X0022233Y0144669D01*
X0019980Y0144017D02*
X0007137Y0144017D01*
X0007137Y0145215D02*
X0200787Y0145215D01*
X0200787Y0144017D02*
X0034294Y0144017D01*
X0035915Y0142818D02*
X0200787Y0142818D01*
X0200787Y0141620D02*
X0036815Y0141620D01*
X0037327Y0140421D02*
X0200787Y0140421D01*
X0200787Y0139223D02*
X0027737Y0139223D01*
X0027737Y0140421D02*
X0026537Y0140421D01*
X0026537Y0139223D02*
X0007137Y0139223D01*
X0007137Y0140421D02*
X0016947Y0140421D01*
X0017459Y0141620D02*
X0007137Y0141620D01*
X0007137Y0142818D02*
X0018359Y0142818D01*
X0016699Y0138040D02*
X0016827Y0137228D01*
X0017120Y0136326D01*
X0017551Y0135480D01*
X0018109Y0134712D01*
X0018780Y0134041D01*
X0019548Y0133484D01*
X0020393Y0133053D01*
X0021296Y0132759D01*
X0022233Y0132611D01*
X0026537Y0132611D01*
X0026537Y0138040D01*
X0016699Y0138040D01*
X0016701Y0138024D02*
X0007137Y0138024D01*
X0007137Y0136826D02*
X0016958Y0136826D01*
X0017476Y0135627D02*
X0007137Y0135627D01*
X0007137Y0134429D02*
X0018393Y0134429D01*
X0020045Y0133230D02*
X0007137Y0133230D01*
X0007137Y0132032D02*
X0200787Y0132032D01*
X0200787Y0133230D02*
X0034229Y0133230D01*
X0035881Y0134429D02*
X0200787Y0134429D01*
X0200787Y0135627D02*
X0036798Y0135627D01*
X0037316Y0136826D02*
X0200787Y0136826D01*
X0200787Y0138024D02*
X0037573Y0138024D01*
X0027737Y0138024D02*
X0026537Y0138024D01*
X0026537Y0136826D02*
X0027737Y0136826D01*
X0027737Y0135627D02*
X0026537Y0135627D01*
X0026537Y0134429D02*
X0027737Y0134429D01*
X0027737Y0133230D02*
X0026537Y0133230D01*
X0026537Y0141620D02*
X0027737Y0141620D01*
X0027737Y0142818D02*
X0026537Y0142818D01*
X0026537Y0144017D02*
X0027737Y0144017D01*
X0032811Y0148811D02*
X0200787Y0148811D01*
X0200787Y0150009D02*
X0035148Y0150009D01*
X0036342Y0151208D02*
X0200787Y0151208D01*
X0200787Y0152406D02*
X0036838Y0152406D01*
X0037195Y0153605D02*
X0200787Y0153605D01*
X0200787Y0154803D02*
X0037195Y0154803D01*
X0036991Y0156002D02*
X0200787Y0156002D01*
X0200787Y0157200D02*
X0036494Y0157200D01*
X0035516Y0158399D02*
X0200787Y0158399D01*
X0200787Y0159597D02*
X0033700Y0159597D01*
X0007137Y0160796D02*
X0200787Y0160796D01*
X0200787Y0161994D02*
X0007137Y0161994D01*
X0007137Y0163193D02*
X0200787Y0163193D01*
X0200787Y0164391D02*
X0007137Y0164391D01*
X0007137Y0165590D02*
X0200787Y0165590D01*
X0200787Y0166788D02*
X0007137Y0166788D01*
X0007137Y0167987D02*
X0200787Y0167987D01*
X0200787Y0169185D02*
X0007137Y0169185D01*
X0007137Y0170384D02*
X0200787Y0170384D01*
X0200787Y0171582D02*
X0007137Y0171582D01*
X0007137Y0172781D02*
X0200787Y0172781D01*
X0200787Y0173979D02*
X0007137Y0173979D01*
X0007137Y0175178D02*
X0200787Y0175178D01*
X0200787Y0176376D02*
X0007137Y0176376D01*
X0007137Y0177575D02*
X0200787Y0177575D01*
X0200787Y0178773D02*
X0007137Y0178773D01*
X0007137Y0179972D02*
X0200787Y0179972D01*
X0200787Y0181171D02*
X0007137Y0181171D01*
X0007137Y0182369D02*
X0200787Y0182369D01*
X0200787Y0183568D02*
X0007137Y0183568D01*
X0007137Y0184766D02*
X0200787Y0184766D01*
X0200787Y0185965D02*
X0007137Y0185965D01*
X0007137Y0187163D02*
X0200787Y0187163D01*
X0200787Y0188362D02*
X0007137Y0188362D01*
X0007137Y0189560D02*
X0200787Y0189560D01*
X0200787Y0190759D02*
X0007137Y0190759D01*
X0007137Y0191957D02*
X0200787Y0191957D01*
X0200787Y0193156D02*
X0007137Y0193156D01*
X0007137Y0194354D02*
X0200787Y0194354D01*
X0200787Y0195553D02*
X0007137Y0195553D01*
X0007137Y0196751D02*
X0200787Y0196751D01*
X0200787Y0197950D02*
X0007137Y0197950D01*
X0007137Y0199148D02*
X0200787Y0199148D01*
X0200787Y0200347D02*
X0007137Y0200347D01*
X0007137Y0201545D02*
X0200787Y0201545D01*
X0200787Y0202744D02*
X0007137Y0202744D01*
X0007137Y0203942D02*
X0200787Y0203942D01*
X0200787Y0205141D02*
X0007137Y0205141D01*
X0007137Y0206339D02*
X0200787Y0206339D01*
X0200787Y0207538D02*
X0007137Y0207538D01*
X0007137Y0208736D02*
X0200787Y0208736D01*
X0200787Y0209935D02*
X0007137Y0209935D01*
X0007137Y0211133D02*
X0200787Y0211133D01*
X0200787Y0212332D02*
X0007137Y0212332D01*
X0007137Y0213530D02*
X0200787Y0213530D01*
X0200787Y0214729D02*
X0007137Y0214729D01*
X0007137Y0215927D02*
X0200787Y0215927D01*
X0200787Y0217126D02*
X0007137Y0217126D01*
X0007137Y0218324D02*
X0200787Y0218324D01*
X0200787Y0219523D02*
X0007137Y0219523D01*
X0007137Y0219563D02*
X0007238Y0220852D01*
X0008035Y0223305D01*
X0009551Y0225391D01*
X0011637Y0226907D01*
X0014090Y0227704D01*
X0015380Y0227806D01*
X0192545Y0227806D01*
X0193834Y0227704D01*
X0196287Y0226907D01*
X0198373Y0225391D01*
X0199889Y0223305D01*
X0200686Y0220852D01*
X0200787Y0219563D01*
X0200787Y0042398D01*
X0200686Y0041108D01*
X0199889Y0038656D01*
X0198373Y0036569D01*
X0196287Y0035053D01*
X0193834Y0034257D01*
X0192545Y0034155D01*
X0015380Y0034155D01*
X0014090Y0034257D01*
X0011637Y0035053D01*
X0009551Y0036569D01*
X0008035Y0038656D01*
X0007238Y0041108D01*
X0007137Y0042398D01*
X0007137Y0219563D01*
X0007228Y0220721D02*
X0200696Y0220721D01*
X0200339Y0221920D02*
X0007585Y0221920D01*
X0007975Y0223118D02*
X0199950Y0223118D01*
X0199154Y0224317D02*
X0008771Y0224317D01*
X0009722Y0225515D02*
X0198202Y0225515D01*
X0196553Y0226714D02*
X0011372Y0226714D01*
X0007137Y0147612D02*
X0200787Y0147612D01*
X0200787Y0146414D02*
X0007137Y0146414D01*
X0007137Y0130833D02*
X0200787Y0130833D01*
X0200787Y0129635D02*
X0007137Y0129635D01*
X0007137Y0128436D02*
X0095624Y0128436D01*
X0095302Y0128115D02*
X0094937Y0127233D01*
X0094937Y0126278D01*
X0095302Y0125396D01*
X0095978Y0124720D01*
X0096860Y0124355D01*
X0097814Y0124355D01*
X0098696Y0124720D01*
X0098931Y0124955D01*
X0123343Y0124955D01*
X0123578Y0124720D01*
X0124460Y0124355D01*
X0125414Y0124355D01*
X0126296Y0124720D01*
X0126972Y0125396D01*
X0127337Y0126278D01*
X0127337Y0127233D01*
X0126972Y0128115D01*
X0126296Y0128790D01*
X0125414Y0129155D01*
X0124460Y0129155D01*
X0123578Y0128790D01*
X0123343Y0128555D01*
X0098931Y0128555D01*
X0098696Y0128790D01*
X0097814Y0129155D01*
X0096860Y0129155D01*
X0095978Y0128790D01*
X0095302Y0128115D01*
X0094939Y0127238D02*
X0007137Y0127238D01*
X0007137Y0126039D02*
X0095036Y0126039D01*
X0095858Y0124840D02*
X0007137Y0124840D01*
X0007137Y0123642D02*
X0200787Y0123642D01*
X0200787Y0124840D02*
X0126416Y0124840D01*
X0127238Y0126039D02*
X0200787Y0126039D01*
X0200787Y0127238D02*
X0127335Y0127238D01*
X0126650Y0128436D02*
X0200787Y0128436D01*
X0200787Y0122443D02*
X0007137Y0122443D01*
X0007137Y0121245D02*
X0200787Y0121245D01*
X0200787Y0120046D02*
X0007137Y0120046D01*
X0007137Y0118848D02*
X0200787Y0118848D01*
X0200787Y0117649D02*
X0007137Y0117649D01*
X0007137Y0116451D02*
X0019902Y0116451D01*
X0019548Y0116271D02*
X0018780Y0115713D01*
X0018109Y0115042D01*
X0017551Y0114274D01*
X0017120Y0113429D01*
X0016827Y0112526D01*
X0016699Y0111714D01*
X0026537Y0111714D01*
X0026537Y0110514D01*
X0027737Y0110514D01*
X0027737Y0105085D01*
X0032041Y0105085D01*
X0032978Y0105234D01*
X0033881Y0105527D01*
X0034726Y0105958D01*
X0035494Y0106515D01*
X0036165Y0107186D01*
X0036723Y0107954D01*
X0037154Y0108800D01*
X0037447Y0109702D01*
X0037575Y0110514D01*
X0027737Y0110514D01*
X0027737Y0111714D01*
X0037575Y0111714D01*
X0037447Y0112526D01*
X0037154Y0113429D01*
X0036723Y0114274D01*
X0036165Y0115042D01*
X0035494Y0115713D01*
X0034726Y0116271D01*
X0033881Y0116702D01*
X0032978Y0116995D01*
X0032041Y0117143D01*
X0027737Y0117143D01*
X0027737Y0111714D01*
X0026537Y0111714D01*
X0026537Y0117143D01*
X0022233Y0117143D01*
X0021296Y0116995D01*
X0020393Y0116702D01*
X0019548Y0116271D01*
X0018320Y0115252D02*
X0007137Y0115252D01*
X0007137Y0114054D02*
X0017439Y0114054D01*
X0016934Y0112855D02*
X0007137Y0112855D01*
X0007137Y0111657D02*
X0026537Y0111657D01*
X0026537Y0110514D02*
X0016699Y0110514D01*
X0016827Y0109702D01*
X0017120Y0108800D01*
X0017551Y0107954D01*
X0018109Y0107186D01*
X0018780Y0106515D01*
X0019548Y0105958D01*
X0020393Y0105527D01*
X0021296Y0105234D01*
X0022233Y0105085D01*
X0026537Y0105085D01*
X0026537Y0110514D01*
X0026537Y0110458D02*
X0027737Y0110458D01*
X0027737Y0109260D02*
X0026537Y0109260D01*
X0026537Y0108061D02*
X0027737Y0108061D01*
X0027737Y0106863D02*
X0026537Y0106863D01*
X0026537Y0105664D02*
X0027737Y0105664D01*
X0032686Y0100995D02*
X0021588Y0100995D01*
X0019519Y0100138D01*
X0017936Y0098555D01*
X0017079Y0096486D01*
X0017079Y0094246D01*
X0017936Y0092177D01*
X0019519Y0090594D01*
X0021588Y0089737D01*
X0032686Y0089737D01*
X0034755Y0090594D01*
X0036338Y0092177D01*
X0037195Y0094246D01*
X0037195Y0096486D01*
X0036338Y0098555D01*
X0034755Y0100138D01*
X0032686Y0100995D01*
X0032988Y0100870D02*
X0200787Y0100870D01*
X0200787Y0099672D02*
X0035221Y0099672D01*
X0036372Y0098473D02*
X0200787Y0098473D01*
X0200787Y0097275D02*
X0036869Y0097275D01*
X0037195Y0096076D02*
X0200787Y0096076D01*
X0200787Y0094878D02*
X0037195Y0094878D01*
X0036960Y0093679D02*
X0200787Y0093679D01*
X0200787Y0092481D02*
X0036464Y0092481D01*
X0035443Y0091282D02*
X0200787Y0091282D01*
X0200787Y0090084D02*
X0033523Y0090084D01*
X0021286Y0100870D02*
X0007137Y0100870D01*
X0007137Y0099672D02*
X0019053Y0099672D01*
X0017902Y0098473D02*
X0007137Y0098473D01*
X0007137Y0097275D02*
X0017406Y0097275D01*
X0017079Y0096076D02*
X0007137Y0096076D01*
X0007137Y0094878D02*
X0017079Y0094878D01*
X0017314Y0093679D02*
X0007137Y0093679D01*
X0007137Y0092481D02*
X0017810Y0092481D01*
X0018831Y0091282D02*
X0007137Y0091282D01*
X0007137Y0090084D02*
X0020751Y0090084D01*
X0007137Y0088885D02*
X0200787Y0088885D01*
X0200787Y0087687D02*
X0007137Y0087687D01*
X0007137Y0086488D02*
X0200787Y0086488D01*
X0200787Y0085290D02*
X0007137Y0085290D01*
X0007137Y0084091D02*
X0200787Y0084091D01*
X0200787Y0082893D02*
X0007137Y0082893D01*
X0007137Y0081694D02*
X0200787Y0081694D01*
X0200787Y0080496D02*
X0007137Y0080496D01*
X0007137Y0079297D02*
X0200787Y0079297D01*
X0200787Y0078099D02*
X0007137Y0078099D01*
X0007137Y0076900D02*
X0200787Y0076900D01*
X0200787Y0075702D02*
X0007137Y0075702D01*
X0007137Y0074503D02*
X0200787Y0074503D01*
X0200787Y0073305D02*
X0007137Y0073305D01*
X0007137Y0072106D02*
X0200787Y0072106D01*
X0200787Y0070907D02*
X0007137Y0070907D01*
X0007137Y0069709D02*
X0200787Y0069709D01*
X0200787Y0068510D02*
X0007137Y0068510D01*
X0007137Y0067312D02*
X0200787Y0067312D01*
X0200787Y0066113D02*
X0007137Y0066113D01*
X0007137Y0064915D02*
X0200787Y0064915D01*
X0200787Y0063716D02*
X0007137Y0063716D01*
X0007137Y0062518D02*
X0200787Y0062518D01*
X0200787Y0061319D02*
X0007137Y0061319D01*
X0007137Y0060121D02*
X0200787Y0060121D01*
X0200787Y0058922D02*
X0007137Y0058922D01*
X0007137Y0057724D02*
X0200787Y0057724D01*
X0200787Y0056525D02*
X0007137Y0056525D01*
X0007137Y0055327D02*
X0200787Y0055327D01*
X0200787Y0054128D02*
X0007137Y0054128D01*
X0007137Y0052930D02*
X0200787Y0052930D01*
X0200787Y0051731D02*
X0007137Y0051731D01*
X0007137Y0050533D02*
X0200787Y0050533D01*
X0200787Y0049334D02*
X0007137Y0049334D01*
X0007137Y0048136D02*
X0200787Y0048136D01*
X0200787Y0046937D02*
X0007137Y0046937D01*
X0007137Y0045739D02*
X0200787Y0045739D01*
X0200787Y0044540D02*
X0007137Y0044540D01*
X0007137Y0043342D02*
X0200787Y0043342D01*
X0200767Y0042143D02*
X0007157Y0042143D01*
X0007292Y0040945D02*
X0200633Y0040945D01*
X0200243Y0039746D02*
X0007681Y0039746D01*
X0008114Y0038548D02*
X0199811Y0038548D01*
X0198940Y0037349D02*
X0008985Y0037349D01*
X0010127Y0036151D02*
X0197797Y0036151D01*
X0195975Y0034952D02*
X0011949Y0034952D01*
X0007137Y0102069D02*
X0200787Y0102069D01*
X0200787Y0103267D02*
X0007137Y0103267D01*
X0007137Y0104466D02*
X0200787Y0104466D01*
X0200787Y0105664D02*
X0034150Y0105664D01*
X0035841Y0106863D02*
X0200787Y0106863D01*
X0200787Y0108061D02*
X0036777Y0108061D01*
X0037303Y0109260D02*
X0200787Y0109260D01*
X0200787Y0110458D02*
X0037567Y0110458D01*
X0037340Y0112855D02*
X0200787Y0112855D01*
X0200787Y0111657D02*
X0027737Y0111657D01*
X0027737Y0112855D02*
X0026537Y0112855D01*
X0026537Y0114054D02*
X0027737Y0114054D01*
X0027737Y0115252D02*
X0026537Y0115252D01*
X0026537Y0116451D02*
X0027737Y0116451D01*
X0034372Y0116451D02*
X0200787Y0116451D01*
X0200787Y0115252D02*
X0035954Y0115252D01*
X0036835Y0114054D02*
X0200787Y0114054D01*
X0124937Y0126755D02*
X0097337Y0126755D01*
X0098816Y0124840D02*
X0123458Y0124840D01*
X0020124Y0105664D02*
X0007137Y0105664D01*
X0007137Y0106863D02*
X0018433Y0106863D01*
X0017497Y0108061D02*
X0007137Y0108061D01*
X0007137Y0109260D02*
X0016971Y0109260D01*
X0016707Y0110458D02*
X0007137Y0110458D01*
D13*
X0019937Y0125555D03*
X0024137Y0125555D03*
X0074537Y0126755D03*
X0074537Y0130355D03*
X0074537Y0133955D03*
X0074537Y0137555D03*
X0097337Y0126755D03*
X0105737Y0120155D03*
X0105737Y0115955D03*
X0105737Y0111755D03*
X0109937Y0111755D03*
X0109937Y0115955D03*
X0109937Y0120155D03*
X0110537Y0134555D03*
X0106937Y0134555D03*
X0106937Y0138155D03*
X0110537Y0138155D03*
X0110537Y0141755D03*
X0106937Y0141755D03*
X0124937Y0126755D03*
X0106337Y0097955D03*
X0106337Y0094355D03*
X0102137Y0094355D03*
X0102137Y0097955D03*
X0097937Y0097955D03*
X0097937Y0094355D03*
M02*
