G75*
%MOIN*%
%OFA0B0*%
%FSLAX25Y25*%
%IPPOS*%
%LPD*%
%AMOC8*
5,1,8,0,0,1.08239X$1,22.5*
%
%ADD10C,0.00000*%
%ADD11R,0.00083X0.07299*%
%ADD12R,0.00083X0.07216*%
%ADD13R,0.00083X0.07880*%
%ADD14R,0.00083X0.07382*%
%ADD15R,0.00083X0.01576*%
%ADD16R,0.00083X0.01576*%
%ADD17R,0.00083X0.08128*%
%ADD18R,0.00083X0.07796*%
%ADD19R,0.00083X0.08211*%
%ADD20R,0.00083X0.08377*%
%ADD21R,0.00083X0.08045*%
%ADD22R,0.00083X0.01576*%
%ADD23R,0.00083X0.01576*%
%ADD24R,0.00083X0.08543*%
%ADD25R,0.00083X0.08294*%
%ADD26R,0.00083X0.01576*%
%ADD27R,0.00083X0.01576*%
%ADD28R,0.00083X0.08543*%
%ADD29R,0.00083X0.08626*%
%ADD30R,0.00083X0.08460*%
%ADD31R,0.00083X0.08709*%
%ADD32R,0.00083X0.08792*%
%ADD33R,0.00083X0.08543*%
%ADD34R,0.00083X0.08875*%
%ADD35R,0.00083X0.08875*%
%ADD36R,0.00083X0.08709*%
%ADD37R,0.00083X0.08958*%
%ADD38R,0.00083X0.09041*%
%ADD39R,0.00083X0.08792*%
%ADD40R,0.00083X0.09041*%
%ADD41R,0.00083X0.09124*%
%ADD42R,0.00083X0.08957*%
%ADD43R,0.00083X0.09207*%
%ADD44R,0.00083X0.09206*%
%ADD45R,0.00083X0.09041*%
%ADD46R,0.00083X0.09207*%
%ADD47R,0.00083X0.09290*%
%ADD48R,0.00083X0.09289*%
%ADD49R,0.00083X0.09372*%
%ADD50R,0.00083X0.09372*%
%ADD51R,0.00083X0.09206*%
%ADD52R,0.00083X0.09456*%
%ADD53R,0.00083X0.09456*%
%ADD54R,0.00083X0.09289*%
%ADD55R,0.00083X0.09539*%
%ADD56R,0.00083X0.09538*%
%ADD57R,0.00083X0.09539*%
%ADD58R,0.00083X0.09621*%
%ADD59R,0.00083X0.09621*%
%ADD60R,0.00083X0.09704*%
%ADD61R,0.00083X0.09704*%
%ADD62R,0.00083X0.09787*%
%ADD63R,0.00083X0.09787*%
%ADD64R,0.00083X0.09787*%
%ADD65R,0.00083X0.02405*%
%ADD66R,0.00083X0.02322*%
%ADD67R,0.00083X0.02239*%
%ADD68R,0.00083X0.02406*%
%ADD69R,0.00083X0.02156*%
%ADD70R,0.00083X0.02074*%
%ADD71R,0.00083X0.02157*%
%ADD72R,0.00083X0.01991*%
%ADD73R,0.00083X0.01991*%
%ADD74R,0.00083X0.01576*%
%ADD75R,0.00083X0.01908*%
%ADD76R,0.00083X0.01991*%
%ADD77R,0.00083X0.01576*%
%ADD78R,0.00083X0.01991*%
%ADD79R,0.00083X0.01907*%
%ADD80R,0.00083X0.01908*%
%ADD81R,0.00083X0.01825*%
%ADD82R,0.00083X0.01742*%
%ADD83R,0.00083X0.01825*%
%ADD84R,0.00083X0.01742*%
%ADD85R,0.00083X0.01742*%
%ADD86R,0.00083X0.01825*%
%ADD87R,0.00083X0.01742*%
%ADD88R,0.00083X0.01742*%
%ADD89R,0.00083X0.01659*%
%ADD90R,0.00083X0.01659*%
%ADD91R,0.00083X0.01659*%
%ADD92R,0.00083X0.01659*%
%ADD93R,0.00083X0.01659*%
%ADD94R,0.00083X0.01659*%
%ADD95R,0.00083X0.01825*%
%ADD96R,0.00083X0.02074*%
%ADD97R,0.00083X0.02157*%
%ADD98R,0.00083X0.02074*%
%ADD99R,0.00083X0.02322*%
%ADD100R,0.00083X0.02654*%
%ADD101R,0.00083X0.02571*%
%ADD102R,0.00083X0.08626*%
%ADD103R,0.00083X0.09704*%
%ADD104R,0.00083X0.09621*%
%ADD105R,0.00083X0.08460*%
%ADD106R,0.00083X0.09538*%
%ADD107R,0.00083X0.08460*%
%ADD108R,0.00083X0.09538*%
%ADD109R,0.00083X0.08377*%
%ADD110R,0.00083X0.09456*%
%ADD111R,0.00083X0.08294*%
%ADD112R,0.00083X0.09372*%
%ADD113R,0.00083X0.08128*%
%ADD114R,0.00083X0.08046*%
%ADD115R,0.00083X0.08046*%
%ADD116R,0.00083X0.08294*%
%ADD117R,0.00083X0.09704*%
%ADD118R,0.00083X0.08543*%
%ADD119R,0.00083X0.02488*%
%ADD120R,0.00083X0.02406*%
%ADD121R,0.00083X0.01908*%
%ADD122R,0.00083X0.01659*%
%ADD123R,0.00083X0.01659*%
%ADD124R,0.00083X0.01742*%
%ADD125R,0.00083X0.01742*%
%ADD126R,0.00083X0.01824*%
%ADD127R,0.00083X0.01907*%
%ADD128R,0.00083X0.01908*%
%ADD129R,0.00083X0.01991*%
%ADD130R,0.00083X0.01991*%
%ADD131R,0.00083X0.02156*%
%ADD132R,0.00083X0.02239*%
%ADD133R,0.00083X0.02240*%
%ADD134R,0.00083X0.02156*%
%ADD135R,0.00083X0.02405*%
%ADD136R,0.00083X0.02489*%
%ADD137R,0.00083X0.09953*%
%ADD138R,0.00083X0.09870*%
%ADD139R,0.00083X0.09787*%
%ADD140R,0.00083X0.09704*%
%ADD141R,0.00083X0.09289*%
%ADD142R,0.00083X0.09206*%
%ADD143R,0.00083X0.09455*%
%ADD144R,0.00083X0.09124*%
%ADD145R,0.00083X0.08957*%
%ADD146R,0.00083X0.09041*%
%ADD147R,0.00083X0.08875*%
%ADD148R,0.00083X0.09206*%
%ADD149R,0.00083X0.09041*%
%ADD150R,0.00083X0.08792*%
%ADD151R,0.00083X0.08792*%
%ADD152R,0.00083X0.08626*%
%ADD153R,0.00083X0.08709*%
%ADD154R,0.00083X0.08709*%
%ADD155R,0.00083X0.08294*%
%ADD156R,0.00083X0.08211*%
%ADD157R,0.00083X0.08543*%
%ADD158R,0.00083X0.08377*%
%ADD159R,0.00083X0.07962*%
%ADD160R,0.00083X0.08294*%
%ADD161R,0.00083X0.07713*%
%ADD162R,0.00083X0.07962*%
%ADD163R,0.00083X0.07216*%
%ADD164R,0.00083X0.06967*%
%ADD165R,0.00083X0.07382*%
%ADD166R,0.00083X0.07299*%
%ADD167R,0.00083X0.16754*%
%ADD168R,0.00083X0.16754*%
%ADD169R,0.00083X0.16754*%
%ADD170R,0.00083X0.16754*%
%ADD171R,0.00083X0.03732*%
%ADD172R,0.00083X0.03732*%
%ADD173R,0.00083X0.03732*%
%ADD174R,0.00083X0.03732*%
%ADD175R,0.00083X0.04811*%
%ADD176R,0.00083X0.04811*%
%ADD177R,0.00083X0.04811*%
%ADD178R,0.00083X0.04977*%
%ADD179R,0.00083X0.04977*%
%ADD180R,0.00083X0.05059*%
%ADD181R,0.00083X0.05143*%
%ADD182R,0.00083X0.05143*%
%ADD183R,0.00083X0.05143*%
%ADD184R,0.00083X0.05308*%
%ADD185R,0.00083X0.05308*%
%ADD186R,0.00083X0.05308*%
%ADD187R,0.00083X0.00083*%
%ADD188R,0.00083X0.00083*%
%ADD189R,0.00083X0.05474*%
%ADD190R,0.00083X0.00332*%
%ADD191R,0.00083X0.00249*%
%ADD192R,0.00083X0.05474*%
%ADD193R,0.00083X0.00498*%
%ADD194R,0.00083X0.00498*%
%ADD195R,0.00083X0.05474*%
%ADD196R,0.00083X0.00664*%
%ADD197R,0.00083X0.00746*%
%ADD198R,0.00083X0.00912*%
%ADD199R,0.00083X0.00996*%
%ADD200R,0.00083X0.01161*%
%ADD201R,0.00083X0.01161*%
%ADD202R,0.00083X0.05557*%
%ADD203R,0.00083X0.01327*%
%ADD204R,0.00083X0.01327*%
%ADD205R,0.00083X0.05640*%
%ADD206R,0.00083X0.05640*%
%ADD207R,0.00083X0.05640*%
%ADD208R,0.00083X0.02157*%
%ADD209R,0.00083X0.02239*%
%ADD210R,0.00083X0.02405*%
%ADD211R,0.00083X0.02489*%
%ADD212R,0.00083X0.05806*%
%ADD213R,0.00083X0.02654*%
%ADD214R,0.00083X0.02737*%
%ADD215R,0.00083X0.05806*%
%ADD216R,0.00083X0.02820*%
%ADD217R,0.00083X0.02820*%
%ADD218R,0.00083X0.05806*%
%ADD219R,0.00083X0.03069*%
%ADD220R,0.00083X0.03069*%
%ADD221R,0.00083X0.03318*%
%ADD222R,0.00083X0.03318*%
%ADD223R,0.00083X0.03567*%
%ADD224R,0.00083X0.03483*%
%ADD225R,0.00083X0.05972*%
%ADD226R,0.00083X0.03650*%
%ADD227R,0.00083X0.06802*%
%ADD228R,0.00083X0.03898*%
%ADD229R,0.00083X0.03981*%
%ADD230R,0.00083X0.07631*%
%ADD231R,0.00083X0.04147*%
%ADD232R,0.00083X0.04230*%
%ADD233R,0.00083X0.08294*%
%ADD234R,0.00083X0.04396*%
%ADD235R,0.00083X0.04313*%
%ADD236R,0.00083X0.04562*%
%ADD237R,0.00083X0.04562*%
%ADD238R,0.00083X0.10285*%
%ADD239R,0.00083X0.05059*%
%ADD240R,0.00083X0.10783*%
%ADD241R,0.00083X0.05225*%
%ADD242R,0.00083X0.11280*%
%ADD243R,0.00083X0.05391*%
%ADD244R,0.00083X0.11778*%
%ADD245R,0.00083X0.05723*%
%ADD246R,0.00083X0.12276*%
%ADD247R,0.00083X0.05889*%
%ADD248R,0.00083X0.05889*%
%ADD249R,0.00083X0.12773*%
%ADD250R,0.00083X0.06055*%
%ADD251R,0.00083X0.25297*%
%ADD252R,0.00083X0.25380*%
%ADD253R,0.00083X0.25215*%
%ADD254R,0.00083X0.25131*%
%ADD255R,0.00083X0.25048*%
%ADD256R,0.00083X0.24883*%
%ADD257R,0.00083X0.24883*%
%ADD258R,0.00083X0.24883*%
%ADD259R,0.00083X0.24717*%
%ADD260R,0.00083X0.24717*%
%ADD261R,0.00083X0.24717*%
%ADD262R,0.00083X0.24551*%
%ADD263R,0.00083X0.24551*%
%ADD264R,0.00083X0.24385*%
%ADD265R,0.00083X0.24385*%
%ADD266R,0.00083X0.24385*%
%ADD267R,0.00083X0.24219*%
%ADD268R,0.00083X0.24219*%
%ADD269R,0.00083X0.24136*%
%ADD270R,0.00083X0.24053*%
%ADD271R,0.00083X0.23887*%
%ADD272R,0.00083X0.23887*%
%ADD273R,0.00083X0.23722*%
%ADD274R,0.00083X0.10617*%
%ADD275R,0.00083X0.10534*%
%ADD276R,0.00083X0.09953*%
%ADD277R,0.00083X0.08875*%
%ADD278R,0.00083X0.08709*%
%ADD279R,0.00083X0.08046*%
%ADD280R,0.00083X0.07880*%
%ADD281R,0.00083X0.07797*%
%ADD282R,0.00083X0.07631*%
%ADD283R,0.00083X0.07465*%
%ADD284R,0.00083X0.07216*%
%ADD285R,0.00083X0.07133*%
%ADD286R,0.00083X0.07050*%
%ADD287R,0.00083X0.06884*%
%ADD288R,0.00083X0.06719*%
%ADD289R,0.00083X0.06635*%
%ADD290R,0.00083X0.06635*%
%ADD291R,0.00083X0.06469*%
%ADD292R,0.00083X0.06469*%
%ADD293R,0.00083X0.06387*%
%ADD294R,0.00083X0.06387*%
%ADD295R,0.00083X0.06304*%
%ADD296R,0.00083X0.06220*%
%ADD297R,0.00083X0.06138*%
%ADD298R,0.00083X0.06055*%
%ADD299R,0.00083X0.04645*%
%ADD300R,0.00083X0.05557*%
%ADD301R,0.00083X0.05972*%
%ADD302R,0.00083X0.05889*%
%ADD303R,0.00083X0.06304*%
%ADD304R,0.00083X0.06967*%
%ADD305R,0.00083X0.05723*%
%ADD306R,0.00083X0.07631*%
%ADD307R,0.00083X0.05723*%
%ADD308R,0.00083X0.05557*%
%ADD309R,0.00083X0.00083*%
%ADD310R,0.00083X0.00415*%
%ADD311R,0.00083X0.00166*%
%ADD312R,0.00083X0.09953*%
%ADD313R,0.00083X0.00663*%
%ADD314R,0.00083X0.05391*%
%ADD315R,0.00083X0.10450*%
%ADD316R,0.00083X0.00995*%
%ADD317R,0.00083X0.00830*%
%ADD318R,0.00083X0.05391*%
%ADD319R,0.00083X0.10783*%
%ADD320R,0.00083X0.01244*%
%ADD321R,0.00083X0.01078*%
%ADD322R,0.00083X0.05391*%
%ADD323R,0.00083X0.11114*%
%ADD324R,0.00083X0.01493*%
%ADD325R,0.00083X0.01327*%
%ADD326R,0.00083X0.05226*%
%ADD327R,0.00083X0.11446*%
%ADD328R,0.00083X0.05226*%
%ADD329R,0.00083X0.11861*%
%ADD330R,0.00083X0.12193*%
%ADD331R,0.00083X0.02406*%
%ADD332R,0.00083X0.02240*%
%ADD333R,0.00083X0.12442*%
%ADD334R,0.00083X0.12773*%
%ADD335R,0.00083X0.02903*%
%ADD336R,0.00083X0.02820*%
%ADD337R,0.00083X0.13105*%
%ADD338R,0.00083X0.03235*%
%ADD339R,0.00083X0.02986*%
%ADD340R,0.00083X0.04976*%
%ADD341R,0.00083X0.13437*%
%ADD342R,0.00083X0.04976*%
%ADD343R,0.00083X0.13769*%
%ADD344R,0.00083X0.08543*%
%ADD345R,0.00083X0.13935*%
%ADD346R,0.00083X0.14266*%
%ADD347R,0.00083X0.08377*%
%ADD348R,0.00083X0.14432*%
%ADD349R,0.00083X0.14764*%
%ADD350R,0.00083X0.15013*%
%ADD351R,0.00083X0.08211*%
%ADD352R,0.00083X0.15261*%
%ADD353R,0.00083X0.08211*%
%ADD354R,0.00083X0.15428*%
%ADD355R,0.00083X0.15759*%
%ADD356R,0.00083X0.15925*%
%ADD357R,0.00083X0.08045*%
%ADD358R,0.00083X0.16257*%
%ADD359R,0.00083X0.07963*%
%ADD360R,0.00083X0.16423*%
%ADD361R,0.00083X0.07963*%
%ADD362R,0.00083X0.16588*%
%ADD363R,0.00083X0.16920*%
%ADD364R,0.00083X0.17086*%
%ADD365R,0.00083X0.07796*%
%ADD366R,0.00083X0.17252*%
%ADD367R,0.00083X0.17418*%
%ADD368R,0.00083X0.07797*%
%ADD369R,0.00083X0.17583*%
%ADD370R,0.00083X0.07714*%
%ADD371R,0.00083X0.17916*%
%ADD372R,0.00083X0.18081*%
%ADD373R,0.00083X0.07713*%
%ADD374R,0.00083X0.18247*%
%ADD375R,0.00083X0.07714*%
%ADD376R,0.00083X0.18413*%
%ADD377R,0.00083X0.18579*%
%ADD378R,0.00083X0.18745*%
%ADD379R,0.00083X0.18911*%
%ADD380R,0.00083X0.07548*%
%ADD381R,0.00083X0.19077*%
%ADD382R,0.00083X0.07548*%
%ADD383R,0.00083X0.19243*%
%ADD384R,0.00083X0.19409*%
%ADD385R,0.00083X0.07548*%
%ADD386R,0.00083X0.19575*%
%ADD387R,0.00083X0.07548*%
%ADD388R,0.00083X0.19740*%
%ADD389R,0.00083X0.07465*%
%ADD390R,0.00083X0.19906*%
%ADD391R,0.00083X0.07465*%
%ADD392R,0.00083X0.20072*%
%ADD393R,0.00083X0.07465*%
%ADD394R,0.00083X0.20238*%
%ADD395R,0.00083X0.20404*%
%ADD396R,0.00083X0.20404*%
%ADD397R,0.00083X0.07382*%
%ADD398R,0.00083X0.20570*%
%ADD399R,0.00083X0.20735*%
%ADD400R,0.00083X0.20902*%
%ADD401R,0.00083X0.07299*%
%ADD402R,0.00083X0.21068*%
%ADD403R,0.00083X0.07133*%
%ADD404R,0.00083X0.07216*%
%ADD405R,0.00083X0.21233*%
%ADD406R,0.00083X0.21233*%
%ADD407R,0.00083X0.06967*%
%ADD408R,0.00083X0.21399*%
%ADD409R,0.00083X0.06719*%
%ADD410R,0.00083X0.06718*%
%ADD411R,0.00083X0.21565*%
%ADD412R,0.00083X0.06469*%
%ADD413R,0.00083X0.06635*%
%ADD414R,0.00083X0.21731*%
%ADD415R,0.00083X0.06387*%
%ADD416R,0.00083X0.06470*%
%ADD417R,0.00083X0.21731*%
%ADD418R,0.00083X0.06221*%
%ADD419R,0.00083X0.21897*%
%ADD420R,0.00083X0.06221*%
%ADD421R,0.00083X0.22063*%
%ADD422R,0.00083X0.05972*%
%ADD423R,0.00083X0.22146*%
%ADD424R,0.00083X0.22228*%
%ADD425R,0.00083X0.05723*%
%ADD426R,0.00083X0.22394*%
%ADD427R,0.00083X0.05474*%
%ADD428R,0.00083X0.22561*%
%ADD429R,0.00083X0.22726*%
%ADD430R,0.00083X0.22809*%
%ADD431R,0.00083X0.04976*%
%ADD432R,0.00083X0.22892*%
%ADD433R,0.00083X0.04728*%
%ADD434R,0.00083X0.04893*%
%ADD435R,0.00083X0.23058*%
%ADD436R,0.00083X0.04644*%
%ADD437R,0.00083X0.04728*%
%ADD438R,0.00083X0.23058*%
%ADD439R,0.00083X0.04479*%
%ADD440R,0.00083X0.04645*%
%ADD441R,0.00083X0.23224*%
%ADD442R,0.00083X0.04396*%
%ADD443R,0.00083X0.04479*%
%ADD444R,0.00083X0.23390*%
%ADD445R,0.00083X0.04230*%
%ADD446R,0.00083X0.23390*%
%ADD447R,0.00083X0.04147*%
%ADD448R,0.00083X0.04147*%
%ADD449R,0.00083X0.23556*%
%ADD450R,0.00083X0.03898*%
%ADD451R,0.00083X0.04064*%
%ADD452R,0.00083X0.23556*%
%ADD453R,0.00083X0.03898*%
%ADD454R,0.00083X0.23721*%
%ADD455R,0.00083X0.03815*%
%ADD456R,0.00083X0.03815*%
%ADD457R,0.00083X0.23721*%
%ADD458R,0.00083X0.03815*%
%ADD459R,0.00083X0.24054*%
%ADD460R,0.00083X0.24054*%
%ADD461R,0.00083X0.24219*%
%ADD462R,0.00083X0.03733*%
%ADD463R,0.00083X0.03733*%
%ADD464R,0.00083X0.24385*%
%ADD465R,0.00083X0.24551*%
%ADD466R,0.00083X0.24551*%
%ADD467R,0.00083X0.24551*%
%ADD468R,0.00083X0.24717*%
%ADD469R,0.00083X0.03650*%
%ADD470R,0.00083X0.24717*%
%ADD471R,0.00083X0.03733*%
%ADD472R,0.00083X0.25049*%
%ADD473R,0.00083X0.25049*%
%ADD474R,0.00083X0.03649*%
%ADD475R,0.00083X0.25049*%
%ADD476R,0.00083X0.03649*%
%ADD477R,0.00083X0.25214*%
%ADD478R,0.00083X0.03649*%
%ADD479R,0.00083X0.25214*%
%ADD480R,0.00083X0.03650*%
%ADD481R,0.00083X0.25380*%
%ADD482R,0.00083X0.25380*%
%ADD483R,0.00083X0.25546*%
%ADD484R,0.00083X0.25546*%
%ADD485R,0.00083X0.25546*%
%ADD486R,0.00083X0.25712*%
%ADD487R,0.00083X0.03567*%
%ADD488R,0.00083X0.25712*%
%ADD489R,0.00083X0.03649*%
%ADD490R,0.00083X0.12690*%
%ADD491R,0.00083X0.12109*%
%ADD492R,0.00083X0.11612*%
%ADD493R,0.00083X0.11446*%
%ADD494R,0.00083X0.11197*%
%ADD495R,0.00083X0.11031*%
%ADD496R,0.00083X0.11115*%
%ADD497R,0.00083X0.11031*%
%ADD498R,0.00083X0.03567*%
%ADD499R,0.00083X0.10866*%
%ADD500R,0.00083X0.10617*%
%ADD501R,0.00083X0.10617*%
%ADD502R,0.00083X0.10533*%
%ADD503R,0.00083X0.03484*%
%ADD504R,0.00083X0.10451*%
%ADD505R,0.00083X0.04064*%
%ADD506R,0.00083X0.10368*%
%ADD507R,0.00083X0.04479*%
%ADD508R,0.00083X0.10368*%
%ADD509R,0.00083X0.04894*%
%ADD510R,0.00083X0.04977*%
%ADD511R,0.00083X0.10202*%
%ADD512R,0.00083X0.05806*%
%ADD513R,0.00083X0.10119*%
%ADD514R,0.00083X0.10036*%
%ADD515R,0.00083X0.06470*%
%ADD516R,0.00083X0.06221*%
%ADD517R,0.00083X0.10119*%
%ADD518R,0.00083X0.06470*%
%ADD519R,0.00083X0.10036*%
%ADD520R,0.00083X0.06470*%
%ADD521R,0.00083X0.09953*%
%ADD522R,0.00083X0.09870*%
%ADD523R,0.00083X0.09787*%
%ADD524R,0.00083X0.06304*%
%ADD525R,0.00083X0.06304*%
%ADD526R,0.00083X0.09539*%
%ADD527R,0.00083X0.06304*%
%ADD528R,0.00083X0.09539*%
%ADD529R,0.00083X0.09456*%
%ADD530R,0.00083X0.06387*%
%ADD531R,0.00083X0.09621*%
%ADD532R,0.00083X0.09870*%
%ADD533R,0.00083X0.09870*%
%ADD534R,0.00083X0.09953*%
%ADD535R,0.00083X0.06221*%
%ADD536R,0.00083X0.10036*%
%ADD537R,0.00083X0.05723*%
%ADD538R,0.00083X0.10285*%
%ADD539R,0.00083X0.04479*%
%ADD540R,0.00083X0.04894*%
%ADD541R,0.00083X0.10368*%
%ADD542R,0.00083X0.10700*%
%ADD543R,0.00083X0.03567*%
%ADD544R,0.00083X0.10866*%
%ADD545R,0.00083X0.10948*%
%ADD546R,0.00083X0.11115*%
%ADD547R,0.00083X0.11197*%
%ADD548R,0.00083X0.11363*%
%ADD549R,0.00083X0.11529*%
%ADD550R,0.00083X0.11695*%
%ADD551R,0.00083X0.12027*%
%ADD552R,0.00083X0.12441*%
%ADD553R,0.00083X0.25795*%
%ADD554R,0.00083X0.25630*%
%ADD555R,0.00083X0.25214*%
%ADD556R,0.00083X0.24883*%
%ADD557R,0.00083X0.24717*%
%ADD558R,0.00083X0.03733*%
%ADD559R,0.00083X0.24219*%
%ADD560R,0.00083X0.23887*%
%ADD561R,0.00083X0.23639*%
%ADD562R,0.00083X0.04313*%
%ADD563R,0.00083X0.04479*%
%ADD564R,0.00083X0.04396*%
%ADD565R,0.00083X0.23224*%
%ADD566R,0.00083X0.23224*%
%ADD567R,0.00083X0.04644*%
%ADD568R,0.00083X0.04893*%
%ADD569R,0.00083X0.04728*%
%ADD570R,0.00083X0.22892*%
%ADD571R,0.00083X0.04976*%
%ADD572R,0.00083X0.22726*%
%ADD573R,0.00083X0.22561*%
%ADD574R,0.00083X0.22561*%
%ADD575R,0.00083X0.05640*%
%ADD576R,0.00083X0.05474*%
%ADD577R,0.00083X0.22394*%
%ADD578R,0.00083X0.05723*%
%ADD579R,0.00083X0.22228*%
%ADD580R,0.00083X0.05972*%
%ADD581R,0.00083X0.22063*%
%ADD582R,0.00083X0.06055*%
%ADD583R,0.00083X0.21897*%
%ADD584R,0.00083X0.06884*%
%ADD585R,0.00083X0.21399*%
%ADD586R,0.00083X0.20653*%
%ADD587R,0.00083X0.07382*%
%ADD588R,0.00083X0.20570*%
%ADD589R,0.00083X0.20238*%
%ADD590R,0.00083X0.20072*%
%ADD591R,0.00083X0.19740*%
%ADD592R,0.00083X0.07548*%
%ADD593R,0.00083X0.19575*%
%ADD594R,0.00083X0.07548*%
%ADD595R,0.00083X0.19243*%
%ADD596R,0.00083X0.19077*%
%ADD597R,0.00083X0.18745*%
%ADD598R,0.00083X0.07714*%
%ADD599R,0.00083X0.18579*%
%ADD600R,0.00083X0.07713*%
%ADD601R,0.00083X0.18081*%
%ADD602R,0.00083X0.17916*%
%ADD603R,0.00083X0.17750*%
%ADD604R,0.00083X0.17501*%
%ADD605R,0.00083X0.07880*%
%ADD606R,0.00083X0.07963*%
%ADD607R,0.00083X0.07963*%
%ADD608R,0.00083X0.16423*%
%ADD609R,0.00083X0.16091*%
%ADD610R,0.00083X0.15759*%
%ADD611R,0.00083X0.15593*%
%ADD612R,0.00083X0.15261*%
%ADD613R,0.00083X0.15095*%
%ADD614R,0.00083X0.14598*%
%ADD615R,0.00083X0.14266*%
%ADD616R,0.00083X0.14100*%
%ADD617R,0.00083X0.13271*%
%ADD618R,0.00083X0.02986*%
%ADD619R,0.00083X0.12939*%
%ADD620R,0.00083X0.02737*%
%ADD621R,0.00083X0.12607*%
%ADD622R,0.00083X0.12276*%
%ADD623R,0.00083X0.11944*%
%ADD624R,0.00083X0.11612*%
%ADD625R,0.00083X0.01410*%
%ADD626R,0.00083X0.01493*%
%ADD627R,0.00083X0.01078*%
%ADD628R,0.00083X0.01244*%
%ADD629R,0.00083X0.10948*%
%ADD630R,0.00083X0.00830*%
%ADD631R,0.00083X0.00746*%
%ADD632R,0.00083X0.00166*%
%ADD633R,0.00083X0.00415*%
%ADD634R,0.00083X0.05557*%
%ADD635R,0.00083X0.07133*%
%ADD636R,0.00083X0.05806*%
%ADD637R,0.00083X0.06055*%
%ADD638R,0.00083X0.06138*%
%ADD639R,0.00083X0.03981*%
%ADD640R,0.00083X0.07465*%
%ADD641R,0.00083X0.08294*%
%ADD642R,0.00083X0.08460*%
%ADD643R,0.00083X0.10451*%
%ADD644R,0.00083X0.10617*%
%ADD645R,0.00083X0.23722*%
%ADD646R,0.00083X0.23887*%
%ADD647R,0.00083X0.24053*%
%ADD648R,0.00083X0.24717*%
%ADD649R,0.00083X0.25048*%
%ADD650R,0.00083X0.25131*%
%ADD651R,0.00083X0.25215*%
%ADD652R,0.00083X0.25297*%
%ADD653R,0.00083X0.06137*%
%ADD654R,0.00083X0.11861*%
%ADD655R,0.00083X0.05391*%
%ADD656R,0.00083X0.11363*%
%ADD657R,0.00083X0.05225*%
%ADD658R,0.00083X0.09041*%
%ADD659R,0.00083X0.04396*%
%ADD660R,0.00083X0.03981*%
%ADD661R,0.00083X0.03898*%
%ADD662R,0.00083X0.06802*%
%ADD663R,0.00083X0.03069*%
%ADD664R,0.00083X0.02903*%
%ADD665R,0.00083X0.02737*%
%ADD666R,0.00083X0.02654*%
%ADD667R,0.00083X0.01991*%
%ADD668R,0.00083X0.01161*%
%ADD669R,0.00083X0.00664*%
%ADD670R,0.00083X0.00581*%
%ADD671R,0.00083X0.00332*%
%ADD672R,0.00083X0.05226*%
%ADD673R,0.00083X0.04977*%
D10*
X0015380Y0032555D02*
X0192545Y0032555D01*
X0192783Y0032558D01*
X0193021Y0032566D01*
X0193258Y0032581D01*
X0193495Y0032601D01*
X0193731Y0032627D01*
X0193967Y0032658D01*
X0194202Y0032695D01*
X0194436Y0032738D01*
X0194669Y0032787D01*
X0194901Y0032841D01*
X0195131Y0032901D01*
X0195360Y0032966D01*
X0195587Y0033037D01*
X0195812Y0033113D01*
X0196035Y0033195D01*
X0196257Y0033282D01*
X0196476Y0033374D01*
X0196693Y0033472D01*
X0196907Y0033574D01*
X0197119Y0033682D01*
X0197329Y0033796D01*
X0197535Y0033914D01*
X0197739Y0034037D01*
X0197939Y0034165D01*
X0198136Y0034297D01*
X0198331Y0034435D01*
X0198521Y0034577D01*
X0198709Y0034724D01*
X0198892Y0034875D01*
X0199072Y0035030D01*
X0199248Y0035190D01*
X0199420Y0035354D01*
X0199589Y0035523D01*
X0199753Y0035695D01*
X0199913Y0035871D01*
X0200068Y0036051D01*
X0200219Y0036234D01*
X0200366Y0036422D01*
X0200508Y0036612D01*
X0200646Y0036807D01*
X0200778Y0037004D01*
X0200906Y0037204D01*
X0201029Y0037408D01*
X0201147Y0037614D01*
X0201261Y0037824D01*
X0201369Y0038036D01*
X0201471Y0038250D01*
X0201569Y0038467D01*
X0201661Y0038686D01*
X0201748Y0038908D01*
X0201830Y0039131D01*
X0201906Y0039356D01*
X0201977Y0039583D01*
X0202042Y0039812D01*
X0202102Y0040042D01*
X0202156Y0040274D01*
X0202205Y0040507D01*
X0202248Y0040741D01*
X0202285Y0040976D01*
X0202316Y0041212D01*
X0202342Y0041448D01*
X0202362Y0041685D01*
X0202377Y0041922D01*
X0202385Y0042160D01*
X0202388Y0042398D01*
X0202387Y0042398D02*
X0202387Y0219563D01*
X0202388Y0219563D02*
X0202385Y0219801D01*
X0202377Y0220039D01*
X0202362Y0220276D01*
X0202342Y0220513D01*
X0202316Y0220749D01*
X0202285Y0220985D01*
X0202248Y0221220D01*
X0202205Y0221454D01*
X0202156Y0221687D01*
X0202102Y0221919D01*
X0202042Y0222149D01*
X0201977Y0222378D01*
X0201906Y0222605D01*
X0201830Y0222830D01*
X0201748Y0223053D01*
X0201661Y0223275D01*
X0201569Y0223494D01*
X0201471Y0223711D01*
X0201369Y0223925D01*
X0201261Y0224137D01*
X0201147Y0224347D01*
X0201029Y0224553D01*
X0200906Y0224757D01*
X0200778Y0224957D01*
X0200646Y0225154D01*
X0200508Y0225349D01*
X0200366Y0225539D01*
X0200219Y0225727D01*
X0200068Y0225910D01*
X0199913Y0226090D01*
X0199753Y0226266D01*
X0199589Y0226438D01*
X0199420Y0226607D01*
X0199248Y0226771D01*
X0199072Y0226931D01*
X0198892Y0227086D01*
X0198709Y0227237D01*
X0198521Y0227384D01*
X0198331Y0227526D01*
X0198136Y0227664D01*
X0197939Y0227796D01*
X0197739Y0227924D01*
X0197535Y0228047D01*
X0197329Y0228165D01*
X0197119Y0228279D01*
X0196907Y0228387D01*
X0196693Y0228489D01*
X0196476Y0228587D01*
X0196257Y0228679D01*
X0196035Y0228766D01*
X0195812Y0228848D01*
X0195587Y0228924D01*
X0195360Y0228995D01*
X0195131Y0229060D01*
X0194901Y0229120D01*
X0194669Y0229174D01*
X0194436Y0229223D01*
X0194202Y0229266D01*
X0193967Y0229303D01*
X0193731Y0229334D01*
X0193495Y0229360D01*
X0193258Y0229380D01*
X0193021Y0229395D01*
X0192783Y0229403D01*
X0192545Y0229406D01*
X0015380Y0229406D01*
X0015142Y0229403D01*
X0014904Y0229395D01*
X0014667Y0229380D01*
X0014430Y0229360D01*
X0014194Y0229334D01*
X0013958Y0229303D01*
X0013723Y0229266D01*
X0013489Y0229223D01*
X0013256Y0229174D01*
X0013024Y0229120D01*
X0012794Y0229060D01*
X0012565Y0228995D01*
X0012338Y0228924D01*
X0012113Y0228848D01*
X0011890Y0228766D01*
X0011668Y0228679D01*
X0011449Y0228587D01*
X0011232Y0228489D01*
X0011018Y0228387D01*
X0010806Y0228279D01*
X0010596Y0228165D01*
X0010390Y0228047D01*
X0010186Y0227924D01*
X0009986Y0227796D01*
X0009789Y0227664D01*
X0009594Y0227526D01*
X0009404Y0227384D01*
X0009216Y0227237D01*
X0009033Y0227086D01*
X0008853Y0226931D01*
X0008677Y0226771D01*
X0008505Y0226607D01*
X0008336Y0226438D01*
X0008172Y0226266D01*
X0008012Y0226090D01*
X0007857Y0225910D01*
X0007706Y0225727D01*
X0007559Y0225539D01*
X0007417Y0225349D01*
X0007279Y0225154D01*
X0007147Y0224957D01*
X0007019Y0224757D01*
X0006896Y0224553D01*
X0006778Y0224347D01*
X0006664Y0224137D01*
X0006556Y0223925D01*
X0006454Y0223711D01*
X0006356Y0223494D01*
X0006264Y0223275D01*
X0006177Y0223053D01*
X0006095Y0222830D01*
X0006019Y0222605D01*
X0005948Y0222378D01*
X0005883Y0222149D01*
X0005823Y0221919D01*
X0005769Y0221687D01*
X0005720Y0221454D01*
X0005677Y0221220D01*
X0005640Y0220985D01*
X0005609Y0220749D01*
X0005583Y0220513D01*
X0005563Y0220276D01*
X0005548Y0220039D01*
X0005540Y0219801D01*
X0005537Y0219563D01*
X0005537Y0042398D01*
X0005540Y0042160D01*
X0005548Y0041922D01*
X0005563Y0041685D01*
X0005583Y0041448D01*
X0005609Y0041212D01*
X0005640Y0040976D01*
X0005677Y0040741D01*
X0005720Y0040507D01*
X0005769Y0040274D01*
X0005823Y0040042D01*
X0005883Y0039812D01*
X0005948Y0039583D01*
X0006019Y0039356D01*
X0006095Y0039131D01*
X0006177Y0038908D01*
X0006264Y0038686D01*
X0006356Y0038467D01*
X0006454Y0038250D01*
X0006556Y0038036D01*
X0006664Y0037824D01*
X0006778Y0037614D01*
X0006896Y0037408D01*
X0007019Y0037204D01*
X0007147Y0037004D01*
X0007279Y0036807D01*
X0007417Y0036612D01*
X0007559Y0036422D01*
X0007706Y0036234D01*
X0007857Y0036051D01*
X0008012Y0035871D01*
X0008172Y0035695D01*
X0008336Y0035523D01*
X0008505Y0035354D01*
X0008677Y0035190D01*
X0008853Y0035030D01*
X0009033Y0034875D01*
X0009216Y0034724D01*
X0009404Y0034577D01*
X0009594Y0034435D01*
X0009789Y0034297D01*
X0009986Y0034165D01*
X0010186Y0034037D01*
X0010390Y0033914D01*
X0010596Y0033796D01*
X0010806Y0033682D01*
X0011018Y0033574D01*
X0011232Y0033472D01*
X0011449Y0033374D01*
X0011668Y0033282D01*
X0011890Y0033195D01*
X0012113Y0033113D01*
X0012338Y0033037D01*
X0012565Y0032966D01*
X0012794Y0032901D01*
X0013024Y0032841D01*
X0013256Y0032787D01*
X0013489Y0032738D01*
X0013723Y0032695D01*
X0013958Y0032658D01*
X0014194Y0032627D01*
X0014430Y0032601D01*
X0014667Y0032581D01*
X0014904Y0032566D01*
X0015142Y0032558D01*
X0015380Y0032555D01*
X0057950Y0097955D02*
X0057922Y0097983D01*
X0057922Y0098038D01*
X0057950Y0098066D01*
X0057950Y0098108D02*
X0057922Y0098108D01*
X0057922Y0098135D01*
X0057950Y0098135D01*
X0057950Y0098108D01*
X0058005Y0098108D02*
X0058033Y0098108D01*
X0058033Y0098135D01*
X0058005Y0098135D01*
X0058005Y0098108D01*
X0058061Y0098066D02*
X0058088Y0098038D01*
X0058088Y0097983D01*
X0058061Y0097955D01*
X0057950Y0097955D01*
X0057922Y0098184D02*
X0058088Y0098295D01*
X0058088Y0098337D02*
X0057950Y0098337D01*
X0057922Y0098364D01*
X0057922Y0098420D01*
X0057950Y0098447D01*
X0058088Y0098447D01*
X0058033Y0098517D02*
X0058033Y0098600D01*
X0058005Y0098642D02*
X0058033Y0098670D01*
X0058033Y0098725D01*
X0058005Y0098752D01*
X0057978Y0098752D01*
X0057978Y0098642D01*
X0058005Y0098642D02*
X0057950Y0098642D01*
X0057922Y0098670D01*
X0057922Y0098725D01*
X0057922Y0098794D02*
X0058033Y0098794D01*
X0057978Y0098794D02*
X0058033Y0098850D01*
X0058033Y0098877D01*
X0058005Y0098922D02*
X0058033Y0098949D01*
X0058033Y0099032D01*
X0057978Y0099005D02*
X0057978Y0098949D01*
X0058005Y0098922D01*
X0057922Y0098922D02*
X0057922Y0099005D01*
X0057950Y0099032D01*
X0057978Y0099005D01*
X0057922Y0099074D02*
X0058088Y0099185D01*
X0058033Y0099227D02*
X0058033Y0099255D01*
X0058005Y0099282D01*
X0058033Y0099310D01*
X0058005Y0099337D01*
X0057922Y0099337D01*
X0057950Y0099379D02*
X0057922Y0099407D01*
X0057922Y0099490D01*
X0057950Y0099532D02*
X0057922Y0099560D01*
X0057922Y0099615D01*
X0057950Y0099643D01*
X0058005Y0099643D01*
X0058033Y0099615D01*
X0058033Y0099560D01*
X0058005Y0099532D01*
X0057950Y0099532D01*
X0058033Y0099490D02*
X0058033Y0099407D01*
X0058005Y0099379D01*
X0057950Y0099379D01*
X0057922Y0099282D02*
X0058005Y0099282D01*
X0058033Y0099227D02*
X0057922Y0099227D01*
X0057922Y0099685D02*
X0057922Y0099768D01*
X0057950Y0099795D01*
X0058005Y0099795D01*
X0058033Y0099768D01*
X0058033Y0099685D01*
X0058088Y0099685D02*
X0057922Y0099685D01*
X0057922Y0099837D02*
X0057922Y0099893D01*
X0057922Y0099865D02*
X0058088Y0099865D01*
X0058088Y0099837D01*
X0058005Y0099939D02*
X0058033Y0099967D01*
X0058033Y0100022D01*
X0058005Y0100050D01*
X0057978Y0100050D01*
X0057978Y0099939D01*
X0058005Y0099939D02*
X0057950Y0099939D01*
X0057922Y0099967D01*
X0057922Y0100022D01*
X0057922Y0100092D02*
X0058033Y0100092D01*
X0058033Y0100147D02*
X0058033Y0100175D01*
X0058033Y0100147D02*
X0057978Y0100092D01*
X0057922Y0100219D02*
X0058088Y0100329D01*
X0058088Y0100371D02*
X0058088Y0100454D01*
X0058061Y0100482D01*
X0057950Y0100482D01*
X0057922Y0100454D01*
X0057922Y0100371D01*
X0058088Y0100371D01*
X0058005Y0100524D02*
X0058033Y0100552D01*
X0058033Y0100607D01*
X0058005Y0100635D01*
X0057978Y0100635D01*
X0057978Y0100524D01*
X0058005Y0100524D02*
X0057950Y0100524D01*
X0057922Y0100552D01*
X0057922Y0100607D01*
X0057922Y0100677D02*
X0057922Y0100760D01*
X0057950Y0100787D01*
X0057978Y0100760D01*
X0057978Y0100704D01*
X0058005Y0100677D01*
X0058033Y0100704D01*
X0058033Y0100787D01*
X0057978Y0100829D02*
X0058033Y0100912D01*
X0058033Y0100956D02*
X0058033Y0101012D01*
X0058061Y0100984D02*
X0057950Y0100984D01*
X0057922Y0101012D01*
X0057950Y0101058D02*
X0057922Y0101086D01*
X0057922Y0101141D01*
X0057950Y0101169D01*
X0058005Y0101169D01*
X0058033Y0101141D01*
X0058033Y0101086D01*
X0058005Y0101058D01*
X0057950Y0101058D01*
X0057922Y0100912D02*
X0057978Y0100829D01*
X0057922Y0100829D02*
X0058088Y0100829D01*
X0058033Y0101211D02*
X0058033Y0101294D01*
X0058005Y0101321D01*
X0057950Y0101321D01*
X0057922Y0101294D01*
X0057922Y0101211D01*
X0057867Y0101211D02*
X0058033Y0101211D01*
X0057922Y0101363D02*
X0058088Y0101474D01*
X0058088Y0101516D02*
X0058088Y0101544D01*
X0057922Y0101544D01*
X0057922Y0101571D02*
X0057922Y0101516D01*
X0057950Y0101618D02*
X0057922Y0101645D01*
X0057922Y0101701D01*
X0057950Y0101728D01*
X0058005Y0101728D01*
X0058033Y0101701D01*
X0058033Y0101645D01*
X0058005Y0101618D01*
X0057950Y0101618D01*
X0057950Y0101770D02*
X0057922Y0101798D01*
X0057922Y0101881D01*
X0057895Y0101881D02*
X0058033Y0101881D01*
X0058033Y0101798D01*
X0058005Y0101770D01*
X0057950Y0101770D01*
X0057867Y0101826D02*
X0057867Y0101853D01*
X0057895Y0101881D01*
X0057950Y0101923D02*
X0057922Y0101951D01*
X0057922Y0102006D01*
X0057950Y0102034D01*
X0058005Y0102034D01*
X0058033Y0102006D01*
X0058033Y0101951D01*
X0058005Y0101923D01*
X0057950Y0101923D01*
X0057922Y0102076D02*
X0057922Y0102158D01*
X0057950Y0102186D01*
X0057978Y0102186D01*
X0058005Y0102158D01*
X0058005Y0102076D01*
X0058005Y0102158D02*
X0058033Y0102186D01*
X0058061Y0102186D01*
X0058088Y0102158D01*
X0058088Y0102076D01*
X0057922Y0102076D01*
X0057922Y0102228D02*
X0057978Y0102283D01*
X0057922Y0102339D01*
X0058088Y0102339D01*
X0058088Y0102228D02*
X0057922Y0102228D01*
X0057922Y0102381D02*
X0057922Y0102408D01*
X0057950Y0102408D01*
X0057950Y0102381D01*
X0057922Y0102381D01*
X0057922Y0102457D02*
X0057922Y0102540D01*
X0057950Y0102568D01*
X0058005Y0102568D01*
X0058033Y0102540D01*
X0058033Y0102457D01*
X0058088Y0102457D02*
X0057922Y0102457D01*
X0057922Y0102610D02*
X0058033Y0102610D01*
X0058033Y0102637D01*
X0058005Y0102665D01*
X0058033Y0102693D01*
X0058005Y0102720D01*
X0057922Y0102720D01*
X0057922Y0102762D02*
X0057922Y0102845D01*
X0057950Y0102873D01*
X0058005Y0102873D01*
X0058033Y0102845D01*
X0058033Y0102762D01*
X0057867Y0102762D01*
X0057922Y0102665D02*
X0058005Y0102665D01*
X0057950Y0098600D02*
X0057978Y0098572D01*
X0057978Y0098517D01*
X0058005Y0098489D01*
X0058033Y0098517D01*
X0057922Y0098489D02*
X0057922Y0098572D01*
X0057950Y0098600D01*
D11*
X0058337Y0101563D03*
X0058337Y0138141D03*
X0120959Y0119396D03*
D12*
X0058337Y0150375D03*
D13*
X0058420Y0150624D03*
X0058420Y0138431D03*
X0071774Y0138431D03*
X0071774Y0150624D03*
X0096076Y0141832D03*
X0117226Y0141832D03*
X0121125Y0119686D03*
X0117226Y0112885D03*
X0096076Y0112885D03*
X0058420Y0101854D03*
D14*
X0058420Y0116451D03*
X0115402Y0111558D03*
X0115402Y0143159D03*
D15*
X0069368Y0156015D03*
X0069368Y0122921D03*
X0069451Y0122921D03*
X0069617Y0122921D03*
X0069700Y0122921D03*
X0069949Y0122921D03*
X0070115Y0122921D03*
X0069202Y0122921D03*
X0069120Y0122921D03*
X0068871Y0122921D03*
X0068705Y0122921D03*
X0068456Y0122921D03*
X0068207Y0122921D03*
X0068041Y0122921D03*
X0067792Y0122921D03*
X0067710Y0122921D03*
X0067544Y0122921D03*
X0067461Y0122921D03*
X0067212Y0122921D03*
X0067046Y0122921D03*
X0066797Y0122921D03*
X0066548Y0122921D03*
X0066300Y0122921D03*
X0066134Y0122921D03*
X0065885Y0122921D03*
X0065802Y0122921D03*
X0065636Y0122921D03*
X0065553Y0122921D03*
X0065304Y0122921D03*
X0065138Y0122921D03*
X0064889Y0122921D03*
X0064641Y0122921D03*
X0064392Y0122921D03*
X0064226Y0122921D03*
X0063977Y0122921D03*
X0063894Y0122921D03*
X0063728Y0122921D03*
X0063645Y0122921D03*
X0063397Y0122921D03*
X0063231Y0122921D03*
X0062982Y0122921D03*
X0062733Y0122921D03*
X0062567Y0122921D03*
X0062318Y0122921D03*
X0062235Y0122921D03*
X0062069Y0122921D03*
X0061986Y0122921D03*
X0061821Y0122921D03*
X0061738Y0122921D03*
X0061489Y0122921D03*
X0061323Y0122921D03*
X0061074Y0122921D03*
X0060825Y0122921D03*
X0060659Y0122921D03*
X0060411Y0122921D03*
X0060328Y0122921D03*
X0060162Y0122921D03*
X0060079Y0122921D03*
X0059830Y0122921D03*
X0059664Y0122921D03*
X0059415Y0122921D03*
X0059166Y0122921D03*
X0058918Y0122921D03*
X0058752Y0122921D03*
X0058503Y0122921D03*
X0058420Y0122921D03*
X0060079Y0098702D03*
X0060162Y0098702D03*
X0060328Y0098702D03*
X0060411Y0098702D03*
X0060659Y0098702D03*
X0060825Y0098702D03*
X0061074Y0098702D03*
X0061323Y0098702D03*
X0061489Y0098702D03*
X0061738Y0098702D03*
X0061821Y0098702D03*
X0061986Y0098702D03*
X0062069Y0098702D03*
X0062235Y0098702D03*
X0062318Y0098702D03*
X0062567Y0098702D03*
X0062733Y0098702D03*
X0062982Y0098702D03*
X0063231Y0098702D03*
X0063397Y0098702D03*
X0063645Y0098702D03*
X0063728Y0098702D03*
X0063894Y0098702D03*
X0063977Y0098702D03*
X0064226Y0098702D03*
X0065885Y0098702D03*
X0066134Y0098702D03*
X0066300Y0098702D03*
X0066548Y0098702D03*
X0066797Y0098702D03*
X0067046Y0098702D03*
X0067212Y0098702D03*
X0067461Y0098702D03*
X0067544Y0098702D03*
X0067710Y0098702D03*
X0067792Y0098702D03*
X0068041Y0098702D03*
X0068207Y0098702D03*
X0068456Y0098702D03*
X0068705Y0098702D03*
X0068871Y0098702D03*
X0069120Y0098702D03*
X0069202Y0098702D03*
X0069368Y0098702D03*
X0069451Y0098702D03*
X0069617Y0098702D03*
X0069700Y0098702D03*
X0069949Y0098702D03*
X0070115Y0098702D03*
D16*
X0069202Y0107245D03*
X0068871Y0107328D03*
X0068705Y0107328D03*
X0068456Y0107328D03*
X0068207Y0107328D03*
X0068041Y0107328D03*
X0067792Y0107328D03*
X0067710Y0107328D03*
X0067544Y0107328D03*
X0067461Y0107328D03*
X0067212Y0107328D03*
X0067212Y0110894D03*
X0067046Y0110894D03*
X0066797Y0110894D03*
X0066548Y0110894D03*
X0066300Y0110894D03*
X0066134Y0110894D03*
X0065885Y0110894D03*
X0065802Y0110894D03*
X0065636Y0110894D03*
X0065553Y0110894D03*
X0065304Y0110894D03*
X0065138Y0110894D03*
X0064889Y0110894D03*
X0064641Y0110894D03*
X0064392Y0110894D03*
X0064226Y0110894D03*
X0063977Y0110894D03*
X0063894Y0110894D03*
X0063728Y0110894D03*
X0063645Y0110894D03*
X0063397Y0110894D03*
X0063231Y0110894D03*
X0062982Y0110894D03*
X0062733Y0110894D03*
X0062567Y0110894D03*
X0062318Y0110894D03*
X0062235Y0110894D03*
X0062069Y0110894D03*
X0061986Y0110894D03*
X0061821Y0110894D03*
X0061738Y0110894D03*
X0061489Y0110894D03*
X0061323Y0110894D03*
X0061323Y0107328D03*
X0061489Y0107328D03*
X0061738Y0107328D03*
X0061821Y0107328D03*
X0061986Y0107328D03*
X0062069Y0107328D03*
X0062235Y0107328D03*
X0062318Y0107328D03*
X0062567Y0107328D03*
X0062733Y0107328D03*
X0062982Y0107328D03*
X0063231Y0107245D03*
X0067461Y0110894D03*
X0067544Y0110894D03*
X0067710Y0110894D03*
X0067792Y0110894D03*
X0068041Y0110894D03*
X0068207Y0110894D03*
X0068456Y0110894D03*
X0068705Y0110894D03*
X0068871Y0110894D03*
X0087699Y0118442D03*
X0069202Y0131630D03*
X0068871Y0131713D03*
X0068705Y0131713D03*
X0068456Y0131713D03*
X0068207Y0131713D03*
X0068041Y0131713D03*
X0067792Y0131713D03*
X0067710Y0131713D03*
X0067544Y0131713D03*
X0067461Y0131713D03*
X0067212Y0131713D03*
X0067046Y0131713D03*
X0066797Y0131713D03*
X0066548Y0131713D03*
X0066300Y0131713D03*
X0066134Y0131713D03*
X0065885Y0131713D03*
X0065802Y0131713D03*
X0065636Y0131713D03*
X0065553Y0131713D03*
X0065304Y0131713D03*
X0065138Y0131713D03*
X0064889Y0131713D03*
X0064641Y0131713D03*
X0064392Y0131713D03*
X0064226Y0131713D03*
X0063977Y0131713D03*
X0063894Y0131713D03*
X0063728Y0131713D03*
X0063645Y0131713D03*
X0063397Y0131713D03*
X0063231Y0131713D03*
X0062982Y0131713D03*
X0062733Y0131713D03*
X0062567Y0131713D03*
X0062318Y0131713D03*
X0062235Y0131713D03*
X0062069Y0131713D03*
X0061986Y0131713D03*
X0061821Y0131713D03*
X0061738Y0131713D03*
X0061489Y0131713D03*
X0061323Y0131713D03*
X0061074Y0131713D03*
X0060825Y0131713D03*
X0060659Y0131713D03*
X0060411Y0131713D03*
X0060328Y0131713D03*
X0060162Y0131713D03*
X0060079Y0131713D03*
X0059830Y0131713D03*
X0059664Y0131713D03*
X0059415Y0131713D03*
X0059166Y0131713D03*
X0058918Y0131713D03*
X0058752Y0131713D03*
X0058503Y0131713D03*
X0058420Y0131713D03*
X0060825Y0143822D03*
X0061323Y0143905D03*
X0061489Y0143905D03*
X0061738Y0143905D03*
X0061821Y0143905D03*
X0061986Y0143905D03*
X0062069Y0143905D03*
X0062235Y0143905D03*
X0062318Y0143905D03*
X0062567Y0143905D03*
X0062733Y0143905D03*
X0062982Y0143905D03*
X0062982Y0147472D03*
X0063231Y0147472D03*
X0063397Y0147472D03*
X0063645Y0147472D03*
X0063728Y0147472D03*
X0063894Y0147472D03*
X0063977Y0147472D03*
X0064226Y0147472D03*
X0064392Y0147472D03*
X0064641Y0147472D03*
X0064889Y0147472D03*
X0065138Y0147472D03*
X0065304Y0147472D03*
X0065553Y0147472D03*
X0065636Y0147472D03*
X0065802Y0147472D03*
X0065885Y0147472D03*
X0066134Y0147472D03*
X0066300Y0147472D03*
X0066548Y0147472D03*
X0066797Y0147472D03*
X0067046Y0147472D03*
X0067212Y0147472D03*
X0067461Y0147472D03*
X0067544Y0147472D03*
X0067710Y0147472D03*
X0067792Y0147472D03*
X0068041Y0147472D03*
X0068207Y0147472D03*
X0068456Y0147472D03*
X0068705Y0147472D03*
X0068871Y0147472D03*
X0069120Y0147472D03*
X0069202Y0147472D03*
X0069368Y0147472D03*
X0069451Y0147472D03*
X0069617Y0147472D03*
X0069700Y0147472D03*
X0069949Y0147472D03*
X0070115Y0147472D03*
X0068871Y0143905D03*
X0068705Y0143905D03*
X0068456Y0143905D03*
X0068207Y0143905D03*
X0068041Y0143905D03*
X0067792Y0143905D03*
X0067710Y0143905D03*
X0067544Y0143905D03*
X0067461Y0143905D03*
X0067212Y0143905D03*
X0062733Y0147472D03*
X0062567Y0147472D03*
X0062318Y0147472D03*
X0062235Y0147472D03*
X0062069Y0147472D03*
X0061986Y0147472D03*
X0061821Y0147472D03*
X0061738Y0147472D03*
X0061489Y0147472D03*
X0061323Y0147472D03*
X0061074Y0147472D03*
X0060825Y0147472D03*
X0060659Y0147472D03*
X0060411Y0147472D03*
X0060328Y0147472D03*
X0060162Y0147472D03*
X0060079Y0147472D03*
X0061074Y0156098D03*
X0061323Y0156098D03*
X0061489Y0156098D03*
X0061738Y0156098D03*
X0061821Y0156098D03*
X0061986Y0156098D03*
X0062069Y0156098D03*
X0062235Y0156098D03*
X0062318Y0156098D03*
X0062567Y0156098D03*
X0062733Y0156098D03*
X0062982Y0156098D03*
X0063231Y0156098D03*
X0063397Y0156098D03*
X0063645Y0156098D03*
X0063728Y0156098D03*
X0063894Y0156098D03*
X0063977Y0156098D03*
X0064226Y0156098D03*
X0064392Y0156098D03*
X0064641Y0156098D03*
X0064889Y0156098D03*
X0065138Y0156098D03*
X0065304Y0156098D03*
X0065553Y0156098D03*
X0065636Y0156098D03*
X0065802Y0156098D03*
X0065885Y0156098D03*
X0066134Y0156098D03*
X0066300Y0156098D03*
X0066548Y0156098D03*
X0066797Y0156098D03*
X0067046Y0156098D03*
X0067212Y0156098D03*
X0067461Y0156098D03*
X0067544Y0156098D03*
X0067710Y0156098D03*
X0067792Y0156098D03*
X0068041Y0156098D03*
X0068207Y0156098D03*
X0068456Y0156098D03*
X0068705Y0156098D03*
X0068871Y0156098D03*
X0069120Y0156098D03*
X0125603Y0136275D03*
D17*
X0095661Y0141459D03*
X0093753Y0127358D03*
X0058503Y0138556D03*
X0058503Y0101978D03*
D18*
X0071774Y0101812D03*
X0058503Y0116244D03*
X0096325Y0112677D03*
X0116977Y0112677D03*
X0116977Y0142039D03*
X0096574Y0142205D03*
X0096325Y0142039D03*
D19*
X0117807Y0141334D03*
X0117807Y0113382D03*
X0065304Y0139758D03*
X0064889Y0139758D03*
X0058503Y0150790D03*
D20*
X0058586Y0150872D03*
X0058586Y0138680D03*
X0065470Y0139841D03*
X0058586Y0102102D03*
X0118139Y0113631D03*
X0118139Y0141085D03*
D21*
X0095744Y0141583D03*
X0095744Y0113134D03*
X0058586Y0116119D03*
D22*
X0058586Y0122921D03*
X0058835Y0122921D03*
X0059083Y0122921D03*
X0059249Y0122921D03*
X0059498Y0122921D03*
X0059747Y0122921D03*
X0059996Y0122921D03*
X0060494Y0122921D03*
X0060742Y0122921D03*
X0060991Y0122921D03*
X0061157Y0122921D03*
X0061406Y0122921D03*
X0061655Y0122921D03*
X0062401Y0122921D03*
X0062650Y0122921D03*
X0062899Y0122921D03*
X0063065Y0122921D03*
X0063314Y0122921D03*
X0063562Y0122921D03*
X0064060Y0122921D03*
X0064309Y0122921D03*
X0064558Y0122921D03*
X0064807Y0122921D03*
X0064972Y0122921D03*
X0065221Y0122921D03*
X0065470Y0122921D03*
X0065968Y0122921D03*
X0066217Y0122921D03*
X0066465Y0122921D03*
X0066631Y0122921D03*
X0066880Y0122921D03*
X0067129Y0122921D03*
X0067378Y0122921D03*
X0067875Y0122921D03*
X0068124Y0122921D03*
X0068373Y0122921D03*
X0068539Y0122921D03*
X0068788Y0122921D03*
X0069037Y0122921D03*
X0069783Y0122921D03*
X0070032Y0122921D03*
X0070281Y0122921D03*
X0070281Y0098702D03*
X0070032Y0098702D03*
X0069783Y0098702D03*
X0069037Y0098702D03*
X0068788Y0098702D03*
X0068539Y0098702D03*
X0068373Y0098702D03*
X0068124Y0098702D03*
X0067875Y0098702D03*
X0067378Y0098702D03*
X0067129Y0098702D03*
X0066880Y0098702D03*
X0066631Y0098702D03*
X0066465Y0098702D03*
X0066217Y0098702D03*
X0065968Y0098702D03*
X0064060Y0098702D03*
X0063562Y0098702D03*
X0063314Y0098702D03*
X0063065Y0098702D03*
X0062899Y0098702D03*
X0062650Y0098702D03*
X0062401Y0098702D03*
X0061655Y0098702D03*
X0061406Y0098702D03*
X0061157Y0098702D03*
X0060991Y0098702D03*
X0060742Y0098702D03*
X0060494Y0098702D03*
X0059996Y0098702D03*
D23*
X0060991Y0107245D03*
X0061406Y0107328D03*
X0061655Y0107328D03*
X0062401Y0107328D03*
X0062650Y0107328D03*
X0062899Y0107328D03*
X0063314Y0107245D03*
X0066880Y0107245D03*
X0067378Y0107328D03*
X0067875Y0107328D03*
X0068124Y0107328D03*
X0068373Y0107328D03*
X0068539Y0107328D03*
X0068788Y0107328D03*
X0068788Y0110894D03*
X0069037Y0110894D03*
X0068539Y0110894D03*
X0068373Y0110894D03*
X0068124Y0110894D03*
X0067875Y0110894D03*
X0067378Y0110894D03*
X0067129Y0110894D03*
X0066880Y0110894D03*
X0066631Y0110894D03*
X0066465Y0110894D03*
X0066217Y0110894D03*
X0065968Y0110894D03*
X0065470Y0110894D03*
X0065221Y0110894D03*
X0064972Y0110894D03*
X0064807Y0110894D03*
X0064558Y0110894D03*
X0064309Y0110894D03*
X0064060Y0110894D03*
X0063562Y0110894D03*
X0063314Y0110894D03*
X0063065Y0110894D03*
X0062899Y0110894D03*
X0062650Y0110894D03*
X0062401Y0110894D03*
X0061655Y0110894D03*
X0061406Y0110894D03*
X0061406Y0131713D03*
X0061655Y0131713D03*
X0061157Y0131713D03*
X0060991Y0131713D03*
X0060742Y0131713D03*
X0060494Y0131713D03*
X0059996Y0131713D03*
X0059747Y0131713D03*
X0059498Y0131713D03*
X0059249Y0131713D03*
X0059083Y0131713D03*
X0058835Y0131713D03*
X0058586Y0131713D03*
X0062401Y0131713D03*
X0062650Y0131713D03*
X0062899Y0131713D03*
X0063065Y0131713D03*
X0063314Y0131713D03*
X0063562Y0131713D03*
X0064060Y0131713D03*
X0064309Y0131713D03*
X0064558Y0131713D03*
X0064807Y0131713D03*
X0064972Y0131713D03*
X0065221Y0131713D03*
X0065470Y0131713D03*
X0065968Y0131713D03*
X0066217Y0131713D03*
X0066465Y0131713D03*
X0066631Y0131713D03*
X0066880Y0131713D03*
X0067129Y0131713D03*
X0067378Y0131713D03*
X0067875Y0131713D03*
X0068124Y0131713D03*
X0068373Y0131713D03*
X0068539Y0131713D03*
X0068788Y0131713D03*
X0068788Y0143905D03*
X0069037Y0143905D03*
X0068539Y0143905D03*
X0068373Y0143905D03*
X0068124Y0143905D03*
X0067875Y0143905D03*
X0067378Y0143905D03*
X0067129Y0143905D03*
X0066880Y0143822D03*
X0066880Y0147472D03*
X0066631Y0147472D03*
X0066465Y0147472D03*
X0066217Y0147472D03*
X0065968Y0147472D03*
X0065470Y0147472D03*
X0065221Y0147472D03*
X0064972Y0147472D03*
X0064807Y0147472D03*
X0064558Y0147472D03*
X0064309Y0147472D03*
X0064060Y0147472D03*
X0063562Y0147472D03*
X0063314Y0147472D03*
X0063065Y0147472D03*
X0062899Y0147472D03*
X0062650Y0147472D03*
X0062401Y0147472D03*
X0061655Y0147472D03*
X0061406Y0147472D03*
X0061157Y0147472D03*
X0060991Y0147472D03*
X0060742Y0147472D03*
X0060494Y0147472D03*
X0059996Y0147472D03*
X0061157Y0143905D03*
X0061406Y0143905D03*
X0061655Y0143905D03*
X0062401Y0143905D03*
X0062650Y0143905D03*
X0062899Y0143905D03*
X0063065Y0143905D03*
X0063314Y0143822D03*
X0067129Y0147472D03*
X0067378Y0147472D03*
X0067875Y0147472D03*
X0068124Y0147472D03*
X0068373Y0147472D03*
X0068539Y0147472D03*
X0068788Y0147472D03*
X0069037Y0147472D03*
X0069783Y0147472D03*
X0070032Y0147472D03*
X0070281Y0147472D03*
X0069037Y0156098D03*
X0068788Y0156098D03*
X0068539Y0156098D03*
X0068373Y0156098D03*
X0068124Y0156098D03*
X0067875Y0156098D03*
X0067378Y0156098D03*
X0067129Y0156098D03*
X0066880Y0156098D03*
X0066631Y0156098D03*
X0066465Y0156098D03*
X0066217Y0156098D03*
X0065968Y0156098D03*
X0065470Y0156098D03*
X0065221Y0156098D03*
X0064972Y0156098D03*
X0064807Y0156098D03*
X0064558Y0156098D03*
X0064309Y0156098D03*
X0064060Y0156098D03*
X0063562Y0156098D03*
X0063314Y0156098D03*
X0063065Y0156098D03*
X0062899Y0156098D03*
X0062650Y0156098D03*
X0062401Y0156098D03*
X0061655Y0156098D03*
X0061406Y0156098D03*
X0061157Y0156098D03*
X0087616Y0136109D03*
X0094500Y0110645D03*
X0125686Y0118608D03*
X0118802Y0144071D03*
D24*
X0094915Y0140836D03*
X0071525Y0138763D03*
X0058669Y0138763D03*
X0058669Y0102185D03*
X0071525Y0102185D03*
X0118387Y0113880D03*
D25*
X0058669Y0115995D03*
D26*
X0058669Y0122921D03*
X0059001Y0122921D03*
X0059332Y0122921D03*
X0059581Y0122921D03*
X0059913Y0122921D03*
X0060576Y0122921D03*
X0060908Y0122921D03*
X0061240Y0122921D03*
X0061572Y0122921D03*
X0062484Y0122921D03*
X0062816Y0122921D03*
X0063148Y0122921D03*
X0063479Y0122921D03*
X0064143Y0122921D03*
X0064475Y0122921D03*
X0064724Y0122921D03*
X0065055Y0122921D03*
X0065387Y0122921D03*
X0066051Y0122921D03*
X0066382Y0122921D03*
X0066714Y0122921D03*
X0066963Y0122921D03*
X0067295Y0122921D03*
X0067958Y0122921D03*
X0068290Y0122921D03*
X0068622Y0122921D03*
X0068954Y0122921D03*
X0069866Y0122921D03*
X0070198Y0122921D03*
X0070198Y0098702D03*
X0069866Y0098702D03*
X0068954Y0098702D03*
X0068622Y0098702D03*
X0068290Y0098702D03*
X0067958Y0098702D03*
X0067295Y0098702D03*
X0066963Y0098702D03*
X0066714Y0098702D03*
X0066382Y0098702D03*
X0066051Y0098702D03*
X0064143Y0098702D03*
X0063479Y0098702D03*
X0063148Y0098702D03*
X0062816Y0098702D03*
X0062484Y0098702D03*
X0061572Y0098702D03*
X0061240Y0098702D03*
X0060908Y0098702D03*
X0060576Y0098702D03*
X0059913Y0098702D03*
D27*
X0060908Y0107245D03*
X0061240Y0107328D03*
X0061572Y0107328D03*
X0062484Y0107328D03*
X0062816Y0107328D03*
X0062816Y0110894D03*
X0063148Y0110894D03*
X0063479Y0110894D03*
X0064143Y0110894D03*
X0064475Y0110894D03*
X0064724Y0110894D03*
X0065055Y0110894D03*
X0065387Y0110894D03*
X0066051Y0110894D03*
X0066382Y0110894D03*
X0066714Y0110894D03*
X0066963Y0110894D03*
X0067295Y0110894D03*
X0067958Y0110894D03*
X0068290Y0110894D03*
X0068622Y0110894D03*
X0068954Y0110894D03*
X0068954Y0107328D03*
X0068622Y0107328D03*
X0068290Y0107328D03*
X0067958Y0107328D03*
X0067295Y0107328D03*
X0066963Y0107245D03*
X0062484Y0110894D03*
X0061572Y0110894D03*
X0061240Y0110894D03*
X0060908Y0110977D03*
X0060908Y0131713D03*
X0060576Y0131713D03*
X0059913Y0131713D03*
X0059581Y0131713D03*
X0059332Y0131713D03*
X0059001Y0131713D03*
X0058669Y0131713D03*
X0061240Y0131713D03*
X0061572Y0131713D03*
X0062484Y0131713D03*
X0062816Y0131713D03*
X0063148Y0131713D03*
X0063479Y0131713D03*
X0064143Y0131713D03*
X0064475Y0131713D03*
X0064724Y0131713D03*
X0065055Y0131713D03*
X0065387Y0131713D03*
X0066051Y0131713D03*
X0066382Y0131713D03*
X0066714Y0131713D03*
X0066963Y0131713D03*
X0067295Y0131713D03*
X0067958Y0131713D03*
X0068290Y0131713D03*
X0068622Y0131713D03*
X0068954Y0131713D03*
X0068954Y0143905D03*
X0068622Y0143905D03*
X0068290Y0143905D03*
X0067958Y0143905D03*
X0067295Y0143905D03*
X0067295Y0147472D03*
X0066963Y0147472D03*
X0066714Y0147472D03*
X0066382Y0147472D03*
X0066051Y0147472D03*
X0065387Y0147472D03*
X0065055Y0147472D03*
X0064724Y0147472D03*
X0064475Y0147472D03*
X0064143Y0147472D03*
X0063479Y0147472D03*
X0063148Y0147472D03*
X0062816Y0147472D03*
X0062484Y0147472D03*
X0061572Y0147472D03*
X0061240Y0147472D03*
X0060908Y0147472D03*
X0060576Y0147472D03*
X0059913Y0147472D03*
X0061240Y0143905D03*
X0061572Y0143905D03*
X0062484Y0143905D03*
X0062816Y0143905D03*
X0067958Y0147472D03*
X0068290Y0147472D03*
X0068622Y0147472D03*
X0068954Y0147472D03*
X0069866Y0147472D03*
X0070198Y0147472D03*
X0068954Y0156098D03*
X0068622Y0156098D03*
X0068290Y0156098D03*
X0067958Y0156098D03*
X0067295Y0156098D03*
X0066963Y0156098D03*
X0066714Y0156098D03*
X0066382Y0156098D03*
X0066051Y0156098D03*
X0065387Y0156098D03*
X0065055Y0156098D03*
X0064724Y0156098D03*
X0064475Y0156098D03*
X0064143Y0156098D03*
X0063479Y0156098D03*
X0063148Y0156098D03*
X0062816Y0156098D03*
X0062484Y0156098D03*
X0061572Y0156098D03*
X0061240Y0156098D03*
D28*
X0058669Y0150956D03*
X0064475Y0139924D03*
X0071525Y0150956D03*
D29*
X0071359Y0115829D03*
X0058752Y0102227D03*
D30*
X0058752Y0115912D03*
X0092095Y0119728D03*
D31*
X0121290Y0120018D03*
X0058752Y0138846D03*
X0058752Y0151038D03*
D32*
X0058835Y0138887D03*
X0071442Y0126529D03*
X0058835Y0102310D03*
D33*
X0058835Y0115871D03*
X0071442Y0115871D03*
X0118305Y0113797D03*
D34*
X0058835Y0151121D03*
D35*
X0058918Y0102351D03*
X0071276Y0102351D03*
X0121290Y0134781D03*
D36*
X0058918Y0115788D03*
D37*
X0058918Y0138970D03*
X0058918Y0151163D03*
X0071276Y0151163D03*
X0071276Y0138970D03*
D38*
X0059001Y0139012D03*
X0059001Y0102434D03*
D39*
X0059001Y0115746D03*
D40*
X0059001Y0151204D03*
D41*
X0059083Y0139053D03*
X0059249Y0115580D03*
X0059083Y0102476D03*
X0091929Y0134491D03*
D42*
X0088777Y0127358D03*
X0059083Y0115663D03*
D43*
X0059083Y0151287D03*
D44*
X0059166Y0102517D03*
X0065138Y0102517D03*
X0071027Y0102517D03*
D45*
X0059166Y0115622D03*
X0071276Y0126653D03*
D46*
X0071027Y0139095D03*
X0059166Y0139095D03*
X0071027Y0151287D03*
D47*
X0059166Y0151329D03*
X0119383Y0127358D03*
D48*
X0091929Y0120142D03*
X0070944Y0102558D03*
X0065221Y0102558D03*
X0064972Y0102558D03*
X0059249Y0102558D03*
X0059249Y0139136D03*
X0070944Y0139136D03*
D49*
X0070944Y0151370D03*
X0059249Y0151370D03*
X0059498Y0115456D03*
X0070695Y0115456D03*
D50*
X0070861Y0102600D03*
X0059332Y0102600D03*
X0059332Y0139178D03*
X0070861Y0139178D03*
X0070861Y0151370D03*
D51*
X0059332Y0115539D03*
X0065055Y0102517D03*
D52*
X0065387Y0102642D03*
X0059581Y0115414D03*
X0059332Y0151412D03*
X0106775Y0136150D03*
X0106775Y0118566D03*
D53*
X0106858Y0118566D03*
X0107024Y0118566D03*
X0106610Y0118566D03*
X0106527Y0118566D03*
X0106361Y0118566D03*
X0106278Y0118566D03*
X0106361Y0136150D03*
X0106527Y0136150D03*
X0106610Y0136150D03*
X0106858Y0136150D03*
X0107024Y0136150D03*
X0070778Y0139219D03*
X0059415Y0139219D03*
X0070778Y0151412D03*
X0070613Y0115414D03*
X0059664Y0115414D03*
X0059415Y0102642D03*
X0070778Y0102642D03*
D54*
X0070778Y0115497D03*
X0071110Y0126778D03*
X0059415Y0115497D03*
X0121373Y0134574D03*
D55*
X0107522Y0136109D03*
X0107273Y0136109D03*
X0106278Y0136109D03*
X0106112Y0136109D03*
X0106029Y0136109D03*
X0105780Y0136109D03*
X0105780Y0118608D03*
X0106029Y0118608D03*
X0106112Y0118608D03*
X0107273Y0118608D03*
X0107522Y0118608D03*
X0059415Y0151453D03*
D56*
X0059498Y0139260D03*
X0070695Y0139260D03*
X0070447Y0115373D03*
X0059747Y0115373D03*
X0059498Y0102683D03*
X0065470Y0102683D03*
X0070695Y0102683D03*
X0107854Y0118691D03*
D57*
X0107356Y0118608D03*
X0107190Y0118608D03*
X0105946Y0118608D03*
X0105946Y0136109D03*
X0107190Y0136109D03*
X0107356Y0136109D03*
X0070695Y0151453D03*
X0059498Y0151453D03*
D58*
X0059581Y0151494D03*
X0059581Y0139302D03*
X0059913Y0115331D03*
X0059581Y0102724D03*
X0070530Y0102724D03*
X0088860Y0127358D03*
X0094002Y0127358D03*
X0105531Y0118649D03*
X0107771Y0118649D03*
D59*
X0107688Y0118649D03*
X0107937Y0118732D03*
X0108020Y0118732D03*
X0105614Y0118649D03*
X0105365Y0118732D03*
X0105365Y0135984D03*
X0105614Y0136067D03*
X0107688Y0136067D03*
X0107937Y0135984D03*
X0108020Y0135984D03*
X0070778Y0126944D03*
X0070364Y0115331D03*
X0059830Y0115331D03*
X0059664Y0102724D03*
X0065636Y0102724D03*
X0070613Y0102724D03*
X0070613Y0139302D03*
X0070613Y0151494D03*
D60*
X0059664Y0151536D03*
X0059664Y0139344D03*
X0064392Y0102766D03*
X0065802Y0102766D03*
X0105117Y0118774D03*
X0108185Y0118774D03*
X0108268Y0118774D03*
X0108268Y0135943D03*
X0108185Y0135943D03*
X0105117Y0135943D03*
D61*
X0105034Y0118774D03*
X0121456Y0120432D03*
X0070447Y0102766D03*
X0059747Y0102766D03*
X0059747Y0139344D03*
X0070447Y0139344D03*
X0070447Y0151536D03*
D62*
X0059747Y0151578D03*
X0104785Y0135819D03*
X0108600Y0135819D03*
X0108600Y0118898D03*
D63*
X0104951Y0118815D03*
X0104951Y0135901D03*
X0070613Y0127027D03*
X0070364Y0102807D03*
X0059830Y0102807D03*
D64*
X0091846Y0134243D03*
X0104702Y0135819D03*
X0104702Y0118898D03*
X0070364Y0139385D03*
X0059830Y0139385D03*
X0059830Y0151578D03*
X0070364Y0151578D03*
D65*
X0059913Y0155351D03*
X0059913Y0106498D03*
D66*
X0059913Y0143118D03*
D67*
X0059996Y0143242D03*
X0065968Y0143242D03*
X0065968Y0106664D03*
X0059996Y0106664D03*
D68*
X0059996Y0111641D03*
X0070281Y0143076D03*
D69*
X0059996Y0155476D03*
D70*
X0060079Y0155600D03*
X0070115Y0155600D03*
X0060079Y0143408D03*
X0070115Y0131132D03*
X0087782Y0136192D03*
X0070115Y0106747D03*
X0060079Y0106747D03*
X0060162Y0111392D03*
D71*
X0060079Y0111516D03*
X0070115Y0143366D03*
D72*
X0069949Y0155725D03*
X0066134Y0106871D03*
X0060162Y0106871D03*
D73*
X0060328Y0111267D03*
X0060162Y0143449D03*
X0066134Y0143449D03*
X0060162Y0155642D03*
X0093173Y0127358D03*
D74*
X0069534Y0122921D03*
X0069285Y0122921D03*
X0067627Y0122921D03*
X0065719Y0122921D03*
X0063811Y0122921D03*
X0062152Y0122921D03*
X0061904Y0122921D03*
X0060245Y0122921D03*
X0060245Y0098702D03*
X0061904Y0098702D03*
X0062152Y0098702D03*
X0063811Y0098702D03*
X0067627Y0098702D03*
X0069285Y0098702D03*
X0069534Y0098702D03*
D75*
X0060245Y0106913D03*
X0060245Y0143491D03*
D76*
X0087865Y0118400D03*
X0060245Y0111350D03*
D77*
X0061904Y0110894D03*
X0062152Y0110894D03*
X0063811Y0110894D03*
X0065719Y0110894D03*
X0067627Y0110894D03*
X0069285Y0110977D03*
X0069285Y0107245D03*
X0067627Y0107328D03*
X0062152Y0107328D03*
X0061904Y0107328D03*
X0061904Y0131713D03*
X0062152Y0131713D03*
X0063811Y0131713D03*
X0065719Y0131713D03*
X0067627Y0131713D03*
X0069285Y0131630D03*
X0060245Y0131713D03*
X0061904Y0143905D03*
X0062152Y0143905D03*
X0062152Y0147472D03*
X0061904Y0147472D03*
X0060245Y0147472D03*
X0063811Y0147472D03*
X0065719Y0147472D03*
X0067627Y0147472D03*
X0069285Y0147472D03*
X0069534Y0147472D03*
X0067627Y0143905D03*
X0067627Y0156098D03*
X0065719Y0156098D03*
X0063811Y0156098D03*
X0062152Y0156098D03*
X0061904Y0156098D03*
D78*
X0060245Y0155725D03*
D79*
X0069949Y0111309D03*
X0060328Y0106996D03*
D80*
X0063977Y0106913D03*
X0060411Y0111226D03*
X0069949Y0106913D03*
X0069949Y0131298D03*
X0069949Y0143491D03*
X0066300Y0143574D03*
X0063977Y0143491D03*
X0063894Y0143574D03*
X0060328Y0143574D03*
X0060328Y0155766D03*
X0118719Y0143988D03*
D81*
X0094417Y0143947D03*
X0087699Y0136150D03*
X0087782Y0118401D03*
X0066300Y0106955D03*
X0063894Y0106955D03*
X0060411Y0107037D03*
X0060411Y0143615D03*
X0060411Y0155808D03*
X0069700Y0155890D03*
X0118885Y0110770D03*
X0125603Y0118566D03*
D82*
X0066631Y0107162D03*
X0066465Y0107079D03*
X0063562Y0107162D03*
X0060494Y0107079D03*
X0063562Y0143739D03*
X0066631Y0143739D03*
D83*
X0069783Y0143615D03*
X0069783Y0155808D03*
X0060494Y0155890D03*
X0060494Y0111184D03*
X0069783Y0111184D03*
X0069783Y0107037D03*
X0125520Y0136316D03*
D84*
X0066465Y0143656D03*
X0060494Y0143656D03*
D85*
X0060576Y0143739D03*
X0060576Y0155932D03*
X0060576Y0107162D03*
D86*
X0060576Y0111101D03*
X0066382Y0107037D03*
X0066382Y0143615D03*
D87*
X0066548Y0143739D03*
X0069617Y0143739D03*
X0063645Y0143739D03*
X0069617Y0155932D03*
X0069617Y0131547D03*
X0069700Y0131464D03*
X0069700Y0111143D03*
X0069617Y0107162D03*
X0069700Y0107079D03*
X0063728Y0107079D03*
X0063645Y0107079D03*
X0060659Y0107162D03*
D88*
X0060659Y0111060D03*
X0069617Y0111060D03*
X0069700Y0143656D03*
X0063728Y0143656D03*
D89*
X0063397Y0143781D03*
X0060659Y0143781D03*
X0066797Y0143781D03*
X0069368Y0143781D03*
X0069451Y0143781D03*
X0069451Y0155973D03*
X0069202Y0156056D03*
X0060825Y0156056D03*
X0060659Y0155973D03*
X0069368Y0131588D03*
X0069451Y0131588D03*
X0069202Y0110936D03*
X0069120Y0110936D03*
X0066548Y0107120D03*
X0061074Y0110936D03*
D90*
X0060742Y0111019D03*
X0061157Y0107286D03*
X0060742Y0107203D03*
X0063065Y0107286D03*
X0067129Y0107286D03*
X0069037Y0107286D03*
X0069037Y0131671D03*
X0060991Y0143864D03*
D91*
X0060742Y0143781D03*
X0060742Y0155973D03*
X0060991Y0156056D03*
X0060991Y0110936D03*
X0061157Y0110936D03*
X0064309Y0098743D03*
D92*
X0063397Y0107203D03*
X0061074Y0107286D03*
X0060825Y0107203D03*
X0060825Y0111019D03*
X0066797Y0107203D03*
X0067046Y0107286D03*
X0069120Y0107286D03*
X0069368Y0107203D03*
X0069451Y0107203D03*
X0069451Y0111019D03*
X0069368Y0111019D03*
X0069120Y0131671D03*
X0069120Y0143864D03*
X0069202Y0143864D03*
X0067046Y0143864D03*
X0063231Y0143864D03*
X0061074Y0143864D03*
D93*
X0060908Y0143864D03*
X0063148Y0143864D03*
X0066963Y0143864D03*
X0066714Y0107203D03*
X0063479Y0107203D03*
X0063148Y0107286D03*
D94*
X0063479Y0143781D03*
X0066714Y0143781D03*
X0060908Y0156056D03*
D95*
X0063811Y0143615D03*
X0063811Y0107037D03*
D96*
X0064060Y0106830D03*
X0064060Y0143408D03*
X0094500Y0143822D03*
X0125520Y0118525D03*
X0118802Y0110894D03*
D97*
X0125438Y0118483D03*
X0118636Y0143864D03*
X0064143Y0106706D03*
D98*
X0066051Y0106747D03*
X0066051Y0143325D03*
X0064143Y0143325D03*
D99*
X0064226Y0143200D03*
X0064226Y0106623D03*
D100*
X0064309Y0106374D03*
D101*
X0064309Y0142993D03*
D102*
X0064392Y0139966D03*
X0065802Y0139966D03*
D103*
X0070530Y0139344D03*
X0070530Y0151536D03*
X0105200Y0135943D03*
X0105200Y0118774D03*
X0124442Y0127317D03*
X0064475Y0102766D03*
D104*
X0064558Y0102724D03*
X0105282Y0118732D03*
X0105448Y0118732D03*
X0105697Y0118649D03*
X0107605Y0118649D03*
X0107854Y0135984D03*
X0107605Y0136067D03*
X0105697Y0136067D03*
X0105448Y0135984D03*
X0105282Y0135984D03*
D105*
X0064558Y0139882D03*
D106*
X0064641Y0102683D03*
X0065553Y0102683D03*
D107*
X0095081Y0113756D03*
X0095081Y0140961D03*
X0118222Y0140961D03*
X0065636Y0139882D03*
X0065553Y0139882D03*
X0064641Y0139882D03*
D108*
X0070861Y0126902D03*
X0070530Y0115373D03*
X0064724Y0102683D03*
X0105531Y0136026D03*
X0107771Y0136026D03*
D109*
X0118056Y0141168D03*
X0118056Y0113548D03*
X0071525Y0115954D03*
X0064724Y0139841D03*
D110*
X0064807Y0102642D03*
X0106693Y0118566D03*
X0106941Y0118566D03*
X0106941Y0136150D03*
X0106693Y0136150D03*
D111*
X0119549Y0127358D03*
X0064807Y0139800D03*
D112*
X0071027Y0126819D03*
X0065304Y0102600D03*
X0064889Y0102600D03*
D113*
X0071691Y0101978D03*
X0071691Y0138556D03*
X0065221Y0139717D03*
X0064972Y0139717D03*
X0071691Y0150748D03*
D114*
X0065055Y0139675D03*
D115*
X0065138Y0139675D03*
X0095661Y0113217D03*
X0121125Y0135113D03*
D116*
X0065387Y0139800D03*
D117*
X0065719Y0102766D03*
X0108103Y0135943D03*
D118*
X0065719Y0139924D03*
D119*
X0065885Y0106457D03*
X0120129Y0127358D03*
D120*
X0118719Y0110977D03*
X0065885Y0143076D03*
D121*
X0066217Y0143491D03*
X0066217Y0106913D03*
D122*
X0069285Y0143864D03*
D123*
X0069534Y0155973D03*
X0069285Y0156056D03*
D124*
X0069534Y0143739D03*
X0069534Y0131547D03*
X0069534Y0107162D03*
D125*
X0069534Y0111060D03*
D126*
X0069783Y0131422D03*
D127*
X0069866Y0131381D03*
X0069866Y0106996D03*
D128*
X0069866Y0111226D03*
X0094583Y0110728D03*
X0069866Y0143574D03*
X0069866Y0155766D03*
D129*
X0070032Y0106871D03*
D130*
X0070032Y0111350D03*
X0070032Y0131257D03*
X0070032Y0143449D03*
X0070032Y0155642D03*
D131*
X0070115Y0111433D03*
D132*
X0070198Y0106664D03*
X0070198Y0131049D03*
X0070198Y0143242D03*
D133*
X0070198Y0111558D03*
D134*
X0070198Y0155476D03*
D135*
X0070281Y0155351D03*
X0070281Y0130883D03*
X0070281Y0106498D03*
D136*
X0070281Y0111682D03*
X0094749Y0110936D03*
X0125272Y0136399D03*
X0118553Y0143781D03*
D137*
X0070364Y0127109D03*
D138*
X0070447Y0127068D03*
X0104785Y0118857D03*
X0121456Y0134367D03*
D139*
X0108434Y0135901D03*
X0104868Y0135901D03*
X0104868Y0118815D03*
X0108434Y0118815D03*
X0070530Y0127027D03*
D140*
X0070695Y0126985D03*
D141*
X0070861Y0115497D03*
D142*
X0070944Y0115539D03*
D143*
X0070944Y0126861D03*
D144*
X0071027Y0115580D03*
X0071110Y0102476D03*
X0093919Y0127358D03*
X0071110Y0139053D03*
X0071110Y0151246D03*
X0121373Y0120225D03*
D145*
X0071359Y0126612D03*
X0071110Y0115663D03*
D146*
X0071193Y0102434D03*
X0071193Y0139012D03*
D147*
X0071193Y0115705D03*
D148*
X0071193Y0126736D03*
D149*
X0071193Y0151204D03*
D150*
X0071359Y0138887D03*
X0071276Y0115746D03*
X0071359Y0102310D03*
D151*
X0119466Y0127358D03*
X0071359Y0151080D03*
D152*
X0093836Y0127358D03*
X0071442Y0102227D03*
D153*
X0071442Y0138846D03*
X0071442Y0151038D03*
D154*
X0071525Y0126487D03*
D155*
X0092095Y0134906D03*
X0095329Y0141210D03*
X0095412Y0141293D03*
X0117973Y0141210D03*
X0117973Y0113507D03*
X0095412Y0113424D03*
X0095329Y0113507D03*
X0071608Y0102061D03*
D156*
X0071608Y0116037D03*
D157*
X0071608Y0126405D03*
D158*
X0071608Y0138680D03*
X0071608Y0150872D03*
X0095164Y0141085D03*
X0095164Y0113631D03*
X0118222Y0113714D03*
X0124608Y0127317D03*
D159*
X0071691Y0116161D03*
D160*
X0071691Y0126280D03*
X0117890Y0113424D03*
X0117890Y0141293D03*
D161*
X0096574Y0112470D03*
X0071774Y0116285D03*
D162*
X0071774Y0126114D03*
D163*
X0071857Y0101522D03*
X0071857Y0150375D03*
D164*
X0071857Y0116576D03*
D165*
X0071857Y0125907D03*
X0097818Y0111641D03*
X0098149Y0111392D03*
X0097818Y0143076D03*
X0115153Y0143325D03*
D166*
X0092343Y0135321D03*
X0071857Y0138141D03*
D167*
X0077248Y0148426D03*
X0077580Y0148426D03*
X0077911Y0148426D03*
X0078243Y0148426D03*
X0078907Y0148426D03*
X0079239Y0148426D03*
X0079487Y0148426D03*
X0079819Y0148426D03*
X0080151Y0148426D03*
X0080814Y0148426D03*
X0080814Y0106291D03*
X0080151Y0106291D03*
X0079819Y0106291D03*
X0079487Y0106291D03*
X0079239Y0106291D03*
X0078907Y0106291D03*
X0078243Y0106291D03*
X0077911Y0106291D03*
X0077580Y0106291D03*
X0077248Y0106291D03*
X0132488Y0106291D03*
X0132819Y0106291D03*
X0133151Y0106291D03*
X0133400Y0106291D03*
X0133732Y0106291D03*
X0134395Y0106291D03*
X0134727Y0106291D03*
X0135059Y0106291D03*
X0135391Y0106291D03*
X0135391Y0148426D03*
X0135059Y0148426D03*
X0134727Y0148426D03*
X0134395Y0148426D03*
X0133732Y0148426D03*
X0133400Y0148426D03*
X0133151Y0148426D03*
X0132819Y0148426D03*
X0132488Y0148426D03*
D168*
X0132571Y0148426D03*
X0132737Y0148426D03*
X0132985Y0148426D03*
X0133234Y0148426D03*
X0133483Y0148426D03*
X0133649Y0148426D03*
X0133898Y0148426D03*
X0133981Y0148426D03*
X0134147Y0148426D03*
X0134229Y0148426D03*
X0134478Y0148426D03*
X0134644Y0148426D03*
X0134893Y0148426D03*
X0135142Y0148426D03*
X0135308Y0148426D03*
X0135557Y0148426D03*
X0135640Y0148426D03*
X0135805Y0148426D03*
X0135888Y0148426D03*
X0136054Y0148426D03*
X0117309Y0127358D03*
X0132571Y0106291D03*
X0132737Y0106291D03*
X0132985Y0106291D03*
X0133234Y0106291D03*
X0133483Y0106291D03*
X0133649Y0106291D03*
X0133898Y0106291D03*
X0133981Y0106291D03*
X0134147Y0106291D03*
X0134229Y0106291D03*
X0134478Y0106291D03*
X0134644Y0106291D03*
X0134893Y0106291D03*
X0135142Y0106291D03*
X0135308Y0106291D03*
X0135557Y0106291D03*
X0135640Y0106291D03*
X0135805Y0106291D03*
X0135888Y0106291D03*
X0136054Y0106291D03*
X0080897Y0106291D03*
X0080649Y0106291D03*
X0080566Y0106291D03*
X0080400Y0106291D03*
X0080317Y0106291D03*
X0080068Y0106291D03*
X0079902Y0106291D03*
X0079653Y0106291D03*
X0079404Y0106291D03*
X0079156Y0106291D03*
X0078990Y0106291D03*
X0078741Y0106291D03*
X0078658Y0106291D03*
X0078492Y0106291D03*
X0078409Y0106291D03*
X0078160Y0106291D03*
X0077994Y0106291D03*
X0077746Y0106291D03*
X0077497Y0106291D03*
X0077331Y0106291D03*
X0077331Y0148426D03*
X0077497Y0148426D03*
X0077746Y0148426D03*
X0077994Y0148426D03*
X0078160Y0148426D03*
X0078409Y0148426D03*
X0078492Y0148426D03*
X0078658Y0148426D03*
X0078741Y0148426D03*
X0078990Y0148426D03*
X0079156Y0148426D03*
X0079404Y0148426D03*
X0079653Y0148426D03*
X0079902Y0148426D03*
X0080068Y0148426D03*
X0080317Y0148426D03*
X0080400Y0148426D03*
X0080566Y0148426D03*
X0080649Y0148426D03*
X0080897Y0148426D03*
D169*
X0080732Y0148426D03*
X0080234Y0148426D03*
X0079985Y0148426D03*
X0079736Y0148426D03*
X0079570Y0148426D03*
X0079321Y0148426D03*
X0079073Y0148426D03*
X0078824Y0148426D03*
X0078326Y0148426D03*
X0078077Y0148426D03*
X0077829Y0148426D03*
X0077663Y0148426D03*
X0077414Y0148426D03*
X0077414Y0106291D03*
X0077663Y0106291D03*
X0077829Y0106291D03*
X0078077Y0106291D03*
X0078326Y0106291D03*
X0078824Y0106291D03*
X0079073Y0106291D03*
X0079321Y0106291D03*
X0079570Y0106291D03*
X0079736Y0106291D03*
X0079985Y0106291D03*
X0080234Y0106291D03*
X0080732Y0106291D03*
X0132405Y0106291D03*
X0132654Y0106291D03*
X0132902Y0106291D03*
X0133068Y0106291D03*
X0133317Y0106291D03*
X0133566Y0106291D03*
X0133815Y0106291D03*
X0134312Y0106291D03*
X0134561Y0106291D03*
X0134810Y0106291D03*
X0134976Y0106291D03*
X0135225Y0106291D03*
X0135474Y0106291D03*
X0135474Y0148426D03*
X0135225Y0148426D03*
X0134976Y0148426D03*
X0134810Y0148426D03*
X0134561Y0148426D03*
X0134312Y0148426D03*
X0133815Y0148426D03*
X0133566Y0148426D03*
X0133317Y0148426D03*
X0133068Y0148426D03*
X0132902Y0148426D03*
X0132654Y0148426D03*
X0132405Y0148426D03*
D170*
X0134064Y0148426D03*
X0135722Y0148426D03*
X0135971Y0148426D03*
X0135971Y0106291D03*
X0135722Y0106291D03*
X0134064Y0106291D03*
X0080483Y0106291D03*
X0078575Y0106291D03*
X0078575Y0148426D03*
X0080483Y0148426D03*
D171*
X0080980Y0154937D03*
X0081229Y0154937D03*
X0081395Y0154937D03*
X0081644Y0154937D03*
X0081893Y0154937D03*
X0082142Y0154937D03*
X0082639Y0154937D03*
X0082888Y0154937D03*
X0083137Y0154937D03*
X0083303Y0154937D03*
X0083552Y0154937D03*
X0083800Y0154937D03*
X0084547Y0154937D03*
X0084796Y0154937D03*
X0085045Y0154937D03*
X0085210Y0154937D03*
X0085459Y0154937D03*
X0085708Y0154937D03*
X0086206Y0154937D03*
X0086455Y0154937D03*
X0086703Y0154937D03*
X0086952Y0154937D03*
X0087118Y0154937D03*
X0087367Y0154937D03*
X0087616Y0154937D03*
X0088113Y0154937D03*
X0088362Y0154937D03*
X0088611Y0154937D03*
X0088777Y0154937D03*
X0089026Y0154937D03*
X0089275Y0154937D03*
X0089523Y0154937D03*
X0090021Y0154937D03*
X0090270Y0154937D03*
X0090519Y0154937D03*
X0090685Y0154937D03*
X0090933Y0154937D03*
X0091182Y0154937D03*
X0091929Y0154937D03*
X0092178Y0154937D03*
X0092426Y0154937D03*
X0092592Y0154937D03*
X0092841Y0154937D03*
X0093090Y0154937D03*
X0093588Y0154937D03*
X0093836Y0154937D03*
X0100472Y0142827D03*
X0100970Y0142993D03*
X0111669Y0143242D03*
X0112167Y0143076D03*
X0112416Y0142993D03*
X0112830Y0142827D03*
X0119549Y0154937D03*
X0119797Y0154937D03*
X0120046Y0154937D03*
X0120212Y0154937D03*
X0120461Y0154937D03*
X0120710Y0154937D03*
X0121456Y0154937D03*
X0121705Y0154937D03*
X0121954Y0154937D03*
X0122120Y0154937D03*
X0122369Y0154937D03*
X0122617Y0154937D03*
X0123115Y0154937D03*
X0123364Y0154937D03*
X0123613Y0154937D03*
X0123862Y0154937D03*
X0124028Y0154937D03*
X0124276Y0154937D03*
X0124525Y0154937D03*
X0125023Y0154937D03*
X0125272Y0154937D03*
X0125520Y0154937D03*
X0125686Y0154937D03*
X0125935Y0154937D03*
X0126184Y0154937D03*
X0126433Y0154937D03*
X0126931Y0154937D03*
X0127179Y0154937D03*
X0127428Y0154937D03*
X0127594Y0154937D03*
X0127843Y0154937D03*
X0128092Y0154937D03*
X0128838Y0154937D03*
X0129087Y0154937D03*
X0129336Y0154937D03*
X0129502Y0154937D03*
X0129751Y0154937D03*
X0129999Y0154937D03*
X0130497Y0154937D03*
X0130746Y0154937D03*
X0130995Y0154937D03*
X0131244Y0154937D03*
X0131409Y0154937D03*
X0131658Y0154937D03*
X0131907Y0154937D03*
X0112830Y0111889D03*
X0112416Y0111724D03*
X0112167Y0111641D03*
X0100970Y0111724D03*
X0100472Y0111889D03*
X0093836Y0099780D03*
X0093588Y0099780D03*
X0093090Y0099780D03*
X0092841Y0099780D03*
X0092592Y0099780D03*
X0092426Y0099780D03*
X0092178Y0099780D03*
X0091929Y0099780D03*
X0091182Y0099780D03*
X0090933Y0099780D03*
X0090685Y0099780D03*
X0090519Y0099780D03*
X0090270Y0099780D03*
X0090021Y0099780D03*
X0089523Y0099780D03*
X0089275Y0099780D03*
X0089026Y0099780D03*
X0088777Y0099780D03*
X0088611Y0099780D03*
X0088362Y0099780D03*
X0088113Y0099780D03*
X0087616Y0099780D03*
X0087367Y0099780D03*
X0087118Y0099780D03*
X0086952Y0099780D03*
X0086703Y0099780D03*
X0086455Y0099780D03*
X0086206Y0099780D03*
X0085708Y0099780D03*
X0085459Y0099780D03*
X0085210Y0099780D03*
X0085045Y0099780D03*
X0084796Y0099780D03*
X0084547Y0099780D03*
X0083800Y0099780D03*
X0083552Y0099780D03*
X0083303Y0099780D03*
X0083137Y0099780D03*
X0082888Y0099780D03*
X0082639Y0099780D03*
X0082142Y0099780D03*
X0081893Y0099780D03*
X0081644Y0099780D03*
X0081395Y0099780D03*
X0081229Y0099780D03*
X0080980Y0099780D03*
X0119549Y0099780D03*
X0119797Y0099780D03*
X0120046Y0099780D03*
X0120212Y0099780D03*
X0120461Y0099780D03*
X0120710Y0099780D03*
X0121456Y0099780D03*
X0121705Y0099780D03*
X0121954Y0099780D03*
X0122120Y0099780D03*
X0122369Y0099780D03*
X0122617Y0099780D03*
X0123115Y0099780D03*
X0123364Y0099780D03*
X0123613Y0099780D03*
X0123862Y0099780D03*
X0124028Y0099780D03*
X0124276Y0099780D03*
X0124525Y0099780D03*
X0125023Y0099780D03*
X0125272Y0099780D03*
X0125520Y0099780D03*
X0125686Y0099780D03*
X0125935Y0099780D03*
X0126184Y0099780D03*
X0126433Y0099780D03*
X0126931Y0099780D03*
X0127179Y0099780D03*
X0127428Y0099780D03*
X0127594Y0099780D03*
X0127843Y0099780D03*
X0128092Y0099780D03*
X0128838Y0099780D03*
X0129087Y0099780D03*
X0129336Y0099780D03*
X0129502Y0099780D03*
X0129751Y0099780D03*
X0129999Y0099780D03*
X0130497Y0099780D03*
X0130746Y0099780D03*
X0130995Y0099780D03*
X0131244Y0099780D03*
X0131409Y0099780D03*
X0131658Y0099780D03*
X0131907Y0099780D03*
D172*
X0131990Y0099780D03*
X0132073Y0099780D03*
X0132239Y0099780D03*
X0132322Y0099780D03*
X0131741Y0099780D03*
X0131575Y0099780D03*
X0131326Y0099780D03*
X0131078Y0099780D03*
X0130829Y0099780D03*
X0130663Y0099780D03*
X0130414Y0099780D03*
X0130331Y0099780D03*
X0130165Y0099780D03*
X0130082Y0099780D03*
X0129834Y0099780D03*
X0129668Y0099780D03*
X0129419Y0099780D03*
X0129170Y0099780D03*
X0129004Y0099780D03*
X0128755Y0099780D03*
X0128672Y0099780D03*
X0128506Y0099780D03*
X0128423Y0099780D03*
X0128258Y0099780D03*
X0128175Y0099780D03*
X0127926Y0099780D03*
X0127760Y0099780D03*
X0127511Y0099780D03*
X0127262Y0099780D03*
X0127096Y0099780D03*
X0126848Y0099780D03*
X0126765Y0099780D03*
X0126599Y0099780D03*
X0126516Y0099780D03*
X0126267Y0099780D03*
X0126101Y0099780D03*
X0125852Y0099780D03*
X0125603Y0099780D03*
X0125355Y0099780D03*
X0125189Y0099780D03*
X0124940Y0099780D03*
X0124857Y0099780D03*
X0124691Y0099780D03*
X0124608Y0099780D03*
X0124359Y0099780D03*
X0124193Y0099780D03*
X0123945Y0099780D03*
X0123696Y0099780D03*
X0123447Y0099780D03*
X0123281Y0099780D03*
X0123032Y0099780D03*
X0122949Y0099780D03*
X0122783Y0099780D03*
X0122700Y0099780D03*
X0122452Y0099780D03*
X0122286Y0099780D03*
X0122037Y0099780D03*
X0121788Y0099780D03*
X0121622Y0099780D03*
X0121373Y0099780D03*
X0121290Y0099780D03*
X0121125Y0099780D03*
X0121042Y0099780D03*
X0120876Y0099780D03*
X0120793Y0099780D03*
X0120544Y0099780D03*
X0120378Y0099780D03*
X0120129Y0099780D03*
X0119880Y0099780D03*
X0119715Y0099780D03*
X0119466Y0099780D03*
X0119383Y0099780D03*
X0112499Y0111724D03*
X0112333Y0111724D03*
X0111752Y0111475D03*
X0101550Y0111475D03*
X0101135Y0111641D03*
X0100887Y0111724D03*
X0100804Y0111724D03*
X0093919Y0099780D03*
X0093753Y0099780D03*
X0093505Y0099780D03*
X0093422Y0099780D03*
X0093256Y0099780D03*
X0093173Y0099780D03*
X0092924Y0099780D03*
X0092758Y0099780D03*
X0092509Y0099780D03*
X0092261Y0099780D03*
X0092095Y0099780D03*
X0091846Y0099780D03*
X0091763Y0099780D03*
X0091597Y0099780D03*
X0091514Y0099780D03*
X0091348Y0099780D03*
X0091265Y0099780D03*
X0091016Y0099780D03*
X0090850Y0099780D03*
X0090602Y0099780D03*
X0090353Y0099780D03*
X0090187Y0099780D03*
X0089938Y0099780D03*
X0089855Y0099780D03*
X0089689Y0099780D03*
X0089606Y0099780D03*
X0089358Y0099780D03*
X0089192Y0099780D03*
X0088943Y0099780D03*
X0088694Y0099780D03*
X0088445Y0099780D03*
X0088279Y0099780D03*
X0088030Y0099780D03*
X0087948Y0099780D03*
X0087782Y0099780D03*
X0087699Y0099780D03*
X0087450Y0099780D03*
X0087284Y0099780D03*
X0087035Y0099780D03*
X0086786Y0099780D03*
X0086537Y0099780D03*
X0086372Y0099780D03*
X0086123Y0099780D03*
X0086040Y0099780D03*
X0085874Y0099780D03*
X0085791Y0099780D03*
X0085542Y0099780D03*
X0085376Y0099780D03*
X0085127Y0099780D03*
X0084879Y0099780D03*
X0084713Y0099780D03*
X0084464Y0099780D03*
X0084381Y0099780D03*
X0084215Y0099780D03*
X0084132Y0099780D03*
X0083966Y0099780D03*
X0083883Y0099780D03*
X0083635Y0099780D03*
X0083469Y0099780D03*
X0083220Y0099780D03*
X0082971Y0099780D03*
X0082805Y0099780D03*
X0082556Y0099780D03*
X0082473Y0099780D03*
X0082307Y0099780D03*
X0082224Y0099780D03*
X0081976Y0099780D03*
X0081810Y0099780D03*
X0081561Y0099780D03*
X0081312Y0099780D03*
X0081063Y0099780D03*
X0100804Y0142993D03*
X0100887Y0142993D03*
X0101135Y0143076D03*
X0111752Y0143242D03*
X0112333Y0142993D03*
X0112499Y0142993D03*
X0119383Y0154937D03*
X0119466Y0154937D03*
X0119715Y0154937D03*
X0119880Y0154937D03*
X0120129Y0154937D03*
X0120378Y0154937D03*
X0120544Y0154937D03*
X0120793Y0154937D03*
X0120876Y0154937D03*
X0121042Y0154937D03*
X0121125Y0154937D03*
X0121290Y0154937D03*
X0121373Y0154937D03*
X0121622Y0154937D03*
X0121788Y0154937D03*
X0122037Y0154937D03*
X0122286Y0154937D03*
X0122452Y0154937D03*
X0122700Y0154937D03*
X0122783Y0154937D03*
X0122949Y0154937D03*
X0123032Y0154937D03*
X0123281Y0154937D03*
X0123447Y0154937D03*
X0123696Y0154937D03*
X0123945Y0154937D03*
X0124193Y0154937D03*
X0124359Y0154937D03*
X0124608Y0154937D03*
X0124691Y0154937D03*
X0124857Y0154937D03*
X0124940Y0154937D03*
X0125189Y0154937D03*
X0125355Y0154937D03*
X0125603Y0154937D03*
X0125852Y0154937D03*
X0126101Y0154937D03*
X0126267Y0154937D03*
X0126516Y0154937D03*
X0126599Y0154937D03*
X0126765Y0154937D03*
X0126848Y0154937D03*
X0127096Y0154937D03*
X0127262Y0154937D03*
X0127511Y0154937D03*
X0127760Y0154937D03*
X0127926Y0154937D03*
X0128175Y0154937D03*
X0128258Y0154937D03*
X0128423Y0154937D03*
X0128506Y0154937D03*
X0128672Y0154937D03*
X0128755Y0154937D03*
X0129004Y0154937D03*
X0129170Y0154937D03*
X0129419Y0154937D03*
X0129668Y0154937D03*
X0129834Y0154937D03*
X0130082Y0154937D03*
X0130165Y0154937D03*
X0130331Y0154937D03*
X0130414Y0154937D03*
X0130663Y0154937D03*
X0130829Y0154937D03*
X0131078Y0154937D03*
X0131326Y0154937D03*
X0131575Y0154937D03*
X0131741Y0154937D03*
X0131990Y0154937D03*
X0132073Y0154937D03*
X0132239Y0154937D03*
X0132322Y0154937D03*
X0093919Y0154937D03*
X0093753Y0154937D03*
X0093505Y0154937D03*
X0093422Y0154937D03*
X0093256Y0154937D03*
X0093173Y0154937D03*
X0092924Y0154937D03*
X0092758Y0154937D03*
X0092509Y0154937D03*
X0092261Y0154937D03*
X0092095Y0154937D03*
X0091846Y0154937D03*
X0091763Y0154937D03*
X0091597Y0154937D03*
X0091514Y0154937D03*
X0091348Y0154937D03*
X0091265Y0154937D03*
X0091016Y0154937D03*
X0090850Y0154937D03*
X0090602Y0154937D03*
X0090353Y0154937D03*
X0090187Y0154937D03*
X0089938Y0154937D03*
X0089855Y0154937D03*
X0089689Y0154937D03*
X0089606Y0154937D03*
X0089358Y0154937D03*
X0089192Y0154937D03*
X0088943Y0154937D03*
X0088694Y0154937D03*
X0088445Y0154937D03*
X0088279Y0154937D03*
X0088030Y0154937D03*
X0087948Y0154937D03*
X0087782Y0154937D03*
X0087699Y0154937D03*
X0087450Y0154937D03*
X0087284Y0154937D03*
X0087035Y0154937D03*
X0086786Y0154937D03*
X0086537Y0154937D03*
X0086372Y0154937D03*
X0086123Y0154937D03*
X0086040Y0154937D03*
X0085874Y0154937D03*
X0085791Y0154937D03*
X0085542Y0154937D03*
X0085376Y0154937D03*
X0085127Y0154937D03*
X0084879Y0154937D03*
X0084713Y0154937D03*
X0084464Y0154937D03*
X0084381Y0154937D03*
X0084215Y0154937D03*
X0084132Y0154937D03*
X0083966Y0154937D03*
X0083883Y0154937D03*
X0083635Y0154937D03*
X0083469Y0154937D03*
X0083220Y0154937D03*
X0082971Y0154937D03*
X0082805Y0154937D03*
X0082556Y0154937D03*
X0082473Y0154937D03*
X0082307Y0154937D03*
X0082224Y0154937D03*
X0081976Y0154937D03*
X0081810Y0154937D03*
X0081561Y0154937D03*
X0081312Y0154937D03*
X0081063Y0154937D03*
D173*
X0081146Y0154937D03*
X0081478Y0154937D03*
X0081727Y0154937D03*
X0082059Y0154937D03*
X0082722Y0154937D03*
X0083054Y0154937D03*
X0083386Y0154937D03*
X0083717Y0154937D03*
X0084630Y0154937D03*
X0084962Y0154937D03*
X0085293Y0154937D03*
X0085625Y0154937D03*
X0086289Y0154937D03*
X0086620Y0154937D03*
X0086869Y0154937D03*
X0087201Y0154937D03*
X0087533Y0154937D03*
X0088196Y0154937D03*
X0088528Y0154937D03*
X0088860Y0154937D03*
X0089109Y0154937D03*
X0089440Y0154937D03*
X0090104Y0154937D03*
X0090436Y0154937D03*
X0090768Y0154937D03*
X0091099Y0154937D03*
X0092012Y0154937D03*
X0092343Y0154937D03*
X0092675Y0154937D03*
X0093007Y0154937D03*
X0093671Y0154937D03*
X0101052Y0143076D03*
X0101633Y0143242D03*
X0112250Y0143076D03*
X0119632Y0154937D03*
X0119963Y0154937D03*
X0120295Y0154937D03*
X0120627Y0154937D03*
X0121539Y0154937D03*
X0121871Y0154937D03*
X0122203Y0154937D03*
X0122535Y0154937D03*
X0123198Y0154937D03*
X0123530Y0154937D03*
X0123779Y0154937D03*
X0124110Y0154937D03*
X0124442Y0154937D03*
X0125106Y0154937D03*
X0125438Y0154937D03*
X0125769Y0154937D03*
X0126018Y0154937D03*
X0126350Y0154937D03*
X0127013Y0154937D03*
X0127345Y0154937D03*
X0127677Y0154937D03*
X0128009Y0154937D03*
X0128921Y0154937D03*
X0129253Y0154937D03*
X0129585Y0154937D03*
X0129916Y0154937D03*
X0130580Y0154937D03*
X0130912Y0154937D03*
X0131161Y0154937D03*
X0131492Y0154937D03*
X0131824Y0154937D03*
X0112250Y0111641D03*
X0101052Y0111641D03*
X0093671Y0099780D03*
X0093007Y0099780D03*
X0092675Y0099780D03*
X0092343Y0099780D03*
X0092012Y0099780D03*
X0091099Y0099780D03*
X0090768Y0099780D03*
X0090436Y0099780D03*
X0090104Y0099780D03*
X0089440Y0099780D03*
X0089109Y0099780D03*
X0088860Y0099780D03*
X0088528Y0099780D03*
X0088196Y0099780D03*
X0087533Y0099780D03*
X0087201Y0099780D03*
X0086869Y0099780D03*
X0086620Y0099780D03*
X0086289Y0099780D03*
X0085625Y0099780D03*
X0085293Y0099780D03*
X0084962Y0099780D03*
X0084630Y0099780D03*
X0083717Y0099780D03*
X0083386Y0099780D03*
X0083054Y0099780D03*
X0082722Y0099780D03*
X0082059Y0099780D03*
X0081727Y0099780D03*
X0081478Y0099780D03*
X0081146Y0099780D03*
X0088528Y0118110D03*
X0119632Y0099780D03*
X0119963Y0099780D03*
X0120295Y0099780D03*
X0120627Y0099780D03*
X0121539Y0099780D03*
X0121871Y0099780D03*
X0122203Y0099780D03*
X0122535Y0099780D03*
X0123198Y0099780D03*
X0123530Y0099780D03*
X0123779Y0099780D03*
X0124110Y0099780D03*
X0124442Y0099780D03*
X0125106Y0099780D03*
X0125438Y0099780D03*
X0125769Y0099780D03*
X0126018Y0099780D03*
X0126350Y0099780D03*
X0127013Y0099780D03*
X0127345Y0099780D03*
X0127677Y0099780D03*
X0128009Y0099780D03*
X0128921Y0099780D03*
X0129253Y0099780D03*
X0129585Y0099780D03*
X0129916Y0099780D03*
X0130580Y0099780D03*
X0130912Y0099780D03*
X0131161Y0099780D03*
X0131492Y0099780D03*
X0131824Y0099780D03*
D174*
X0132156Y0099780D03*
X0130248Y0099780D03*
X0128589Y0099780D03*
X0128341Y0099780D03*
X0126682Y0099780D03*
X0124774Y0099780D03*
X0122866Y0099780D03*
X0121207Y0099780D03*
X0120959Y0099780D03*
X0093339Y0099780D03*
X0091680Y0099780D03*
X0091431Y0099780D03*
X0089772Y0099780D03*
X0087865Y0099780D03*
X0085957Y0099780D03*
X0084298Y0099780D03*
X0084049Y0099780D03*
X0082390Y0099780D03*
X0124774Y0136606D03*
X0124774Y0154937D03*
X0122866Y0154937D03*
X0121207Y0154937D03*
X0120959Y0154937D03*
X0126682Y0154937D03*
X0128341Y0154937D03*
X0128589Y0154937D03*
X0130248Y0154937D03*
X0132156Y0154937D03*
X0093339Y0154937D03*
X0091680Y0154937D03*
X0091431Y0154937D03*
X0089772Y0154937D03*
X0087865Y0154937D03*
X0085957Y0154937D03*
X0084298Y0154937D03*
X0084049Y0154937D03*
X0082390Y0154937D03*
D175*
X0085459Y0127275D03*
X0085708Y0127275D03*
X0127594Y0127441D03*
X0127843Y0127441D03*
D176*
X0127760Y0127441D03*
X0124359Y0136814D03*
X0088943Y0117903D03*
X0085542Y0127275D03*
D177*
X0085625Y0127275D03*
X0088860Y0136648D03*
X0124442Y0118069D03*
X0127677Y0127441D03*
D178*
X0127262Y0127441D03*
X0086123Y0127275D03*
X0086040Y0127275D03*
X0085874Y0127275D03*
X0085791Y0127275D03*
D179*
X0085957Y0127275D03*
D180*
X0086206Y0127317D03*
X0089026Y0117861D03*
X0099311Y0142910D03*
X0124276Y0136855D03*
D181*
X0118636Y0138804D03*
X0127013Y0127441D03*
X0118636Y0115912D03*
X0094583Y0115995D03*
X0086620Y0127275D03*
X0086289Y0127275D03*
X0094583Y0138721D03*
D182*
X0094666Y0138804D03*
X0086537Y0127275D03*
X0086372Y0127275D03*
X0094666Y0115912D03*
X0118719Y0115995D03*
X0126765Y0127441D03*
X0126848Y0127441D03*
X0118719Y0138721D03*
X0113909Y0142952D03*
D183*
X0118553Y0138887D03*
X0126931Y0127441D03*
X0118553Y0115829D03*
X0094749Y0115829D03*
X0086455Y0127275D03*
X0094749Y0138887D03*
D184*
X0094334Y0138390D03*
X0089026Y0136731D03*
X0086952Y0127275D03*
X0086703Y0127275D03*
X0099311Y0111682D03*
X0124276Y0117986D03*
X0126433Y0127441D03*
D185*
X0126516Y0127441D03*
X0126599Y0127441D03*
X0126267Y0127441D03*
X0113991Y0143034D03*
X0103955Y0144693D03*
X0087035Y0127275D03*
X0086786Y0127275D03*
D186*
X0086869Y0127275D03*
X0114157Y0111765D03*
X0118968Y0116244D03*
X0126350Y0127441D03*
D187*
X0126267Y0118857D03*
X0087035Y0135860D03*
D188*
X0087118Y0118691D03*
X0126184Y0136026D03*
D189*
X0125935Y0127441D03*
X0114074Y0143034D03*
X0094085Y0138141D03*
X0087367Y0127275D03*
X0087118Y0127275D03*
X0094085Y0116576D03*
D190*
X0087118Y0135901D03*
X0126184Y0118815D03*
D191*
X0087201Y0118691D03*
D192*
X0087201Y0127275D03*
X0124110Y0136897D03*
X0126018Y0127441D03*
D193*
X0126018Y0136067D03*
X0087201Y0135901D03*
D194*
X0087284Y0118649D03*
X0094168Y0110272D03*
X0119134Y0144444D03*
D195*
X0119217Y0138141D03*
X0125852Y0127441D03*
X0126101Y0127441D03*
X0119217Y0116576D03*
X0099228Y0111682D03*
X0089192Y0117820D03*
X0087450Y0127275D03*
X0087284Y0127275D03*
X0094168Y0138224D03*
D196*
X0087284Y0135984D03*
D197*
X0087367Y0118608D03*
X0125935Y0136109D03*
D198*
X0125935Y0118691D03*
X0087367Y0136026D03*
D199*
X0087450Y0118566D03*
D200*
X0087450Y0136067D03*
D201*
X0087533Y0118566D03*
X0125769Y0136150D03*
D202*
X0125769Y0127400D03*
X0094002Y0138016D03*
X0087533Y0127317D03*
X0094002Y0116700D03*
D203*
X0087533Y0136067D03*
X0125769Y0118649D03*
D204*
X0125686Y0136233D03*
X0087616Y0118483D03*
D205*
X0093836Y0116907D03*
X0087616Y0127275D03*
X0093836Y0137809D03*
X0114323Y0111765D03*
X0125520Y0127441D03*
X0125686Y0127441D03*
D206*
X0125603Y0127441D03*
X0119466Y0137809D03*
X0119466Y0116907D03*
X0098979Y0142952D03*
X0089192Y0136814D03*
X0087948Y0127275D03*
X0087782Y0127275D03*
X0087699Y0127275D03*
D207*
X0087865Y0127275D03*
D208*
X0087865Y0136233D03*
D209*
X0087948Y0118359D03*
X0125355Y0136357D03*
D210*
X0125355Y0118442D03*
X0087948Y0136275D03*
D211*
X0088030Y0118318D03*
D212*
X0088030Y0127275D03*
X0088279Y0127275D03*
X0098896Y0143034D03*
X0119715Y0137477D03*
X0124940Y0127441D03*
X0125189Y0127441D03*
X0119715Y0117239D03*
X0114406Y0111682D03*
D213*
X0088030Y0136316D03*
X0094666Y0143615D03*
D214*
X0088113Y0118276D03*
D215*
X0093588Y0117239D03*
X0088362Y0127275D03*
X0088113Y0127275D03*
X0093588Y0137477D03*
X0125023Y0127441D03*
X0125272Y0127441D03*
D216*
X0088113Y0136316D03*
D217*
X0088196Y0118234D03*
X0125106Y0136482D03*
D218*
X0125106Y0127441D03*
X0088196Y0127275D03*
D219*
X0088196Y0136358D03*
X0118387Y0143573D03*
X0125106Y0118359D03*
D220*
X0088279Y0118193D03*
D221*
X0088279Y0136399D03*
X0124940Y0136565D03*
D222*
X0118305Y0143532D03*
X0125023Y0118318D03*
X0094998Y0111184D03*
X0088362Y0118152D03*
D223*
X0102131Y0111309D03*
X0102380Y0111226D03*
X0102877Y0111143D03*
X0103126Y0111060D03*
X0103375Y0110977D03*
X0103541Y0110977D03*
X0103790Y0110894D03*
X0109761Y0110977D03*
X0110259Y0111060D03*
X0110508Y0111143D03*
X0110923Y0111226D03*
X0111171Y0111309D03*
X0088362Y0136440D03*
X0102131Y0143408D03*
X0102877Y0143573D03*
X0103126Y0143656D03*
X0103375Y0143740D03*
X0103541Y0143740D03*
X0109761Y0143740D03*
X0110259Y0143656D03*
X0110508Y0143573D03*
X0111171Y0143408D03*
D224*
X0124857Y0136565D03*
X0088445Y0118152D03*
D225*
X0093422Y0117488D03*
X0088445Y0127275D03*
X0119880Y0117488D03*
X0124857Y0127441D03*
D226*
X0112084Y0143117D03*
X0111835Y0143200D03*
X0111337Y0143366D03*
X0111088Y0143449D03*
X0102214Y0143449D03*
X0102048Y0143366D03*
X0101550Y0143200D03*
X0088445Y0136482D03*
X0093256Y0127358D03*
X0102048Y0111350D03*
X0102214Y0111267D03*
X0111088Y0111267D03*
X0111337Y0111350D03*
X0111835Y0111516D03*
X0112084Y0111599D03*
D227*
X0088528Y0127358D03*
D228*
X0088528Y0136523D03*
X0100057Y0142661D03*
X0113245Y0112055D03*
D229*
X0088611Y0118069D03*
D230*
X0088611Y0127358D03*
X0096905Y0142454D03*
X0096905Y0112263D03*
D231*
X0088611Y0136565D03*
D232*
X0088694Y0118027D03*
X0113494Y0111972D03*
X0124608Y0136689D03*
D233*
X0088694Y0127358D03*
D234*
X0088694Y0136606D03*
X0099891Y0111889D03*
X0124608Y0118110D03*
D235*
X0088777Y0117986D03*
D236*
X0088777Y0136606D03*
X0124525Y0118110D03*
D237*
X0124442Y0136772D03*
X0088860Y0117944D03*
D238*
X0088943Y0127358D03*
X0103955Y0119230D03*
X0103955Y0135487D03*
X0124359Y0127358D03*
D239*
X0127096Y0127400D03*
X0124359Y0118027D03*
X0118470Y0115705D03*
X0113991Y0111806D03*
X0094832Y0115705D03*
X0088943Y0136689D03*
X0094832Y0139012D03*
X0118470Y0139012D03*
D240*
X0124276Y0127358D03*
X0103375Y0119644D03*
X0089026Y0127358D03*
X0103375Y0135072D03*
D241*
X0118968Y0138431D03*
X0099394Y0111724D03*
X0089109Y0117861D03*
D242*
X0089109Y0127358D03*
X0118968Y0127358D03*
D243*
X0089109Y0136772D03*
D244*
X0089192Y0127358D03*
X0102794Y0120308D03*
X0102794Y0134408D03*
D245*
X0119549Y0137685D03*
X0124028Y0136938D03*
X0119549Y0117032D03*
X0089275Y0117778D03*
D246*
X0089275Y0127358D03*
X0124028Y0127358D03*
D247*
X0124028Y0117861D03*
X0119797Y0117364D03*
X0119797Y0137353D03*
X0114323Y0143076D03*
X0089275Y0136855D03*
D248*
X0089358Y0117695D03*
D249*
X0089358Y0127358D03*
X0123945Y0127358D03*
D250*
X0098896Y0111558D03*
X0089358Y0136855D03*
D251*
X0089440Y0127317D03*
X0123779Y0127400D03*
D252*
X0111420Y0127358D03*
X0101882Y0127358D03*
X0089523Y0127275D03*
D253*
X0089606Y0127275D03*
X0089689Y0127275D03*
X0123696Y0127441D03*
D254*
X0089772Y0127234D03*
D255*
X0089855Y0127275D03*
X0089938Y0127275D03*
X0123447Y0127441D03*
D256*
X0123115Y0127441D03*
X0090021Y0127275D03*
D257*
X0090104Y0127275D03*
X0101384Y0127358D03*
X0123198Y0127441D03*
D258*
X0123281Y0127441D03*
X0112001Y0127358D03*
X0101301Y0127358D03*
X0090187Y0127275D03*
D259*
X0090270Y0127275D03*
D260*
X0090353Y0127275D03*
X0122949Y0127441D03*
X0123032Y0127441D03*
D261*
X0090436Y0127275D03*
D262*
X0090519Y0127275D03*
X0090685Y0127275D03*
X0122617Y0127441D03*
D263*
X0122700Y0127441D03*
X0122783Y0127441D03*
X0090602Y0127275D03*
D264*
X0090768Y0127275D03*
X0112581Y0127358D03*
X0122535Y0127441D03*
D265*
X0122452Y0127441D03*
X0112499Y0127358D03*
X0100804Y0127358D03*
X0090850Y0127275D03*
D266*
X0090933Y0127275D03*
X0122369Y0127441D03*
D267*
X0122286Y0127441D03*
X0091016Y0127275D03*
D268*
X0091099Y0127275D03*
X0122203Y0127441D03*
D269*
X0122120Y0127400D03*
X0091182Y0127234D03*
D270*
X0091265Y0127275D03*
X0091348Y0127275D03*
X0122037Y0127441D03*
D271*
X0091431Y0127275D03*
D272*
X0091514Y0127275D03*
X0091597Y0127275D03*
X0100306Y0127358D03*
X0112996Y0127358D03*
X0121788Y0127441D03*
D273*
X0091680Y0127275D03*
D274*
X0091763Y0120723D03*
D275*
X0091763Y0133869D03*
D276*
X0091846Y0120391D03*
X0104453Y0118981D03*
X0104453Y0135736D03*
D277*
X0092012Y0119935D03*
D278*
X0092012Y0134699D03*
D279*
X0092178Y0119603D03*
X0117641Y0113217D03*
X0117641Y0141500D03*
D280*
X0117143Y0141915D03*
X0096159Y0141915D03*
X0092178Y0135030D03*
X0096159Y0112802D03*
X0117143Y0112802D03*
D281*
X0092261Y0119479D03*
D282*
X0096988Y0112180D03*
X0116314Y0112180D03*
X0124691Y0127358D03*
X0116314Y0142537D03*
X0096988Y0142537D03*
X0092261Y0135155D03*
D283*
X0092343Y0119313D03*
D284*
X0092426Y0119188D03*
D285*
X0098315Y0111433D03*
X0092426Y0135487D03*
X0114987Y0143283D03*
D286*
X0120793Y0135694D03*
X0120793Y0119023D03*
X0098232Y0143159D03*
X0092509Y0135694D03*
X0092509Y0119023D03*
D287*
X0092592Y0118857D03*
X0092592Y0135860D03*
X0098315Y0143159D03*
X0120710Y0135860D03*
X0120710Y0118857D03*
X0114987Y0111558D03*
D288*
X0120627Y0118691D03*
X0120627Y0136026D03*
X0092675Y0136026D03*
X0092675Y0118691D03*
D289*
X0092758Y0118566D03*
X0120544Y0118566D03*
D290*
X0120544Y0136150D03*
X0092758Y0136150D03*
D291*
X0092841Y0136316D03*
X0092841Y0118400D03*
X0119797Y0127358D03*
X0120461Y0118400D03*
X0120461Y0136316D03*
D292*
X0120378Y0136482D03*
X0120378Y0118235D03*
X0092924Y0118235D03*
D293*
X0098730Y0111558D03*
X0104702Y0109318D03*
X0104951Y0109318D03*
X0105117Y0109318D03*
X0105365Y0109318D03*
X0107937Y0109318D03*
X0108020Y0109318D03*
X0108185Y0109318D03*
X0108268Y0109318D03*
X0108517Y0109318D03*
X0092924Y0136441D03*
X0104702Y0145398D03*
X0104951Y0145398D03*
X0105117Y0145398D03*
X0105365Y0145398D03*
X0107937Y0145398D03*
X0108020Y0145398D03*
X0108185Y0145398D03*
X0108268Y0145398D03*
X0108517Y0145398D03*
D294*
X0108434Y0145398D03*
X0105200Y0145398D03*
X0104868Y0145398D03*
X0093007Y0136606D03*
X0093007Y0118110D03*
X0104868Y0109318D03*
X0105200Y0109318D03*
X0108434Y0109318D03*
X0120295Y0118110D03*
X0120295Y0136606D03*
D295*
X0120212Y0136731D03*
X0120212Y0117986D03*
X0093090Y0117986D03*
X0093090Y0136731D03*
D296*
X0093173Y0136855D03*
X0093173Y0117861D03*
X0120129Y0117861D03*
X0120129Y0136855D03*
D297*
X0098730Y0143034D03*
X0093256Y0136980D03*
X0093256Y0117737D03*
D298*
X0093339Y0117612D03*
X0093339Y0137104D03*
D299*
X0093339Y0127358D03*
X0113577Y0142869D03*
D300*
X0093422Y0127317D03*
X0099145Y0111641D03*
D301*
X0093422Y0137228D03*
X0114406Y0143117D03*
X0119880Y0137228D03*
X0123945Y0136980D03*
D302*
X0098979Y0111641D03*
X0093505Y0117364D03*
X0093505Y0137353D03*
D303*
X0093505Y0127358D03*
X0105614Y0145440D03*
X0105780Y0145440D03*
X0106029Y0145440D03*
X0106112Y0145440D03*
X0106278Y0145440D03*
X0106361Y0145440D03*
X0106527Y0145440D03*
X0106610Y0145440D03*
X0106858Y0145440D03*
X0107024Y0145440D03*
X0107273Y0145440D03*
X0107522Y0145440D03*
X0107688Y0145440D03*
X0107688Y0109277D03*
X0107522Y0109277D03*
X0107273Y0109277D03*
X0107024Y0109277D03*
X0106858Y0109277D03*
X0106610Y0109277D03*
X0106527Y0109277D03*
X0106361Y0109277D03*
X0106278Y0109277D03*
X0106112Y0109277D03*
X0106029Y0109277D03*
X0105780Y0109277D03*
X0105614Y0109277D03*
D304*
X0093588Y0127358D03*
D305*
X0093671Y0137602D03*
X0093671Y0117115D03*
X0104204Y0109733D03*
X0119632Y0117115D03*
X0119632Y0137602D03*
D306*
X0116397Y0142454D03*
X0119632Y0127358D03*
X0116397Y0112263D03*
X0093671Y0127358D03*
X0096822Y0142371D03*
D307*
X0093753Y0137685D03*
X0093753Y0117032D03*
D308*
X0093919Y0116783D03*
X0093919Y0137933D03*
X0119383Y0137933D03*
X0119383Y0116783D03*
D309*
X0119383Y0110231D03*
X0093919Y0144486D03*
D310*
X0094002Y0144403D03*
D311*
X0094085Y0110189D03*
D312*
X0094085Y0127358D03*
D313*
X0094085Y0144279D03*
D314*
X0099145Y0142910D03*
X0109181Y0144735D03*
X0119134Y0138265D03*
X0119134Y0116451D03*
X0104121Y0109982D03*
X0094168Y0116451D03*
D315*
X0094168Y0127358D03*
X0119134Y0127358D03*
D316*
X0125852Y0136150D03*
X0119134Y0110521D03*
X0094168Y0144196D03*
D317*
X0094251Y0110355D03*
D318*
X0094251Y0116369D03*
X0109347Y0109982D03*
X0094251Y0138348D03*
D319*
X0094251Y0127358D03*
D320*
X0094251Y0144154D03*
D321*
X0094334Y0110479D03*
D322*
X0094334Y0116285D03*
X0119051Y0116369D03*
X0126184Y0127400D03*
X0119051Y0138348D03*
D323*
X0094334Y0127358D03*
D324*
X0094334Y0144030D03*
D325*
X0094417Y0110521D03*
D326*
X0094417Y0116203D03*
X0094417Y0138514D03*
X0099228Y0142910D03*
X0118885Y0138514D03*
X0118885Y0116203D03*
D327*
X0094417Y0127358D03*
D328*
X0094500Y0138597D03*
X0094500Y0116119D03*
X0114074Y0111806D03*
X0118802Y0116119D03*
X0118802Y0138597D03*
D329*
X0094500Y0127317D03*
D330*
X0094583Y0127317D03*
D331*
X0094583Y0143739D03*
D332*
X0094666Y0110811D03*
D333*
X0094666Y0127358D03*
D334*
X0094749Y0127358D03*
D335*
X0094749Y0143574D03*
D336*
X0118470Y0143698D03*
X0094832Y0111019D03*
D337*
X0094832Y0127358D03*
D338*
X0094832Y0143491D03*
X0118470Y0111226D03*
D339*
X0094915Y0111102D03*
D340*
X0094915Y0115663D03*
X0119963Y0127358D03*
X0118387Y0139053D03*
X0099394Y0142869D03*
D341*
X0094915Y0127358D03*
X0118387Y0127358D03*
D342*
X0094998Y0115580D03*
D343*
X0094998Y0127358D03*
X0118305Y0127358D03*
D344*
X0094998Y0140919D03*
D345*
X0095081Y0127358D03*
D346*
X0095164Y0127358D03*
D347*
X0095246Y0113548D03*
X0095246Y0141168D03*
D348*
X0095246Y0127358D03*
D349*
X0095329Y0127358D03*
X0117973Y0127358D03*
D350*
X0095412Y0127317D03*
D351*
X0095495Y0113382D03*
X0095495Y0141334D03*
D352*
X0095495Y0127358D03*
D353*
X0095578Y0113299D03*
X0117724Y0113299D03*
X0117724Y0141417D03*
X0095578Y0141417D03*
D354*
X0095578Y0127358D03*
D355*
X0095661Y0127358D03*
D356*
X0095744Y0127358D03*
D357*
X0095827Y0113051D03*
X0117475Y0113051D03*
X0117558Y0113134D03*
X0117558Y0141583D03*
X0117475Y0141666D03*
X0095827Y0141666D03*
D358*
X0095827Y0127358D03*
X0117475Y0127358D03*
D359*
X0095910Y0113009D03*
X0095910Y0141707D03*
D360*
X0095910Y0127358D03*
D361*
X0095993Y0112926D03*
X0095993Y0141790D03*
D362*
X0095993Y0127358D03*
D363*
X0096076Y0127358D03*
X0117226Y0127358D03*
D364*
X0117143Y0127358D03*
X0096159Y0127358D03*
D365*
X0096242Y0141956D03*
X0117060Y0141956D03*
X0096242Y0112760D03*
D366*
X0096242Y0127358D03*
X0117060Y0127358D03*
D367*
X0096325Y0127358D03*
D368*
X0096408Y0142122D03*
X0116894Y0142122D03*
X0116894Y0112594D03*
X0096408Y0112594D03*
D369*
X0096408Y0127358D03*
D370*
X0096491Y0142164D03*
X0096491Y0112553D03*
X0096822Y0112304D03*
D371*
X0096491Y0127358D03*
D372*
X0096574Y0127358D03*
D373*
X0096656Y0142246D03*
X0116646Y0142246D03*
X0116646Y0112470D03*
X0096656Y0112470D03*
D374*
X0096656Y0127358D03*
X0116646Y0127358D03*
D375*
X0121042Y0135279D03*
X0116812Y0142164D03*
X0116563Y0142329D03*
X0096739Y0142329D03*
X0096739Y0112387D03*
X0116563Y0112387D03*
X0116812Y0112553D03*
D376*
X0116563Y0127358D03*
X0096739Y0127358D03*
D377*
X0096822Y0127358D03*
D378*
X0096905Y0127358D03*
D379*
X0096988Y0127358D03*
X0116314Y0127358D03*
D380*
X0121042Y0119520D03*
X0115899Y0111890D03*
X0097237Y0112055D03*
X0097071Y0112138D03*
X0097071Y0142578D03*
X0097237Y0142661D03*
X0115899Y0142827D03*
X0116065Y0142661D03*
D381*
X0097071Y0127358D03*
D382*
X0097154Y0142661D03*
X0097154Y0112055D03*
D383*
X0097154Y0127358D03*
D384*
X0097237Y0127358D03*
X0116065Y0127358D03*
D385*
X0097320Y0111972D03*
X0097320Y0142744D03*
D386*
X0097320Y0127358D03*
D387*
X0097403Y0142827D03*
X0116231Y0142578D03*
X0116231Y0112138D03*
X0097403Y0111890D03*
D388*
X0097403Y0127358D03*
D389*
X0097486Y0142869D03*
X0115816Y0142869D03*
X0115816Y0111848D03*
X0097486Y0111848D03*
D390*
X0097486Y0127358D03*
X0115816Y0127358D03*
D391*
X0115650Y0142951D03*
X0115567Y0143034D03*
X0115319Y0143200D03*
X0097984Y0143200D03*
X0097735Y0143034D03*
X0097569Y0142951D03*
X0097569Y0111765D03*
X0097735Y0111682D03*
X0097984Y0111516D03*
X0115319Y0111516D03*
X0115567Y0111682D03*
X0115650Y0111765D03*
X0116065Y0112014D03*
D392*
X0097569Y0127358D03*
D393*
X0097652Y0142951D03*
X0115733Y0142951D03*
X0115733Y0111765D03*
X0097652Y0111765D03*
D394*
X0097652Y0127358D03*
D395*
X0097735Y0127358D03*
X0115567Y0127358D03*
D396*
X0097818Y0127358D03*
D397*
X0097901Y0143159D03*
X0115236Y0143242D03*
X0098067Y0111475D03*
X0097901Y0111558D03*
D398*
X0097901Y0127358D03*
D399*
X0097984Y0127358D03*
X0115319Y0127358D03*
D400*
X0115236Y0127358D03*
X0098067Y0127358D03*
D401*
X0098067Y0143200D03*
X0115236Y0111516D03*
D402*
X0115153Y0127358D03*
X0098149Y0127358D03*
D403*
X0098149Y0143200D03*
X0115153Y0111516D03*
D404*
X0120876Y0119188D03*
X0120876Y0135528D03*
X0115070Y0143325D03*
X0098232Y0111392D03*
D405*
X0098232Y0127358D03*
X0115070Y0127358D03*
D406*
X0098315Y0127358D03*
D407*
X0098398Y0111433D03*
X0115070Y0111516D03*
D408*
X0114904Y0127358D03*
X0098398Y0127358D03*
D409*
X0098398Y0143159D03*
X0114904Y0111558D03*
D410*
X0098481Y0111475D03*
X0114821Y0143242D03*
D411*
X0114821Y0127358D03*
X0098481Y0127358D03*
D412*
X0098481Y0143117D03*
X0114821Y0111599D03*
D413*
X0098564Y0111516D03*
X0114738Y0143200D03*
D414*
X0114738Y0127358D03*
X0098564Y0127358D03*
D415*
X0098564Y0143076D03*
X0104785Y0145398D03*
X0105034Y0145398D03*
X0105282Y0145398D03*
X0105448Y0145398D03*
X0107854Y0145398D03*
X0108351Y0145398D03*
X0114572Y0143159D03*
X0114738Y0111641D03*
X0108600Y0109318D03*
X0108351Y0109318D03*
X0105282Y0109318D03*
X0105034Y0109318D03*
X0104785Y0109318D03*
D416*
X0104619Y0109360D03*
X0104453Y0109360D03*
X0104370Y0109360D03*
X0108683Y0109360D03*
X0108932Y0109360D03*
X0098647Y0111516D03*
X0114655Y0143200D03*
X0108932Y0145357D03*
X0108683Y0145357D03*
X0104619Y0145357D03*
X0104453Y0145357D03*
X0104370Y0145357D03*
D417*
X0098647Y0127358D03*
D418*
X0098647Y0143076D03*
X0104121Y0145149D03*
X0114655Y0111641D03*
X0109181Y0109567D03*
D419*
X0114655Y0127358D03*
X0098730Y0127358D03*
D420*
X0098813Y0111558D03*
D421*
X0098813Y0127358D03*
D422*
X0098813Y0143034D03*
D423*
X0098896Y0127317D03*
D424*
X0098979Y0127358D03*
X0114406Y0127358D03*
D425*
X0099062Y0111641D03*
D426*
X0099062Y0127358D03*
D427*
X0099062Y0142951D03*
D428*
X0099145Y0127358D03*
X0099228Y0127358D03*
D429*
X0099311Y0127358D03*
D430*
X0099394Y0127317D03*
D431*
X0099477Y0111765D03*
X0113909Y0111848D03*
D432*
X0113909Y0127358D03*
X0099477Y0127358D03*
D433*
X0099477Y0142827D03*
D434*
X0099559Y0111806D03*
D435*
X0099559Y0127358D03*
D436*
X0099559Y0142786D03*
D437*
X0113660Y0142910D03*
X0099642Y0111806D03*
D438*
X0099642Y0127358D03*
X0113743Y0127358D03*
D439*
X0099642Y0142786D03*
X0103955Y0110438D03*
X0113660Y0111931D03*
D440*
X0099725Y0111848D03*
D441*
X0099725Y0127358D03*
D442*
X0099725Y0142744D03*
D443*
X0099808Y0111848D03*
D444*
X0099808Y0127358D03*
D445*
X0099808Y0142744D03*
D446*
X0099891Y0127358D03*
X0113411Y0127358D03*
X0113494Y0127358D03*
D447*
X0124691Y0118152D03*
X0113411Y0112014D03*
X0099891Y0142703D03*
D448*
X0113328Y0142786D03*
X0099974Y0111931D03*
D449*
X0099974Y0127358D03*
X0113328Y0127358D03*
D450*
X0099974Y0142661D03*
X0113328Y0112055D03*
D451*
X0103872Y0110645D03*
X0100057Y0111972D03*
X0113245Y0142744D03*
D452*
X0100057Y0127358D03*
D453*
X0113162Y0142744D03*
X0100140Y0111972D03*
D454*
X0100140Y0127358D03*
X0113162Y0127358D03*
D455*
X0112996Y0142786D03*
X0112747Y0142869D03*
X0100555Y0142869D03*
X0100306Y0142786D03*
X0100140Y0142703D03*
X0100306Y0111931D03*
X0100555Y0111848D03*
X0112747Y0111848D03*
X0112996Y0111931D03*
X0113162Y0112014D03*
D456*
X0113079Y0112014D03*
X0100223Y0112014D03*
X0100223Y0142703D03*
X0113079Y0142703D03*
D457*
X0100223Y0127358D03*
D458*
X0100389Y0142786D03*
X0112913Y0142786D03*
X0112913Y0111931D03*
X0100389Y0111931D03*
D459*
X0100389Y0127358D03*
X0112913Y0127358D03*
D460*
X0112830Y0127358D03*
X0100472Y0127358D03*
D461*
X0100555Y0127358D03*
X0100638Y0127358D03*
X0112747Y0127358D03*
D462*
X0124857Y0118193D03*
X0112001Y0111558D03*
X0101301Y0111558D03*
X0100638Y0111806D03*
X0100638Y0142910D03*
X0101301Y0143159D03*
X0112001Y0143159D03*
D463*
X0111918Y0143159D03*
X0100721Y0142910D03*
X0100721Y0111806D03*
X0111918Y0111558D03*
D464*
X0100721Y0127358D03*
D465*
X0100887Y0127358D03*
X0112333Y0127358D03*
D466*
X0112416Y0127358D03*
X0100970Y0127358D03*
D467*
X0101052Y0127358D03*
D468*
X0101135Y0127358D03*
X0112084Y0127358D03*
D469*
X0101467Y0143200D03*
X0101218Y0143117D03*
X0101882Y0143366D03*
X0102380Y0143449D03*
X0109513Y0143864D03*
X0110923Y0143449D03*
X0111420Y0143366D03*
X0111420Y0111350D03*
X0101882Y0111350D03*
X0101467Y0111516D03*
X0101218Y0111599D03*
D470*
X0101218Y0127358D03*
X0112167Y0127358D03*
D471*
X0112581Y0142910D03*
X0101384Y0143159D03*
X0101384Y0111558D03*
X0112581Y0111806D03*
D472*
X0101467Y0127358D03*
D473*
X0101550Y0127358D03*
X0111752Y0127358D03*
X0111835Y0127358D03*
D474*
X0111586Y0143283D03*
X0110674Y0143532D03*
X0103624Y0143781D03*
X0101633Y0111433D03*
X0109678Y0110936D03*
X0110674Y0111184D03*
X0111586Y0111433D03*
D475*
X0101633Y0127358D03*
D476*
X0101716Y0143283D03*
X0110757Y0143532D03*
X0111669Y0111433D03*
X0110757Y0111184D03*
X0101716Y0111433D03*
D477*
X0101716Y0127358D03*
X0111669Y0127358D03*
D478*
X0111503Y0143283D03*
X0102545Y0143532D03*
X0101799Y0143283D03*
X0101799Y0111433D03*
X0102545Y0111184D03*
X0111503Y0111433D03*
D479*
X0111503Y0127358D03*
X0101799Y0127358D03*
D480*
X0101965Y0111350D03*
X0102297Y0111267D03*
X0102960Y0111102D03*
X0110342Y0111102D03*
X0111006Y0111267D03*
X0111254Y0111350D03*
X0111254Y0143366D03*
X0111006Y0143449D03*
X0110342Y0143615D03*
X0102960Y0143615D03*
X0102297Y0143449D03*
X0101965Y0143366D03*
D481*
X0101965Y0127358D03*
X0111254Y0127358D03*
D482*
X0111337Y0127358D03*
X0102048Y0127358D03*
D483*
X0102131Y0127358D03*
X0111171Y0127358D03*
D484*
X0111088Y0127358D03*
X0102214Y0127358D03*
D485*
X0102297Y0127358D03*
D486*
X0102380Y0127358D03*
X0110923Y0127358D03*
D487*
X0124940Y0118276D03*
X0110840Y0111226D03*
X0110591Y0111143D03*
X0110425Y0111143D03*
X0110176Y0111060D03*
X0110093Y0111060D03*
X0109927Y0110977D03*
X0109844Y0110977D03*
X0103458Y0110977D03*
X0103209Y0111060D03*
X0103043Y0111060D03*
X0102794Y0111143D03*
X0102711Y0111143D03*
X0102462Y0111226D03*
X0102462Y0143491D03*
X0102711Y0143573D03*
X0102794Y0143573D03*
X0103043Y0143656D03*
X0103209Y0143656D03*
X0103458Y0143740D03*
X0109596Y0143740D03*
X0109844Y0143740D03*
X0109927Y0143740D03*
X0110093Y0143656D03*
X0110176Y0143656D03*
X0110425Y0143573D03*
X0110591Y0143573D03*
X0110840Y0143491D03*
D488*
X0110840Y0127358D03*
X0102545Y0127358D03*
X0102462Y0127358D03*
D489*
X0102628Y0111184D03*
X0102628Y0143532D03*
D490*
X0102628Y0133952D03*
X0102628Y0120764D03*
D491*
X0102711Y0120474D03*
X0102711Y0134243D03*
D492*
X0102877Y0134574D03*
X0102877Y0120142D03*
D493*
X0102960Y0120059D03*
X0102960Y0134657D03*
D494*
X0103043Y0134782D03*
X0103043Y0119935D03*
D495*
X0103126Y0119852D03*
D496*
X0103126Y0134823D03*
D497*
X0103209Y0134948D03*
X0103209Y0119769D03*
D498*
X0103292Y0111060D03*
X0103624Y0110977D03*
X0103292Y0143656D03*
X0109678Y0143740D03*
D499*
X0103292Y0135031D03*
X0103292Y0119686D03*
D500*
X0103458Y0119562D03*
X0103458Y0135155D03*
D501*
X0103541Y0135238D03*
X0109761Y0135238D03*
X0109761Y0119479D03*
X0103541Y0119479D03*
D502*
X0103624Y0119437D03*
X0109678Y0119437D03*
X0109678Y0135279D03*
X0103624Y0135279D03*
D503*
X0103707Y0110936D03*
D504*
X0103707Y0119396D03*
X0109596Y0119396D03*
X0109596Y0135321D03*
X0103707Y0135321D03*
D505*
X0103707Y0143988D03*
X0109430Y0144071D03*
X0109596Y0110645D03*
D506*
X0109513Y0119354D03*
X0103790Y0119354D03*
X0103790Y0135362D03*
X0109513Y0135362D03*
D507*
X0103790Y0144279D03*
X0109513Y0110438D03*
D508*
X0103872Y0119271D03*
X0103872Y0135445D03*
D509*
X0103872Y0144486D03*
D510*
X0109264Y0144527D03*
X0118305Y0139136D03*
X0127179Y0127441D03*
X0127428Y0127441D03*
X0104038Y0110189D03*
D511*
X0104038Y0119188D03*
X0109264Y0119188D03*
X0109264Y0135528D03*
X0104038Y0135528D03*
D512*
X0104038Y0144942D03*
X0109264Y0109774D03*
D513*
X0109181Y0119147D03*
X0104121Y0119147D03*
X0119217Y0127358D03*
X0109181Y0135570D03*
X0104121Y0135570D03*
D514*
X0104204Y0135611D03*
X0109015Y0135694D03*
X0109015Y0119022D03*
X0104204Y0119106D03*
D515*
X0108766Y0109360D03*
X0109015Y0109360D03*
X0108766Y0145357D03*
X0104204Y0145357D03*
D516*
X0104287Y0109484D03*
D517*
X0104287Y0119064D03*
X0104287Y0135653D03*
D518*
X0104287Y0145357D03*
X0108600Y0145357D03*
X0108849Y0145357D03*
X0108849Y0109360D03*
X0109098Y0109360D03*
D519*
X0108932Y0119022D03*
X0104370Y0119022D03*
X0104370Y0135694D03*
X0108932Y0135694D03*
D520*
X0104536Y0145357D03*
X0104536Y0109360D03*
D521*
X0104536Y0118981D03*
X0104536Y0135736D03*
D522*
X0104619Y0135777D03*
X0108683Y0135777D03*
X0108683Y0118940D03*
X0104619Y0118940D03*
D523*
X0108351Y0118815D03*
X0108351Y0135901D03*
X0105034Y0135901D03*
D524*
X0105697Y0145440D03*
X0105946Y0145440D03*
X0106693Y0145440D03*
X0106941Y0145440D03*
X0107190Y0145440D03*
X0107356Y0145440D03*
X0107605Y0145440D03*
X0107605Y0109277D03*
X0107854Y0109277D03*
X0107356Y0109277D03*
X0107190Y0109277D03*
X0106941Y0109277D03*
X0106693Y0109277D03*
X0105946Y0109277D03*
X0105697Y0109277D03*
X0105448Y0109277D03*
D525*
X0105531Y0109277D03*
X0105863Y0109277D03*
X0106775Y0109277D03*
X0107107Y0109277D03*
X0107439Y0109277D03*
X0107771Y0109277D03*
X0107771Y0145440D03*
X0107439Y0145440D03*
X0107107Y0145440D03*
X0106775Y0145440D03*
X0105863Y0145440D03*
X0105531Y0145440D03*
D526*
X0105863Y0136109D03*
X0107107Y0136109D03*
X0107439Y0136109D03*
X0107439Y0118608D03*
X0107107Y0118608D03*
X0105863Y0118608D03*
D527*
X0106195Y0109277D03*
X0106444Y0109277D03*
X0106444Y0145440D03*
X0106195Y0145440D03*
D528*
X0106195Y0136109D03*
X0106195Y0118608D03*
D529*
X0106444Y0118566D03*
X0106444Y0136150D03*
D530*
X0108103Y0145398D03*
X0108103Y0109318D03*
D531*
X0108103Y0118732D03*
X0119300Y0127358D03*
D532*
X0108517Y0118857D03*
X0108517Y0135860D03*
D533*
X0108766Y0135777D03*
X0108766Y0118940D03*
D534*
X0108849Y0118981D03*
X0108849Y0135736D03*
D535*
X0114489Y0143159D03*
X0109015Y0145232D03*
D536*
X0109098Y0135611D03*
X0109098Y0119106D03*
D537*
X0109098Y0144984D03*
D538*
X0109347Y0135487D03*
X0109347Y0119230D03*
D539*
X0109347Y0144279D03*
D540*
X0127511Y0127400D03*
X0109430Y0110231D03*
D541*
X0109430Y0119271D03*
X0109430Y0135445D03*
D542*
X0109844Y0135196D03*
X0109927Y0135114D03*
X0109927Y0119603D03*
X0109844Y0119520D03*
D543*
X0110010Y0111060D03*
X0110010Y0143656D03*
D544*
X0110010Y0135031D03*
X0110010Y0119686D03*
D545*
X0110093Y0119727D03*
X0110093Y0134989D03*
D546*
X0110176Y0134906D03*
X0110176Y0119810D03*
D547*
X0110259Y0119935D03*
X0110259Y0134782D03*
D548*
X0110342Y0134699D03*
X0110342Y0120018D03*
D549*
X0110425Y0120101D03*
X0110425Y0134616D03*
D550*
X0110508Y0134450D03*
X0110508Y0120267D03*
D551*
X0110591Y0120433D03*
X0110591Y0134284D03*
D552*
X0110674Y0134077D03*
X0110674Y0120640D03*
D553*
X0110757Y0127317D03*
D554*
X0111006Y0127317D03*
D555*
X0111586Y0127358D03*
D556*
X0111918Y0127358D03*
D557*
X0112250Y0127358D03*
D558*
X0112664Y0142910D03*
X0112664Y0111806D03*
D559*
X0112664Y0127358D03*
D560*
X0113079Y0127358D03*
X0121705Y0127441D03*
D561*
X0113245Y0127317D03*
D562*
X0113411Y0142786D03*
D563*
X0113494Y0142869D03*
D564*
X0113577Y0111972D03*
D565*
X0113577Y0127358D03*
D566*
X0113660Y0127358D03*
D567*
X0113743Y0111931D03*
D568*
X0113743Y0142910D03*
D569*
X0113826Y0111889D03*
D570*
X0113826Y0127358D03*
D571*
X0113826Y0142952D03*
D572*
X0113991Y0127358D03*
D573*
X0114074Y0127358D03*
D574*
X0114157Y0127358D03*
D575*
X0124110Y0117903D03*
X0125438Y0127441D03*
X0114157Y0143034D03*
D576*
X0114240Y0111765D03*
D577*
X0114240Y0127358D03*
D578*
X0125355Y0127400D03*
X0114240Y0143076D03*
D579*
X0114323Y0127358D03*
D580*
X0114489Y0111682D03*
D581*
X0114489Y0127358D03*
D582*
X0114572Y0111641D03*
D583*
X0114572Y0127358D03*
D584*
X0114904Y0143242D03*
D585*
X0114987Y0127358D03*
D586*
X0115402Y0127317D03*
D587*
X0115484Y0143076D03*
X0115484Y0111641D03*
D588*
X0115484Y0127358D03*
D589*
X0115650Y0127358D03*
D590*
X0115733Y0127358D03*
D591*
X0115899Y0127358D03*
D592*
X0115982Y0142744D03*
X0115982Y0111972D03*
D593*
X0115982Y0127358D03*
D594*
X0116148Y0142661D03*
X0116148Y0112055D03*
D595*
X0116148Y0127358D03*
D596*
X0116231Y0127358D03*
D597*
X0116397Y0127358D03*
D598*
X0116480Y0142412D03*
X0116480Y0112304D03*
D599*
X0116480Y0127358D03*
D600*
X0116729Y0142246D03*
X0116729Y0112470D03*
D601*
X0116729Y0127358D03*
D602*
X0116812Y0127358D03*
D603*
X0116894Y0127358D03*
D604*
X0116977Y0127317D03*
D605*
X0117060Y0112719D03*
D606*
X0117309Y0112926D03*
X0117309Y0141790D03*
D607*
X0117392Y0141707D03*
X0117392Y0113009D03*
D608*
X0117392Y0127358D03*
D609*
X0117558Y0127358D03*
D610*
X0117641Y0127358D03*
D611*
X0117724Y0127358D03*
D612*
X0117807Y0127358D03*
D613*
X0117890Y0127358D03*
D614*
X0118056Y0127358D03*
D615*
X0118139Y0127358D03*
D616*
X0118222Y0127358D03*
D617*
X0118470Y0127358D03*
D618*
X0118553Y0111184D03*
D619*
X0118553Y0127358D03*
D620*
X0118636Y0111060D03*
D621*
X0118636Y0127358D03*
D622*
X0118719Y0127358D03*
D623*
X0118802Y0127358D03*
D624*
X0118885Y0127358D03*
D625*
X0118885Y0144154D03*
D626*
X0118968Y0110687D03*
D627*
X0118968Y0144237D03*
D628*
X0119051Y0110562D03*
D629*
X0119051Y0127358D03*
D630*
X0119051Y0144362D03*
D631*
X0119217Y0110396D03*
D632*
X0119217Y0144527D03*
D633*
X0119300Y0110314D03*
D634*
X0119300Y0116700D03*
X0119300Y0138016D03*
D635*
X0119715Y0127358D03*
D636*
X0119880Y0127358D03*
D637*
X0119963Y0117612D03*
X0119963Y0137104D03*
D638*
X0120046Y0136980D03*
X0120046Y0117737D03*
D639*
X0120046Y0127358D03*
D640*
X0120959Y0135404D03*
D641*
X0121207Y0119810D03*
D642*
X0121207Y0134989D03*
D643*
X0121539Y0120806D03*
D644*
X0121539Y0133994D03*
D645*
X0121622Y0127441D03*
D646*
X0121871Y0127441D03*
D647*
X0121954Y0127441D03*
D648*
X0122866Y0127441D03*
D649*
X0123364Y0127441D03*
D650*
X0123530Y0127400D03*
D651*
X0123613Y0127441D03*
D652*
X0123862Y0127400D03*
D653*
X0123945Y0117820D03*
D654*
X0124110Y0127317D03*
D655*
X0124193Y0117944D03*
D656*
X0124193Y0127317D03*
D657*
X0124193Y0136855D03*
D658*
X0124525Y0127317D03*
D659*
X0124525Y0136689D03*
D660*
X0124691Y0136648D03*
D661*
X0124774Y0118193D03*
D662*
X0124774Y0127358D03*
D663*
X0125023Y0136523D03*
D664*
X0125189Y0118359D03*
D665*
X0125189Y0136441D03*
D666*
X0125272Y0118400D03*
D667*
X0125438Y0136316D03*
D668*
X0125852Y0118649D03*
D669*
X0126018Y0118732D03*
D670*
X0126101Y0118774D03*
D671*
X0126101Y0136067D03*
D672*
X0126682Y0127400D03*
D673*
X0127345Y0127441D03*
M02*
