G75*
%MOIN*%
%OFA0B0*%
%FSLAX25Y25*%
%IPPOS*%
%LPD*%
%AMOC8*
5,1,8,0,0,1.08239X$1,22.5*
%
%ADD10C,0.00000*%
%ADD11C,0.02400*%
%ADD12R,0.08400X0.11800*%
%ADD13R,0.14600X0.03800*%
%ADD14R,0.07100X0.11700*%
%ADD15R,0.10630X0.10039*%
%ADD16R,0.05906X0.05118*%
%ADD17R,0.05118X0.05906*%
%ADD18R,0.10630X0.06299*%
%ADD19C,0.08858*%
%ADD20C,0.05000*%
%ADD21C,0.01000*%
%ADD22C,0.03200*%
%ADD23C,0.02400*%
%ADD24C,0.01600*%
%ADD25C,0.01200*%
D10*
X0015380Y0032555D02*
X0192545Y0032555D01*
X0192783Y0032558D01*
X0193021Y0032566D01*
X0193258Y0032581D01*
X0193495Y0032601D01*
X0193731Y0032627D01*
X0193967Y0032658D01*
X0194202Y0032695D01*
X0194436Y0032738D01*
X0194669Y0032787D01*
X0194901Y0032841D01*
X0195131Y0032901D01*
X0195360Y0032966D01*
X0195587Y0033037D01*
X0195812Y0033113D01*
X0196035Y0033195D01*
X0196257Y0033282D01*
X0196476Y0033374D01*
X0196693Y0033472D01*
X0196907Y0033574D01*
X0197119Y0033682D01*
X0197329Y0033796D01*
X0197535Y0033914D01*
X0197739Y0034037D01*
X0197939Y0034165D01*
X0198136Y0034297D01*
X0198331Y0034435D01*
X0198521Y0034577D01*
X0198709Y0034724D01*
X0198892Y0034875D01*
X0199072Y0035030D01*
X0199248Y0035190D01*
X0199420Y0035354D01*
X0199589Y0035523D01*
X0199753Y0035695D01*
X0199913Y0035871D01*
X0200068Y0036051D01*
X0200219Y0036234D01*
X0200366Y0036422D01*
X0200508Y0036612D01*
X0200646Y0036807D01*
X0200778Y0037004D01*
X0200906Y0037204D01*
X0201029Y0037408D01*
X0201147Y0037614D01*
X0201261Y0037824D01*
X0201369Y0038036D01*
X0201471Y0038250D01*
X0201569Y0038467D01*
X0201661Y0038686D01*
X0201748Y0038908D01*
X0201830Y0039131D01*
X0201906Y0039356D01*
X0201977Y0039583D01*
X0202042Y0039812D01*
X0202102Y0040042D01*
X0202156Y0040274D01*
X0202205Y0040507D01*
X0202248Y0040741D01*
X0202285Y0040976D01*
X0202316Y0041212D01*
X0202342Y0041448D01*
X0202362Y0041685D01*
X0202377Y0041922D01*
X0202385Y0042160D01*
X0202388Y0042398D01*
X0202387Y0042398D02*
X0202387Y0219563D01*
X0202388Y0219563D02*
X0202385Y0219801D01*
X0202377Y0220039D01*
X0202362Y0220276D01*
X0202342Y0220513D01*
X0202316Y0220749D01*
X0202285Y0220985D01*
X0202248Y0221220D01*
X0202205Y0221454D01*
X0202156Y0221687D01*
X0202102Y0221919D01*
X0202042Y0222149D01*
X0201977Y0222378D01*
X0201906Y0222605D01*
X0201830Y0222830D01*
X0201748Y0223053D01*
X0201661Y0223275D01*
X0201569Y0223494D01*
X0201471Y0223711D01*
X0201369Y0223925D01*
X0201261Y0224137D01*
X0201147Y0224347D01*
X0201029Y0224553D01*
X0200906Y0224757D01*
X0200778Y0224957D01*
X0200646Y0225154D01*
X0200508Y0225349D01*
X0200366Y0225539D01*
X0200219Y0225727D01*
X0200068Y0225910D01*
X0199913Y0226090D01*
X0199753Y0226266D01*
X0199589Y0226438D01*
X0199420Y0226607D01*
X0199248Y0226771D01*
X0199072Y0226931D01*
X0198892Y0227086D01*
X0198709Y0227237D01*
X0198521Y0227384D01*
X0198331Y0227526D01*
X0198136Y0227664D01*
X0197939Y0227796D01*
X0197739Y0227924D01*
X0197535Y0228047D01*
X0197329Y0228165D01*
X0197119Y0228279D01*
X0196907Y0228387D01*
X0196693Y0228489D01*
X0196476Y0228587D01*
X0196257Y0228679D01*
X0196035Y0228766D01*
X0195812Y0228848D01*
X0195587Y0228924D01*
X0195360Y0228995D01*
X0195131Y0229060D01*
X0194901Y0229120D01*
X0194669Y0229174D01*
X0194436Y0229223D01*
X0194202Y0229266D01*
X0193967Y0229303D01*
X0193731Y0229334D01*
X0193495Y0229360D01*
X0193258Y0229380D01*
X0193021Y0229395D01*
X0192783Y0229403D01*
X0192545Y0229406D01*
X0015380Y0229406D01*
X0015142Y0229403D01*
X0014904Y0229395D01*
X0014667Y0229380D01*
X0014430Y0229360D01*
X0014194Y0229334D01*
X0013958Y0229303D01*
X0013723Y0229266D01*
X0013489Y0229223D01*
X0013256Y0229174D01*
X0013024Y0229120D01*
X0012794Y0229060D01*
X0012565Y0228995D01*
X0012338Y0228924D01*
X0012113Y0228848D01*
X0011890Y0228766D01*
X0011668Y0228679D01*
X0011449Y0228587D01*
X0011232Y0228489D01*
X0011018Y0228387D01*
X0010806Y0228279D01*
X0010596Y0228165D01*
X0010390Y0228047D01*
X0010186Y0227924D01*
X0009986Y0227796D01*
X0009789Y0227664D01*
X0009594Y0227526D01*
X0009404Y0227384D01*
X0009216Y0227237D01*
X0009033Y0227086D01*
X0008853Y0226931D01*
X0008677Y0226771D01*
X0008505Y0226607D01*
X0008336Y0226438D01*
X0008172Y0226266D01*
X0008012Y0226090D01*
X0007857Y0225910D01*
X0007706Y0225727D01*
X0007559Y0225539D01*
X0007417Y0225349D01*
X0007279Y0225154D01*
X0007147Y0224957D01*
X0007019Y0224757D01*
X0006896Y0224553D01*
X0006778Y0224347D01*
X0006664Y0224137D01*
X0006556Y0223925D01*
X0006454Y0223711D01*
X0006356Y0223494D01*
X0006264Y0223275D01*
X0006177Y0223053D01*
X0006095Y0222830D01*
X0006019Y0222605D01*
X0005948Y0222378D01*
X0005883Y0222149D01*
X0005823Y0221919D01*
X0005769Y0221687D01*
X0005720Y0221454D01*
X0005677Y0221220D01*
X0005640Y0220985D01*
X0005609Y0220749D01*
X0005583Y0220513D01*
X0005563Y0220276D01*
X0005548Y0220039D01*
X0005540Y0219801D01*
X0005537Y0219563D01*
X0005537Y0042398D01*
X0005540Y0042160D01*
X0005548Y0041922D01*
X0005563Y0041685D01*
X0005583Y0041448D01*
X0005609Y0041212D01*
X0005640Y0040976D01*
X0005677Y0040741D01*
X0005720Y0040507D01*
X0005769Y0040274D01*
X0005823Y0040042D01*
X0005883Y0039812D01*
X0005948Y0039583D01*
X0006019Y0039356D01*
X0006095Y0039131D01*
X0006177Y0038908D01*
X0006264Y0038686D01*
X0006356Y0038467D01*
X0006454Y0038250D01*
X0006556Y0038036D01*
X0006664Y0037824D01*
X0006778Y0037614D01*
X0006896Y0037408D01*
X0007019Y0037204D01*
X0007147Y0037004D01*
X0007279Y0036807D01*
X0007417Y0036612D01*
X0007559Y0036422D01*
X0007706Y0036234D01*
X0007857Y0036051D01*
X0008012Y0035871D01*
X0008172Y0035695D01*
X0008336Y0035523D01*
X0008505Y0035354D01*
X0008677Y0035190D01*
X0008853Y0035030D01*
X0009033Y0034875D01*
X0009216Y0034724D01*
X0009404Y0034577D01*
X0009594Y0034435D01*
X0009789Y0034297D01*
X0009986Y0034165D01*
X0010186Y0034037D01*
X0010390Y0033914D01*
X0010596Y0033796D01*
X0010806Y0033682D01*
X0011018Y0033574D01*
X0011232Y0033472D01*
X0011449Y0033374D01*
X0011668Y0033282D01*
X0011890Y0033195D01*
X0012113Y0033113D01*
X0012338Y0033037D01*
X0012565Y0032966D01*
X0012794Y0032901D01*
X0013024Y0032841D01*
X0013256Y0032787D01*
X0013489Y0032738D01*
X0013723Y0032695D01*
X0013958Y0032658D01*
X0014194Y0032627D01*
X0014430Y0032601D01*
X0014667Y0032581D01*
X0014904Y0032566D01*
X0015142Y0032558D01*
X0015380Y0032555D01*
D11*
X0084274Y0113791D02*
X0088886Y0118403D01*
X0098232Y0118403D01*
X0100982Y0118403D02*
X0095482Y0118403D01*
X0095482Y0113403D02*
X0100982Y0113403D01*
X0100982Y0108403D02*
X0095482Y0108403D01*
X0095482Y0123403D02*
X0100982Y0123403D01*
X0115167Y0123403D02*
X0120667Y0123403D01*
X0120667Y0118403D02*
X0115167Y0118403D01*
X0115167Y0113403D02*
X0120667Y0113403D01*
X0120667Y0108403D02*
X0115167Y0108403D01*
X0130874Y0109563D02*
X0132134Y0108303D01*
X0132134Y0100503D01*
X0139614Y0100503D02*
X0140074Y0100963D01*
X0140074Y0109563D01*
D12*
X0108074Y0115903D03*
D13*
X0135474Y0152653D03*
X0135474Y0161953D03*
D14*
X0123524Y0141303D03*
X0097424Y0141303D03*
D15*
X0084074Y0136603D03*
X0084074Y0161603D03*
D16*
X0130874Y0117043D03*
X0130874Y0109563D03*
X0140074Y0109563D03*
X0140074Y0117043D03*
X0149400Y0117047D03*
X0149400Y0109567D03*
X0149400Y0130867D03*
X0149400Y0138347D03*
X0086274Y0104643D03*
X0086274Y0097163D03*
D17*
X0131620Y0130387D03*
X0139101Y0130387D03*
X0139614Y0100503D03*
X0132134Y0100503D03*
D18*
X0084274Y0113791D03*
X0084274Y0124815D03*
D19*
X0031566Y0111114D02*
X0022708Y0111114D01*
X0022708Y0095366D02*
X0031566Y0095366D01*
X0031566Y0138640D02*
X0022708Y0138640D01*
X0022708Y0154388D02*
X0031566Y0154388D01*
D20*
X0075137Y0113555D02*
X0084038Y0113555D01*
X0084274Y0113791D01*
X0075137Y0113555D02*
X0056948Y0095366D01*
X0027137Y0095366D01*
D21*
X0010868Y0031937D02*
X0004937Y0031955D01*
X0004937Y0037831D01*
X0005147Y0037184D01*
X0007259Y0034277D01*
X0010166Y0032165D01*
X0010868Y0031937D01*
X0010166Y0032165D02*
X0010166Y0032165D01*
X0009630Y0032555D02*
X0004937Y0032555D01*
X0004937Y0033554D02*
X0008255Y0033554D01*
X0007259Y0034277D02*
X0007259Y0034277D01*
X0007059Y0034552D02*
X0004937Y0034552D01*
X0004937Y0035551D02*
X0006334Y0035551D01*
X0005609Y0036549D02*
X0004937Y0036549D01*
X0004937Y0037548D02*
X0005029Y0037548D01*
X0007946Y0038610D02*
X0007140Y0041093D01*
X0007037Y0042398D01*
X0007037Y0128555D01*
X0016337Y0128555D01*
X0016337Y0076355D01*
X0162137Y0076355D01*
X0162137Y0174155D01*
X0012737Y0174155D01*
X0012737Y0145355D01*
X0016337Y0145355D01*
X0016337Y0130955D01*
X0007037Y0130955D01*
X0007037Y0219563D01*
X0007140Y0220868D01*
X0007946Y0223350D01*
X0009480Y0225462D01*
X0011592Y0226996D01*
X0014074Y0227803D01*
X0015380Y0227906D01*
X0192545Y0227906D01*
X0193850Y0227803D01*
X0196332Y0226996D01*
X0198444Y0225462D01*
X0199978Y0223350D01*
X0200785Y0220868D01*
X0200887Y0219563D01*
X0200887Y0042398D01*
X0200785Y0041093D01*
X0199978Y0038610D01*
X0198444Y0036499D01*
X0196332Y0034964D01*
X0193850Y0034158D01*
X0192545Y0034055D01*
X0015380Y0034055D01*
X0014074Y0034158D01*
X0011592Y0034964D01*
X0009480Y0036499D01*
X0007946Y0038610D01*
X0007993Y0038546D02*
X0199932Y0038546D01*
X0200282Y0039545D02*
X0007643Y0039545D01*
X0007318Y0040543D02*
X0200606Y0040543D01*
X0200820Y0041542D02*
X0007104Y0041542D01*
X0007037Y0042540D02*
X0200887Y0042540D01*
X0200887Y0043539D02*
X0007037Y0043539D01*
X0007037Y0044537D02*
X0200887Y0044537D01*
X0200887Y0045536D02*
X0007037Y0045536D01*
X0007037Y0046534D02*
X0200887Y0046534D01*
X0200887Y0047533D02*
X0007037Y0047533D01*
X0007037Y0048531D02*
X0200887Y0048531D01*
X0200887Y0049530D02*
X0007037Y0049530D01*
X0007037Y0050528D02*
X0200887Y0050528D01*
X0200887Y0051527D02*
X0007037Y0051527D01*
X0007037Y0052525D02*
X0200887Y0052525D01*
X0200887Y0053524D02*
X0007037Y0053524D01*
X0007037Y0054522D02*
X0200887Y0054522D01*
X0200887Y0055521D02*
X0007037Y0055521D01*
X0007037Y0056519D02*
X0200887Y0056519D01*
X0200887Y0057518D02*
X0007037Y0057518D01*
X0007037Y0058516D02*
X0200887Y0058516D01*
X0200887Y0059515D02*
X0007037Y0059515D01*
X0007037Y0060513D02*
X0200887Y0060513D01*
X0200887Y0061512D02*
X0007037Y0061512D01*
X0007037Y0062510D02*
X0200887Y0062510D01*
X0200887Y0063509D02*
X0007037Y0063509D01*
X0007037Y0064507D02*
X0200887Y0064507D01*
X0200887Y0065506D02*
X0007037Y0065506D01*
X0007037Y0066505D02*
X0200887Y0066505D01*
X0200887Y0067503D02*
X0007037Y0067503D01*
X0007037Y0068502D02*
X0200887Y0068502D01*
X0200887Y0069500D02*
X0007037Y0069500D01*
X0007037Y0070499D02*
X0200887Y0070499D01*
X0200887Y0071497D02*
X0007037Y0071497D01*
X0007037Y0072496D02*
X0200887Y0072496D01*
X0200887Y0073494D02*
X0007037Y0073494D01*
X0007037Y0074493D02*
X0200887Y0074493D01*
X0200887Y0075491D02*
X0007037Y0075491D01*
X0007037Y0076490D02*
X0016337Y0076490D01*
X0016337Y0077488D02*
X0007037Y0077488D01*
X0007037Y0078487D02*
X0016337Y0078487D01*
X0016337Y0079485D02*
X0007037Y0079485D01*
X0007037Y0080484D02*
X0016337Y0080484D01*
X0016337Y0081482D02*
X0007037Y0081482D01*
X0007037Y0082481D02*
X0016337Y0082481D01*
X0016337Y0083479D02*
X0007037Y0083479D01*
X0007037Y0084478D02*
X0016337Y0084478D01*
X0016337Y0085476D02*
X0007037Y0085476D01*
X0007037Y0086475D02*
X0016337Y0086475D01*
X0016337Y0087473D02*
X0007037Y0087473D01*
X0007037Y0088472D02*
X0016337Y0088472D01*
X0016337Y0089470D02*
X0007037Y0089470D01*
X0007037Y0090469D02*
X0016337Y0090469D01*
X0016337Y0091467D02*
X0007037Y0091467D01*
X0007037Y0092466D02*
X0016337Y0092466D01*
X0016337Y0093464D02*
X0007037Y0093464D01*
X0007037Y0094463D02*
X0016337Y0094463D01*
X0016337Y0095461D02*
X0007037Y0095461D01*
X0007037Y0096460D02*
X0016337Y0096460D01*
X0016337Y0097458D02*
X0007037Y0097458D01*
X0007037Y0098457D02*
X0016337Y0098457D01*
X0016337Y0099455D02*
X0007037Y0099455D01*
X0007037Y0100454D02*
X0016337Y0100454D01*
X0016337Y0101452D02*
X0007037Y0101452D01*
X0007037Y0102451D02*
X0016337Y0102451D01*
X0016337Y0103449D02*
X0007037Y0103449D01*
X0007037Y0104448D02*
X0016337Y0104448D01*
X0015737Y0104555D02*
X0015737Y0145355D01*
X0087737Y0145355D01*
X0092537Y0150155D01*
X0102137Y0150155D01*
X0105137Y0147155D01*
X0105137Y0135155D01*
X0102137Y0132155D01*
X0097937Y0132155D01*
X0092537Y0126755D01*
X0092537Y0121355D01*
X0091885Y0120703D01*
X0090748Y0120703D01*
X0090789Y0120744D01*
X0090987Y0121086D01*
X0091089Y0121468D01*
X0091089Y0124315D01*
X0084774Y0124315D01*
X0084774Y0125315D01*
X0083774Y0125315D01*
X0083774Y0129465D01*
X0078762Y0129465D01*
X0078380Y0129362D01*
X0078038Y0129165D01*
X0077759Y0128886D01*
X0077561Y0128544D01*
X0077459Y0128162D01*
X0077459Y0125315D01*
X0083774Y0125315D01*
X0083774Y0124315D01*
X0077459Y0124315D01*
X0077459Y0121468D01*
X0077561Y0121086D01*
X0077759Y0120744D01*
X0078038Y0120465D01*
X0078380Y0120268D01*
X0078762Y0120165D01*
X0083774Y0120165D01*
X0083774Y0124315D01*
X0084774Y0124315D01*
X0084774Y0120165D01*
X0087395Y0120165D01*
X0086185Y0118955D01*
X0077537Y0118955D01*
X0075137Y0121355D01*
X0053537Y0121355D01*
X0036737Y0104555D01*
X0015737Y0104555D01*
X0015737Y0105446D02*
X0020964Y0105446D01*
X0021319Y0105331D02*
X0020432Y0105619D01*
X0019600Y0106043D01*
X0018845Y0106592D01*
X0018185Y0107252D01*
X0017637Y0108007D01*
X0017213Y0108838D01*
X0016925Y0109726D01*
X0016784Y0110614D01*
X0026637Y0110614D01*
X0027637Y0110614D01*
X0027637Y0105185D01*
X0032033Y0105185D01*
X0032955Y0105331D01*
X0033842Y0105619D01*
X0034674Y0106043D01*
X0035429Y0106592D01*
X0036089Y0107252D01*
X0036637Y0108007D01*
X0037061Y0108838D01*
X0037349Y0109726D01*
X0037490Y0110614D01*
X0027637Y0110614D01*
X0027637Y0111614D01*
X0037490Y0111614D01*
X0037349Y0112503D01*
X0037061Y0113390D01*
X0036637Y0114222D01*
X0036089Y0114977D01*
X0035429Y0115637D01*
X0034674Y0116185D01*
X0033842Y0116609D01*
X0032955Y0116897D01*
X0032033Y0117043D01*
X0027637Y0117043D01*
X0027637Y0111614D01*
X0026637Y0111614D01*
X0026637Y0110614D01*
X0026637Y0105185D01*
X0022241Y0105185D01*
X0021319Y0105331D01*
X0019047Y0106445D02*
X0015737Y0106445D01*
X0016337Y0106445D02*
X0007037Y0106445D01*
X0007037Y0107443D02*
X0016337Y0107443D01*
X0015737Y0107443D02*
X0018046Y0107443D01*
X0017415Y0108442D02*
X0015737Y0108442D01*
X0016337Y0108442D02*
X0007037Y0108442D01*
X0007037Y0109440D02*
X0016337Y0109440D01*
X0015737Y0109440D02*
X0017017Y0109440D01*
X0016812Y0110439D02*
X0015737Y0110439D01*
X0016337Y0110439D02*
X0007037Y0110439D01*
X0007037Y0111438D02*
X0016337Y0111438D01*
X0016784Y0111614D02*
X0026637Y0111614D01*
X0026637Y0117043D01*
X0022241Y0117043D01*
X0021319Y0116897D01*
X0020432Y0116609D01*
X0019600Y0116185D01*
X0018845Y0115637D01*
X0018185Y0114977D01*
X0017637Y0114222D01*
X0017213Y0113390D01*
X0016925Y0112503D01*
X0016784Y0111614D01*
X0016914Y0112436D02*
X0015737Y0112436D01*
X0016337Y0112436D02*
X0007037Y0112436D01*
X0007037Y0113435D02*
X0016337Y0113435D01*
X0015737Y0113435D02*
X0017236Y0113435D01*
X0017790Y0114433D02*
X0015737Y0114433D01*
X0016337Y0114433D02*
X0007037Y0114433D01*
X0007037Y0115432D02*
X0016337Y0115432D01*
X0015737Y0115432D02*
X0018640Y0115432D01*
X0020081Y0116430D02*
X0015737Y0116430D01*
X0016337Y0116430D02*
X0007037Y0116430D01*
X0007037Y0117429D02*
X0016337Y0117429D01*
X0015737Y0117429D02*
X0049610Y0117429D01*
X0048612Y0116430D02*
X0034193Y0116430D01*
X0035634Y0115432D02*
X0047613Y0115432D01*
X0046615Y0114433D02*
X0036484Y0114433D01*
X0037038Y0113435D02*
X0045616Y0113435D01*
X0044618Y0112436D02*
X0037360Y0112436D01*
X0037462Y0110439D02*
X0042621Y0110439D01*
X0043619Y0111438D02*
X0027637Y0111438D01*
X0027637Y0112436D02*
X0026637Y0112436D01*
X0026637Y0111438D02*
X0015737Y0111438D01*
X0016337Y0105446D02*
X0007037Y0105446D01*
X0007037Y0118427D02*
X0016337Y0118427D01*
X0015737Y0118427D02*
X0050609Y0118427D01*
X0051607Y0119426D02*
X0015737Y0119426D01*
X0016337Y0119426D02*
X0007037Y0119426D01*
X0007037Y0120424D02*
X0016337Y0120424D01*
X0015737Y0120424D02*
X0052606Y0120424D01*
X0041622Y0109440D02*
X0037257Y0109440D01*
X0036859Y0108442D02*
X0040624Y0108442D01*
X0039625Y0107443D02*
X0036228Y0107443D01*
X0035227Y0106445D02*
X0038627Y0106445D01*
X0037628Y0105446D02*
X0033310Y0105446D01*
X0027637Y0105446D02*
X0026637Y0105446D01*
X0026637Y0106445D02*
X0027637Y0106445D01*
X0027637Y0107443D02*
X0026637Y0107443D01*
X0026637Y0108442D02*
X0027637Y0108442D01*
X0027637Y0109440D02*
X0026637Y0109440D01*
X0026637Y0110439D02*
X0027637Y0110439D01*
X0027637Y0113435D02*
X0026637Y0113435D01*
X0026637Y0114433D02*
X0027637Y0114433D01*
X0027637Y0115432D02*
X0026637Y0115432D01*
X0026637Y0116430D02*
X0027637Y0116430D01*
X0027737Y0119555D02*
X0009737Y0119555D01*
X0009737Y0132755D01*
X0021963Y0132755D01*
X0022241Y0132711D01*
X0026637Y0132711D01*
X0026637Y0132755D01*
X0027637Y0132755D01*
X0027637Y0132711D01*
X0027737Y0132711D01*
X0027737Y0119555D01*
X0027737Y0120424D02*
X0009737Y0120424D01*
X0009737Y0121423D02*
X0027737Y0121423D01*
X0027737Y0122421D02*
X0009737Y0122421D01*
X0009737Y0123420D02*
X0027737Y0123420D01*
X0027737Y0124418D02*
X0009737Y0124418D01*
X0009737Y0125417D02*
X0027737Y0125417D01*
X0027737Y0126415D02*
X0009737Y0126415D01*
X0009737Y0127414D02*
X0027737Y0127414D01*
X0027737Y0128412D02*
X0009737Y0128412D01*
X0009737Y0129411D02*
X0027737Y0129411D01*
X0027737Y0130409D02*
X0009737Y0130409D01*
X0009737Y0131408D02*
X0027737Y0131408D01*
X0027737Y0132406D02*
X0009737Y0132406D01*
X0007037Y0132406D02*
X0016337Y0132406D01*
X0015737Y0132406D02*
X0077259Y0132406D01*
X0077259Y0131408D02*
X0015737Y0131408D01*
X0016337Y0131408D02*
X0007037Y0131408D01*
X0007037Y0133405D02*
X0016337Y0133405D01*
X0015737Y0133405D02*
X0019923Y0133405D01*
X0019600Y0133569D02*
X0020432Y0133145D01*
X0021319Y0132857D01*
X0022241Y0132711D01*
X0026637Y0132711D01*
X0026637Y0138140D01*
X0027637Y0138140D01*
X0027637Y0132711D01*
X0032033Y0132711D01*
X0032955Y0132857D01*
X0033842Y0133145D01*
X0034674Y0133569D01*
X0035429Y0134118D01*
X0036089Y0134778D01*
X0036637Y0135533D01*
X0037061Y0136364D01*
X0037349Y0137252D01*
X0037490Y0138140D01*
X0027637Y0138140D01*
X0027637Y0139140D01*
X0037490Y0139140D01*
X0037349Y0140029D01*
X0037061Y0140916D01*
X0036637Y0141748D01*
X0036089Y0142503D01*
X0035429Y0143163D01*
X0034674Y0143711D01*
X0033842Y0144135D01*
X0032955Y0144423D01*
X0032033Y0144569D01*
X0027637Y0144569D01*
X0027637Y0139140D01*
X0026637Y0139140D01*
X0026637Y0138140D01*
X0016784Y0138140D01*
X0016925Y0137252D01*
X0017213Y0136364D01*
X0017637Y0135533D01*
X0018185Y0134778D01*
X0018845Y0134118D01*
X0019600Y0133569D01*
X0018560Y0134403D02*
X0015737Y0134403D01*
X0016337Y0134403D02*
X0007037Y0134403D01*
X0007037Y0135402D02*
X0016337Y0135402D01*
X0015737Y0135402D02*
X0017732Y0135402D01*
X0017201Y0136400D02*
X0015737Y0136400D01*
X0016337Y0136400D02*
X0007037Y0136400D01*
X0007037Y0137399D02*
X0016337Y0137399D01*
X0016901Y0137399D02*
X0015737Y0137399D01*
X0015737Y0138397D02*
X0026637Y0138397D01*
X0026637Y0139140D02*
X0016784Y0139140D01*
X0016925Y0140029D01*
X0017213Y0140916D01*
X0017637Y0141748D01*
X0018185Y0142503D01*
X0018845Y0143163D01*
X0019600Y0143711D01*
X0020432Y0144135D01*
X0021319Y0144423D01*
X0022241Y0144569D01*
X0026637Y0144569D01*
X0026637Y0139140D01*
X0026637Y0139396D02*
X0027637Y0139396D01*
X0027637Y0140394D02*
X0026637Y0140394D01*
X0026637Y0141393D02*
X0027637Y0141393D01*
X0027637Y0142391D02*
X0026637Y0142391D01*
X0026637Y0143390D02*
X0027637Y0143390D01*
X0027637Y0144388D02*
X0026637Y0144388D01*
X0026637Y0148459D02*
X0022241Y0148459D01*
X0021319Y0148605D01*
X0020432Y0148893D01*
X0019600Y0149317D01*
X0018845Y0149866D01*
X0018185Y0150526D01*
X0017637Y0151281D01*
X0017213Y0152112D01*
X0016925Y0153000D01*
X0016784Y0153888D01*
X0026637Y0153888D01*
X0027637Y0153888D01*
X0027637Y0148459D01*
X0032033Y0148459D01*
X0032955Y0148605D01*
X0033842Y0148893D01*
X0034674Y0149317D01*
X0035429Y0149866D01*
X0036089Y0150526D01*
X0036637Y0151281D01*
X0037061Y0152112D01*
X0037349Y0153000D01*
X0037490Y0153888D01*
X0027637Y0153888D01*
X0027637Y0154888D01*
X0037490Y0154888D01*
X0037349Y0155777D01*
X0037061Y0156664D01*
X0036637Y0157496D01*
X0036089Y0158251D01*
X0035429Y0158911D01*
X0034674Y0159459D01*
X0033842Y0159883D01*
X0032955Y0160171D01*
X0032033Y0160317D01*
X0027637Y0160317D01*
X0027637Y0154888D01*
X0026637Y0154888D01*
X0026637Y0153888D01*
X0026637Y0148459D01*
X0026637Y0149381D02*
X0027637Y0149381D01*
X0027637Y0150379D02*
X0026637Y0150379D01*
X0026637Y0151378D02*
X0027637Y0151378D01*
X0027637Y0152376D02*
X0026637Y0152376D01*
X0026637Y0153375D02*
X0027637Y0153375D01*
X0027637Y0154373D02*
X0121355Y0154373D01*
X0121337Y0154355D02*
X0078737Y0154355D01*
X0072737Y0148355D01*
X0015737Y0148355D01*
X0015737Y0168155D01*
X0094337Y0168155D01*
X0094337Y0165755D01*
X0144737Y0165755D01*
X0144737Y0157955D01*
X0124937Y0157955D01*
X0121337Y0154355D01*
X0122354Y0155372D02*
X0090291Y0155372D01*
X0090310Y0155383D02*
X0090589Y0155662D01*
X0090787Y0156004D01*
X0090889Y0156386D01*
X0090889Y0161103D01*
X0084574Y0161103D01*
X0084574Y0155083D01*
X0089586Y0155083D01*
X0089968Y0155186D01*
X0090310Y0155383D01*
X0090885Y0156371D02*
X0123352Y0156371D01*
X0124351Y0157369D02*
X0090889Y0157369D01*
X0090889Y0158368D02*
X0144737Y0158368D01*
X0144737Y0159366D02*
X0144109Y0159366D01*
X0144172Y0159474D02*
X0144274Y0159856D01*
X0144274Y0161503D01*
X0135924Y0161503D01*
X0135924Y0158553D01*
X0142971Y0158553D01*
X0143353Y0158655D01*
X0143695Y0158853D01*
X0143974Y0159132D01*
X0144172Y0159474D01*
X0144274Y0160365D02*
X0144737Y0160365D01*
X0144737Y0161363D02*
X0144274Y0161363D01*
X0144274Y0162403D02*
X0144274Y0164051D01*
X0144172Y0164432D01*
X0143974Y0164774D01*
X0143695Y0165053D01*
X0143353Y0165251D01*
X0142971Y0165353D01*
X0135924Y0165353D01*
X0135924Y0162403D01*
X0144274Y0162403D01*
X0144737Y0162362D02*
X0135924Y0162362D01*
X0135924Y0162403D02*
X0135924Y0161503D01*
X0135024Y0161503D01*
X0135024Y0158553D01*
X0127977Y0158553D01*
X0127595Y0158655D01*
X0127253Y0158853D01*
X0126974Y0159132D01*
X0126776Y0159474D01*
X0126674Y0159856D01*
X0126674Y0161503D01*
X0135024Y0161503D01*
X0135024Y0162403D01*
X0126674Y0162403D01*
X0126674Y0164051D01*
X0126776Y0164432D01*
X0126974Y0164774D01*
X0127253Y0165053D01*
X0127595Y0165251D01*
X0127977Y0165353D01*
X0135024Y0165353D01*
X0135024Y0162403D01*
X0135924Y0162403D01*
X0135024Y0162362D02*
X0090889Y0162362D01*
X0090889Y0162103D02*
X0090889Y0166820D01*
X0090787Y0167202D01*
X0090589Y0167544D01*
X0090310Y0167823D01*
X0089968Y0168021D01*
X0089586Y0168123D01*
X0084574Y0168123D01*
X0084574Y0162103D01*
X0090889Y0162103D01*
X0090889Y0163360D02*
X0126674Y0163360D01*
X0126757Y0164359D02*
X0090889Y0164359D01*
X0090889Y0165357D02*
X0144737Y0165357D01*
X0144737Y0164359D02*
X0144191Y0164359D01*
X0144274Y0163360D02*
X0144737Y0163360D01*
X0143537Y0156155D02*
X0143537Y0125555D01*
X0135737Y0125555D01*
X0135737Y0134555D01*
X0121337Y0134555D01*
X0121337Y0121955D01*
X0114737Y0121955D01*
X0114737Y0125555D01*
X0115337Y0147155D01*
X0126737Y0156155D01*
X0143537Y0156155D01*
X0143537Y0155372D02*
X0125745Y0155372D01*
X0124480Y0154373D02*
X0143537Y0154373D01*
X0143537Y0153375D02*
X0123216Y0153375D01*
X0121951Y0152376D02*
X0143537Y0152376D01*
X0143537Y0151378D02*
X0120686Y0151378D01*
X0119421Y0150379D02*
X0143537Y0150379D01*
X0143537Y0149381D02*
X0118156Y0149381D01*
X0116892Y0148382D02*
X0143537Y0148382D01*
X0143537Y0147384D02*
X0115627Y0147384D01*
X0115316Y0146385D02*
X0143537Y0146385D01*
X0143537Y0145387D02*
X0115288Y0145387D01*
X0115260Y0144388D02*
X0143537Y0144388D01*
X0143537Y0143390D02*
X0115232Y0143390D01*
X0115205Y0142391D02*
X0143537Y0142391D01*
X0143537Y0141393D02*
X0115177Y0141393D01*
X0115149Y0140394D02*
X0143537Y0140394D01*
X0143537Y0139396D02*
X0115121Y0139396D01*
X0115094Y0138397D02*
X0143537Y0138397D01*
X0143537Y0137399D02*
X0115066Y0137399D01*
X0115038Y0136400D02*
X0143537Y0136400D01*
X0143537Y0135402D02*
X0115011Y0135402D01*
X0114983Y0134403D02*
X0121337Y0134403D01*
X0121337Y0133405D02*
X0114955Y0133405D01*
X0114927Y0132406D02*
X0121337Y0132406D01*
X0121337Y0131408D02*
X0114900Y0131408D01*
X0114872Y0130409D02*
X0121337Y0130409D01*
X0121337Y0129411D02*
X0114844Y0129411D01*
X0114816Y0128412D02*
X0121337Y0128412D01*
X0121337Y0127414D02*
X0114789Y0127414D01*
X0114761Y0126415D02*
X0121337Y0126415D01*
X0121337Y0125417D02*
X0114737Y0125417D01*
X0114737Y0124418D02*
X0121337Y0124418D01*
X0121337Y0123420D02*
X0114737Y0123420D01*
X0114737Y0122421D02*
X0121337Y0122421D01*
X0122733Y0120155D02*
X0123137Y0120155D01*
X0125537Y0122555D01*
X0153137Y0122555D01*
X0153137Y0120886D01*
X0152932Y0121004D01*
X0152550Y0121106D01*
X0149900Y0121106D01*
X0149900Y0117547D01*
X0148900Y0117547D01*
X0148900Y0116547D01*
X0144947Y0116547D01*
X0144947Y0114291D01*
X0144984Y0114155D01*
X0144491Y0114155D01*
X0144527Y0114287D01*
X0144527Y0116543D01*
X0140574Y0116543D01*
X0140574Y0117543D01*
X0144527Y0117543D01*
X0144527Y0119800D01*
X0144425Y0120181D01*
X0144227Y0120523D01*
X0143948Y0120803D01*
X0143606Y0121000D01*
X0143224Y0121102D01*
X0140574Y0121102D01*
X0140574Y0117543D01*
X0139574Y0117543D01*
X0139574Y0116543D01*
X0135621Y0116543D01*
X0135621Y0114287D01*
X0135657Y0114155D01*
X0135291Y0114155D01*
X0135327Y0114287D01*
X0135327Y0116543D01*
X0131374Y0116543D01*
X0131374Y0117543D01*
X0135327Y0117543D01*
X0135327Y0119800D01*
X0135225Y0120181D01*
X0135027Y0120523D01*
X0134748Y0120803D01*
X0134406Y0121000D01*
X0134024Y0121102D01*
X0131374Y0121102D01*
X0131374Y0117543D01*
X0130374Y0117543D01*
X0130374Y0116543D01*
X0126421Y0116543D01*
X0126421Y0114287D01*
X0126457Y0114155D01*
X0125537Y0114155D01*
X0123137Y0116555D01*
X0122637Y0116555D01*
X0122764Y0116682D01*
X0123059Y0117124D01*
X0123263Y0117616D01*
X0123366Y0118137D01*
X0123366Y0118303D01*
X0118017Y0118303D01*
X0118017Y0118503D01*
X0123366Y0118503D01*
X0123366Y0118669D01*
X0123263Y0119191D01*
X0123059Y0119682D01*
X0122764Y0120124D01*
X0122733Y0120155D01*
X0123406Y0120424D02*
X0126664Y0120424D01*
X0126721Y0120523D02*
X0126523Y0120181D01*
X0126421Y0119800D01*
X0126421Y0117543D01*
X0130374Y0117543D01*
X0130374Y0121102D01*
X0127724Y0121102D01*
X0127342Y0121000D01*
X0127000Y0120803D01*
X0126721Y0120523D01*
X0126421Y0119426D02*
X0123165Y0119426D01*
X0123185Y0117429D02*
X0130374Y0117429D01*
X0130374Y0118427D02*
X0131374Y0118427D01*
X0131374Y0117429D02*
X0139574Y0117429D01*
X0139574Y0117543D02*
X0135621Y0117543D01*
X0135621Y0119800D01*
X0135723Y0120181D01*
X0135921Y0120523D01*
X0136200Y0120803D01*
X0136542Y0121000D01*
X0136924Y0121102D01*
X0139574Y0121102D01*
X0139574Y0117543D01*
X0139574Y0118427D02*
X0140574Y0118427D01*
X0140574Y0117429D02*
X0148900Y0117429D01*
X0148900Y0117547D02*
X0144947Y0117547D01*
X0144947Y0119804D01*
X0145049Y0120185D01*
X0145247Y0120527D01*
X0145526Y0120807D01*
X0145868Y0121004D01*
X0146250Y0121106D01*
X0148900Y0121106D01*
X0148900Y0117547D01*
X0148900Y0118427D02*
X0149900Y0118427D01*
X0149900Y0119426D02*
X0148900Y0119426D01*
X0148900Y0120424D02*
X0149900Y0120424D01*
X0153137Y0121423D02*
X0124405Y0121423D01*
X0125403Y0122421D02*
X0153137Y0122421D01*
X0145187Y0120424D02*
X0144284Y0120424D01*
X0144527Y0119426D02*
X0144947Y0119426D01*
X0144947Y0118427D02*
X0144527Y0118427D01*
X0144527Y0116430D02*
X0144947Y0116430D01*
X0144947Y0115432D02*
X0144527Y0115432D01*
X0144527Y0114433D02*
X0144947Y0114433D01*
X0140574Y0119426D02*
X0139574Y0119426D01*
X0139574Y0120424D02*
X0140574Y0120424D01*
X0135864Y0120424D02*
X0135084Y0120424D01*
X0135327Y0119426D02*
X0135621Y0119426D01*
X0135621Y0118427D02*
X0135327Y0118427D01*
X0135327Y0116430D02*
X0135621Y0116430D01*
X0135621Y0115432D02*
X0135327Y0115432D01*
X0135327Y0114433D02*
X0135621Y0114433D01*
X0131374Y0119426D02*
X0130374Y0119426D01*
X0130374Y0120424D02*
X0131374Y0120424D01*
X0126421Y0118427D02*
X0118017Y0118427D01*
X0123262Y0116430D02*
X0126421Y0116430D01*
X0126421Y0115432D02*
X0124261Y0115432D01*
X0125259Y0114433D02*
X0126421Y0114433D01*
X0135737Y0126415D02*
X0143537Y0126415D01*
X0143537Y0127414D02*
X0135737Y0127414D01*
X0135737Y0128412D02*
X0143537Y0128412D01*
X0143537Y0129411D02*
X0135737Y0129411D01*
X0135737Y0130409D02*
X0143537Y0130409D01*
X0143537Y0131408D02*
X0135737Y0131408D01*
X0135737Y0132406D02*
X0143537Y0132406D01*
X0143537Y0133405D02*
X0135737Y0133405D01*
X0135737Y0134403D02*
X0143537Y0134403D01*
X0162137Y0134403D02*
X0200887Y0134403D01*
X0200887Y0133405D02*
X0162137Y0133405D01*
X0162137Y0132406D02*
X0200887Y0132406D01*
X0200887Y0131408D02*
X0162137Y0131408D01*
X0162137Y0130409D02*
X0200887Y0130409D01*
X0200887Y0129411D02*
X0162137Y0129411D01*
X0162137Y0128412D02*
X0200887Y0128412D01*
X0200887Y0127414D02*
X0162137Y0127414D01*
X0162137Y0126415D02*
X0200887Y0126415D01*
X0200887Y0125417D02*
X0162137Y0125417D01*
X0162137Y0124418D02*
X0200887Y0124418D01*
X0200887Y0123420D02*
X0162137Y0123420D01*
X0162137Y0122421D02*
X0200887Y0122421D01*
X0200887Y0121423D02*
X0162137Y0121423D01*
X0162137Y0120424D02*
X0200887Y0120424D01*
X0200887Y0119426D02*
X0162137Y0119426D01*
X0162137Y0118427D02*
X0200887Y0118427D01*
X0200887Y0117429D02*
X0162137Y0117429D01*
X0162137Y0116430D02*
X0200887Y0116430D01*
X0200887Y0115432D02*
X0162137Y0115432D01*
X0162137Y0114433D02*
X0200887Y0114433D01*
X0200887Y0113435D02*
X0162137Y0113435D01*
X0162137Y0112436D02*
X0200887Y0112436D01*
X0200887Y0111438D02*
X0162137Y0111438D01*
X0162137Y0110439D02*
X0200887Y0110439D01*
X0200887Y0109440D02*
X0162137Y0109440D01*
X0162137Y0108442D02*
X0200887Y0108442D01*
X0200887Y0107443D02*
X0162137Y0107443D01*
X0162137Y0106445D02*
X0200887Y0106445D01*
X0200887Y0105446D02*
X0162137Y0105446D01*
X0162137Y0104448D02*
X0200887Y0104448D01*
X0200887Y0103449D02*
X0162137Y0103449D01*
X0162137Y0102451D02*
X0200887Y0102451D01*
X0200887Y0101452D02*
X0162137Y0101452D01*
X0162137Y0100454D02*
X0200887Y0100454D01*
X0200887Y0099455D02*
X0162137Y0099455D01*
X0162137Y0098457D02*
X0200887Y0098457D01*
X0200887Y0097458D02*
X0162137Y0097458D01*
X0162137Y0096460D02*
X0200887Y0096460D01*
X0200887Y0095461D02*
X0162137Y0095461D01*
X0162137Y0094463D02*
X0200887Y0094463D01*
X0200887Y0093464D02*
X0162137Y0093464D01*
X0162137Y0092466D02*
X0200887Y0092466D01*
X0200887Y0091467D02*
X0162137Y0091467D01*
X0162137Y0090469D02*
X0200887Y0090469D01*
X0200887Y0089470D02*
X0162137Y0089470D01*
X0162137Y0088472D02*
X0200887Y0088472D01*
X0200887Y0087473D02*
X0162137Y0087473D01*
X0162137Y0086475D02*
X0200887Y0086475D01*
X0200887Y0085476D02*
X0162137Y0085476D01*
X0162137Y0084478D02*
X0200887Y0084478D01*
X0200887Y0083479D02*
X0162137Y0083479D01*
X0162137Y0082481D02*
X0200887Y0082481D01*
X0200887Y0081482D02*
X0162137Y0081482D01*
X0162137Y0080484D02*
X0200887Y0080484D01*
X0200887Y0079485D02*
X0162137Y0079485D01*
X0162137Y0078487D02*
X0200887Y0078487D01*
X0200887Y0077488D02*
X0162137Y0077488D01*
X0162137Y0076490D02*
X0200887Y0076490D01*
X0203537Y0039523D02*
X0203537Y0031355D01*
X0195341Y0031380D01*
X0197758Y0032165D01*
X0197758Y0032165D01*
X0200665Y0034277D01*
X0200665Y0034277D01*
X0200665Y0034277D01*
X0202777Y0037184D01*
X0203537Y0039523D01*
X0203537Y0038546D02*
X0203220Y0038546D01*
X0203537Y0037548D02*
X0202895Y0037548D01*
X0202777Y0037184D02*
X0202777Y0037184D01*
X0202316Y0036549D02*
X0203537Y0036549D01*
X0203537Y0035551D02*
X0201590Y0035551D01*
X0200865Y0034552D02*
X0203537Y0034552D01*
X0203537Y0033554D02*
X0199669Y0033554D01*
X0198295Y0032555D02*
X0203537Y0032555D01*
X0203537Y0031557D02*
X0195885Y0031557D01*
X0195064Y0034552D02*
X0012861Y0034552D01*
X0010785Y0035551D02*
X0197139Y0035551D01*
X0198481Y0036549D02*
X0009444Y0036549D01*
X0008718Y0037548D02*
X0199206Y0037548D01*
X0157337Y0083555D02*
X0069737Y0083555D01*
X0069737Y0094355D01*
X0075137Y0094355D01*
X0081137Y0100355D01*
X0098537Y0100355D01*
X0102737Y0104555D01*
X0102737Y0106906D01*
X0103282Y0107450D01*
X0103282Y0109356D01*
X0102737Y0109900D01*
X0102737Y0111906D01*
X0103282Y0112450D01*
X0103282Y0114356D01*
X0102737Y0114900D01*
X0102737Y0116906D01*
X0103282Y0117450D01*
X0103282Y0119356D01*
X0102737Y0119900D01*
X0102737Y0121906D01*
X0103282Y0122450D01*
X0103282Y0124356D01*
X0102737Y0124900D01*
X0102737Y0147755D01*
X0112937Y0147755D01*
X0112937Y0124426D01*
X0112867Y0124356D01*
X0112867Y0122450D01*
X0112937Y0122380D01*
X0112937Y0114426D01*
X0112867Y0114356D01*
X0112867Y0112450D01*
X0112937Y0112380D01*
X0112937Y0109426D01*
X0112867Y0109356D01*
X0112867Y0107450D01*
X0112937Y0107380D01*
X0112937Y0093755D01*
X0126133Y0093755D01*
X0129033Y0090855D01*
X0146041Y0090855D01*
X0147037Y0091851D01*
X0148941Y0093755D01*
X0157337Y0093755D01*
X0157337Y0083555D01*
X0157337Y0084478D02*
X0069737Y0084478D01*
X0069737Y0085476D02*
X0157337Y0085476D01*
X0157337Y0086475D02*
X0069737Y0086475D01*
X0069737Y0087473D02*
X0157337Y0087473D01*
X0157337Y0088472D02*
X0069737Y0088472D01*
X0069737Y0089470D02*
X0157337Y0089470D01*
X0157337Y0090469D02*
X0069737Y0090469D01*
X0069737Y0091467D02*
X0128421Y0091467D01*
X0127422Y0092466D02*
X0069737Y0092466D01*
X0069737Y0093464D02*
X0126424Y0093464D01*
X0112937Y0094463D02*
X0075245Y0094463D01*
X0076243Y0095461D02*
X0112937Y0095461D01*
X0112937Y0096460D02*
X0077242Y0096460D01*
X0078240Y0097458D02*
X0112937Y0097458D01*
X0112937Y0098457D02*
X0079239Y0098457D01*
X0080237Y0099455D02*
X0112937Y0099455D01*
X0112937Y0100454D02*
X0098636Y0100454D01*
X0099634Y0101452D02*
X0112937Y0101452D01*
X0112937Y0102451D02*
X0100633Y0102451D01*
X0101631Y0103449D02*
X0112937Y0103449D01*
X0112937Y0104448D02*
X0102630Y0104448D01*
X0102737Y0105446D02*
X0112937Y0105446D01*
X0112937Y0106445D02*
X0102737Y0106445D01*
X0103275Y0107443D02*
X0112873Y0107443D01*
X0112867Y0108442D02*
X0103282Y0108442D01*
X0103197Y0109440D02*
X0112937Y0109440D01*
X0112937Y0110439D02*
X0102737Y0110439D01*
X0102737Y0111438D02*
X0112937Y0111438D01*
X0112881Y0112436D02*
X0103267Y0112436D01*
X0103282Y0113435D02*
X0112867Y0113435D01*
X0112937Y0114433D02*
X0103204Y0114433D01*
X0102737Y0115432D02*
X0112937Y0115432D01*
X0112937Y0116430D02*
X0102737Y0116430D01*
X0103260Y0117429D02*
X0112937Y0117429D01*
X0112937Y0118427D02*
X0103282Y0118427D01*
X0103212Y0119426D02*
X0112937Y0119426D01*
X0112937Y0120424D02*
X0102737Y0120424D01*
X0102737Y0121423D02*
X0112937Y0121423D01*
X0112896Y0122421D02*
X0103252Y0122421D01*
X0103282Y0123420D02*
X0112867Y0123420D01*
X0112929Y0124418D02*
X0103219Y0124418D01*
X0102737Y0125417D02*
X0112937Y0125417D01*
X0112937Y0126415D02*
X0102737Y0126415D01*
X0102737Y0127414D02*
X0112937Y0127414D01*
X0112937Y0128412D02*
X0102737Y0128412D01*
X0102737Y0129411D02*
X0112937Y0129411D01*
X0112937Y0130409D02*
X0102737Y0130409D01*
X0102737Y0131408D02*
X0112937Y0131408D01*
X0112937Y0132406D02*
X0102737Y0132406D01*
X0102388Y0132406D02*
X0090889Y0132406D01*
X0090889Y0131408D02*
X0097190Y0131408D01*
X0096191Y0130409D02*
X0090336Y0130409D01*
X0090310Y0130383D02*
X0090589Y0130662D01*
X0090787Y0131004D01*
X0090889Y0131386D01*
X0090889Y0136103D01*
X0084574Y0136103D01*
X0084574Y0130083D01*
X0089586Y0130083D01*
X0089968Y0130186D01*
X0090310Y0130383D01*
X0089987Y0129411D02*
X0095193Y0129411D01*
X0094194Y0128412D02*
X0091022Y0128412D01*
X0090987Y0128544D02*
X0090789Y0128886D01*
X0090510Y0129165D01*
X0090168Y0129362D01*
X0089786Y0129465D01*
X0084774Y0129465D01*
X0084774Y0125315D01*
X0091089Y0125315D01*
X0091089Y0128162D01*
X0090987Y0128544D01*
X0091089Y0127414D02*
X0093196Y0127414D01*
X0092537Y0126415D02*
X0091089Y0126415D01*
X0091089Y0125417D02*
X0092537Y0125417D01*
X0092537Y0124418D02*
X0084774Y0124418D01*
X0084774Y0123420D02*
X0083774Y0123420D01*
X0083774Y0124418D02*
X0015737Y0124418D01*
X0016337Y0124418D02*
X0007037Y0124418D01*
X0007037Y0123420D02*
X0016337Y0123420D01*
X0015737Y0123420D02*
X0077459Y0123420D01*
X0077459Y0122421D02*
X0015737Y0122421D01*
X0016337Y0122421D02*
X0007037Y0122421D01*
X0007037Y0121423D02*
X0016337Y0121423D01*
X0015737Y0121423D02*
X0077471Y0121423D01*
X0078109Y0120424D02*
X0076068Y0120424D01*
X0077067Y0119426D02*
X0086656Y0119426D01*
X0084774Y0120424D02*
X0083774Y0120424D01*
X0083774Y0121423D02*
X0084774Y0121423D01*
X0084774Y0122421D02*
X0083774Y0122421D01*
X0083774Y0125417D02*
X0084774Y0125417D01*
X0084774Y0126415D02*
X0083774Y0126415D01*
X0083774Y0127414D02*
X0084774Y0127414D01*
X0084774Y0128412D02*
X0083774Y0128412D01*
X0083774Y0129411D02*
X0084774Y0129411D01*
X0084574Y0130409D02*
X0083574Y0130409D01*
X0083574Y0130083D02*
X0083574Y0136103D01*
X0084574Y0136103D01*
X0084574Y0137103D01*
X0090889Y0137103D01*
X0090889Y0141820D01*
X0090787Y0142202D01*
X0090589Y0142544D01*
X0090310Y0142823D01*
X0089968Y0143021D01*
X0089586Y0143123D01*
X0084574Y0143123D01*
X0084574Y0137103D01*
X0083574Y0137103D01*
X0083574Y0136103D01*
X0077259Y0136103D01*
X0077259Y0131386D01*
X0077361Y0131004D01*
X0077559Y0130662D01*
X0077838Y0130383D01*
X0078180Y0130186D01*
X0078562Y0130083D01*
X0083574Y0130083D01*
X0083574Y0131408D02*
X0084574Y0131408D01*
X0084574Y0132406D02*
X0083574Y0132406D01*
X0083574Y0133405D02*
X0084574Y0133405D01*
X0084574Y0134403D02*
X0083574Y0134403D01*
X0083574Y0135402D02*
X0084574Y0135402D01*
X0084574Y0136400D02*
X0092374Y0136400D01*
X0092374Y0135402D02*
X0090889Y0135402D01*
X0090889Y0134403D02*
X0092803Y0134403D01*
X0092674Y0134532D02*
X0092953Y0134253D01*
X0093295Y0134055D01*
X0093677Y0133953D01*
X0096924Y0133953D01*
X0096924Y0140803D01*
X0097924Y0140803D01*
X0097924Y0133953D01*
X0101171Y0133953D01*
X0101553Y0134055D01*
X0101895Y0134253D01*
X0102174Y0134532D01*
X0102372Y0134874D01*
X0102474Y0135256D01*
X0102474Y0140803D01*
X0097924Y0140803D01*
X0097924Y0141803D01*
X0102474Y0141803D01*
X0102474Y0147351D01*
X0102372Y0147732D01*
X0102174Y0148074D01*
X0101895Y0148353D01*
X0101553Y0148551D01*
X0101171Y0148653D01*
X0097924Y0148653D01*
X0097924Y0141803D01*
X0096924Y0141803D01*
X0096924Y0140803D01*
X0092374Y0140803D01*
X0092374Y0135256D01*
X0092476Y0134874D01*
X0092674Y0134532D01*
X0090889Y0133405D02*
X0103387Y0133405D01*
X0102737Y0133405D02*
X0112937Y0133405D01*
X0112937Y0134403D02*
X0102737Y0134403D01*
X0102045Y0134403D02*
X0104385Y0134403D01*
X0105137Y0135402D02*
X0102474Y0135402D01*
X0102737Y0135402D02*
X0112937Y0135402D01*
X0112937Y0136400D02*
X0102737Y0136400D01*
X0102474Y0136400D02*
X0105137Y0136400D01*
X0105137Y0137399D02*
X0102474Y0137399D01*
X0102737Y0137399D02*
X0112937Y0137399D01*
X0112937Y0138397D02*
X0102737Y0138397D01*
X0102474Y0138397D02*
X0105137Y0138397D01*
X0105137Y0139396D02*
X0102474Y0139396D01*
X0102737Y0139396D02*
X0112937Y0139396D01*
X0112937Y0140394D02*
X0102737Y0140394D01*
X0102474Y0140394D02*
X0105137Y0140394D01*
X0105137Y0141393D02*
X0097924Y0141393D01*
X0097924Y0142391D02*
X0096924Y0142391D01*
X0096924Y0141803D02*
X0096924Y0148653D01*
X0093677Y0148653D01*
X0093295Y0148551D01*
X0092953Y0148353D01*
X0092674Y0148074D01*
X0092476Y0147732D01*
X0092374Y0147351D01*
X0092374Y0141803D01*
X0096924Y0141803D01*
X0096924Y0141393D02*
X0090889Y0141393D01*
X0090889Y0140394D02*
X0092374Y0140394D01*
X0092374Y0139396D02*
X0090889Y0139396D01*
X0090889Y0138397D02*
X0092374Y0138397D01*
X0092374Y0137399D02*
X0090889Y0137399D01*
X0090677Y0142391D02*
X0092374Y0142391D01*
X0092374Y0143390D02*
X0035116Y0143390D01*
X0036170Y0142391D02*
X0077471Y0142391D01*
X0077559Y0142544D02*
X0077361Y0142202D01*
X0077259Y0141820D01*
X0077259Y0137103D01*
X0083574Y0137103D01*
X0083574Y0143123D01*
X0078562Y0143123D01*
X0078180Y0143021D01*
X0077838Y0142823D01*
X0077559Y0142544D01*
X0077259Y0141393D02*
X0036818Y0141393D01*
X0037230Y0140394D02*
X0077259Y0140394D01*
X0077259Y0139396D02*
X0037449Y0139396D01*
X0037373Y0137399D02*
X0077259Y0137399D01*
X0077259Y0138397D02*
X0027637Y0138397D01*
X0027637Y0137399D02*
X0026637Y0137399D01*
X0026637Y0136400D02*
X0027637Y0136400D01*
X0027637Y0135402D02*
X0026637Y0135402D01*
X0026637Y0134403D02*
X0027637Y0134403D01*
X0027637Y0133405D02*
X0026637Y0133405D01*
X0034351Y0133405D02*
X0077259Y0133405D01*
X0077259Y0134403D02*
X0035714Y0134403D01*
X0036542Y0135402D02*
X0077259Y0135402D01*
X0077812Y0130409D02*
X0015737Y0130409D01*
X0015737Y0129411D02*
X0078561Y0129411D01*
X0077526Y0128412D02*
X0015737Y0128412D01*
X0016337Y0128412D02*
X0007037Y0128412D01*
X0007037Y0127414D02*
X0016337Y0127414D01*
X0015737Y0127414D02*
X0077459Y0127414D01*
X0077459Y0126415D02*
X0015737Y0126415D01*
X0016337Y0126415D02*
X0007037Y0126415D01*
X0007037Y0125417D02*
X0016337Y0125417D01*
X0015737Y0125417D02*
X0077459Y0125417D01*
X0083574Y0136400D02*
X0037073Y0136400D01*
X0033062Y0144388D02*
X0092374Y0144388D01*
X0092374Y0145387D02*
X0087769Y0145387D01*
X0088767Y0146385D02*
X0092374Y0146385D01*
X0092383Y0147384D02*
X0089766Y0147384D01*
X0090764Y0148382D02*
X0093003Y0148382D01*
X0091763Y0149381D02*
X0102911Y0149381D01*
X0103910Y0148382D02*
X0101845Y0148382D01*
X0102465Y0147384D02*
X0104908Y0147384D01*
X0105137Y0146385D02*
X0102474Y0146385D01*
X0102737Y0146385D02*
X0112937Y0146385D01*
X0112937Y0145387D02*
X0102737Y0145387D01*
X0102474Y0145387D02*
X0105137Y0145387D01*
X0105137Y0144388D02*
X0102474Y0144388D01*
X0102737Y0144388D02*
X0112937Y0144388D01*
X0112937Y0143390D02*
X0102737Y0143390D01*
X0102474Y0143390D02*
X0105137Y0143390D01*
X0105137Y0142391D02*
X0102474Y0142391D01*
X0102737Y0142391D02*
X0112937Y0142391D01*
X0112937Y0141393D02*
X0102737Y0141393D01*
X0097924Y0140394D02*
X0096924Y0140394D01*
X0096924Y0139396D02*
X0097924Y0139396D01*
X0097924Y0138397D02*
X0096924Y0138397D01*
X0096924Y0137399D02*
X0097924Y0137399D01*
X0097924Y0136400D02*
X0096924Y0136400D01*
X0096924Y0135402D02*
X0097924Y0135402D01*
X0097924Y0134403D02*
X0096924Y0134403D01*
X0096924Y0143390D02*
X0097924Y0143390D01*
X0097924Y0144388D02*
X0096924Y0144388D01*
X0096924Y0145387D02*
X0097924Y0145387D01*
X0097924Y0146385D02*
X0096924Y0146385D01*
X0096924Y0147384D02*
X0097924Y0147384D01*
X0097924Y0148382D02*
X0096924Y0148382D01*
X0102737Y0147384D02*
X0112937Y0147384D01*
X0126839Y0159366D02*
X0090889Y0159366D01*
X0090889Y0160365D02*
X0126674Y0160365D01*
X0126674Y0161363D02*
X0084574Y0161363D01*
X0084574Y0161103D02*
X0084574Y0162103D01*
X0083574Y0162103D01*
X0083574Y0161103D01*
X0084574Y0161103D01*
X0084574Y0160365D02*
X0083574Y0160365D01*
X0083574Y0161103D02*
X0083574Y0155083D01*
X0078562Y0155083D01*
X0078180Y0155186D01*
X0077838Y0155383D01*
X0077559Y0155662D01*
X0077361Y0156004D01*
X0077259Y0156386D01*
X0077259Y0161103D01*
X0083574Y0161103D01*
X0083574Y0161363D02*
X0015737Y0161363D01*
X0015737Y0160365D02*
X0077259Y0160365D01*
X0077259Y0159366D02*
X0034802Y0159366D01*
X0035972Y0158368D02*
X0077259Y0158368D01*
X0077259Y0157369D02*
X0036702Y0157369D01*
X0037156Y0156371D02*
X0077263Y0156371D01*
X0077857Y0155372D02*
X0037413Y0155372D01*
X0037409Y0153375D02*
X0077757Y0153375D01*
X0076758Y0152376D02*
X0037147Y0152376D01*
X0036687Y0151378D02*
X0075760Y0151378D01*
X0074761Y0150379D02*
X0035942Y0150379D01*
X0034761Y0149381D02*
X0073763Y0149381D01*
X0072764Y0148382D02*
X0015737Y0148382D01*
X0015737Y0149381D02*
X0019513Y0149381D01*
X0018332Y0150379D02*
X0015737Y0150379D01*
X0015737Y0151378D02*
X0017587Y0151378D01*
X0017127Y0152376D02*
X0015737Y0152376D01*
X0015737Y0153375D02*
X0016865Y0153375D01*
X0015737Y0154373D02*
X0026637Y0154373D01*
X0026637Y0154888D02*
X0016784Y0154888D01*
X0016925Y0155777D01*
X0017213Y0156664D01*
X0017637Y0157496D01*
X0018185Y0158251D01*
X0018845Y0158911D01*
X0019600Y0159459D01*
X0020432Y0159883D01*
X0021319Y0160171D01*
X0022241Y0160317D01*
X0026637Y0160317D01*
X0026637Y0154888D01*
X0026637Y0155372D02*
X0027637Y0155372D01*
X0027637Y0156371D02*
X0026637Y0156371D01*
X0026637Y0157369D02*
X0027637Y0157369D01*
X0027637Y0158368D02*
X0026637Y0158368D01*
X0026637Y0159366D02*
X0027637Y0159366D01*
X0019472Y0159366D02*
X0015737Y0159366D01*
X0015737Y0158368D02*
X0018302Y0158368D01*
X0017572Y0157369D02*
X0015737Y0157369D01*
X0015737Y0156371D02*
X0017118Y0156371D01*
X0016861Y0155372D02*
X0015737Y0155372D01*
X0012737Y0155372D02*
X0007037Y0155372D01*
X0007037Y0154373D02*
X0012737Y0154373D01*
X0012737Y0153375D02*
X0007037Y0153375D01*
X0007037Y0152376D02*
X0012737Y0152376D01*
X0012737Y0151378D02*
X0007037Y0151378D01*
X0007037Y0150379D02*
X0012737Y0150379D01*
X0012737Y0149381D02*
X0007037Y0149381D01*
X0007037Y0148382D02*
X0012737Y0148382D01*
X0012737Y0147384D02*
X0007037Y0147384D01*
X0007037Y0146385D02*
X0012737Y0146385D01*
X0012737Y0145387D02*
X0007037Y0145387D01*
X0007037Y0144388D02*
X0016337Y0144388D01*
X0015737Y0144388D02*
X0021212Y0144388D01*
X0019158Y0143390D02*
X0015737Y0143390D01*
X0016337Y0143390D02*
X0007037Y0143390D01*
X0007037Y0142391D02*
X0016337Y0142391D01*
X0015737Y0142391D02*
X0018104Y0142391D01*
X0017456Y0141393D02*
X0015737Y0141393D01*
X0016337Y0141393D02*
X0007037Y0141393D01*
X0007037Y0140394D02*
X0016337Y0140394D01*
X0015737Y0140394D02*
X0017044Y0140394D01*
X0016825Y0139396D02*
X0015737Y0139396D01*
X0016337Y0139396D02*
X0007037Y0139396D01*
X0007037Y0138397D02*
X0016337Y0138397D01*
X0012737Y0156371D02*
X0007037Y0156371D01*
X0007037Y0157369D02*
X0012737Y0157369D01*
X0012737Y0158368D02*
X0007037Y0158368D01*
X0007037Y0159366D02*
X0012737Y0159366D01*
X0012737Y0160365D02*
X0007037Y0160365D01*
X0007037Y0161363D02*
X0012737Y0161363D01*
X0012737Y0162362D02*
X0007037Y0162362D01*
X0007037Y0163360D02*
X0012737Y0163360D01*
X0012737Y0164359D02*
X0007037Y0164359D01*
X0007037Y0165357D02*
X0012737Y0165357D01*
X0012737Y0166356D02*
X0007037Y0166356D01*
X0007037Y0167354D02*
X0012737Y0167354D01*
X0012737Y0168353D02*
X0007037Y0168353D01*
X0007037Y0169351D02*
X0012737Y0169351D01*
X0012737Y0170350D02*
X0007037Y0170350D01*
X0007037Y0171348D02*
X0012737Y0171348D01*
X0012737Y0172347D02*
X0007037Y0172347D01*
X0007037Y0173345D02*
X0012737Y0173345D01*
X0015737Y0167354D02*
X0077449Y0167354D01*
X0077361Y0167202D02*
X0077259Y0166820D01*
X0077259Y0162103D01*
X0083574Y0162103D01*
X0083574Y0168123D01*
X0078562Y0168123D01*
X0078180Y0168021D01*
X0077838Y0167823D01*
X0077559Y0167544D01*
X0077361Y0167202D01*
X0077259Y0166356D02*
X0015737Y0166356D01*
X0015737Y0165357D02*
X0077259Y0165357D01*
X0077259Y0164359D02*
X0015737Y0164359D01*
X0015737Y0163360D02*
X0077259Y0163360D01*
X0077259Y0162362D02*
X0015737Y0162362D01*
X0007037Y0174344D02*
X0200887Y0174344D01*
X0200887Y0175342D02*
X0007037Y0175342D01*
X0007037Y0176341D02*
X0200887Y0176341D01*
X0200887Y0177339D02*
X0007037Y0177339D01*
X0007037Y0178338D02*
X0200887Y0178338D01*
X0200887Y0179336D02*
X0007037Y0179336D01*
X0007037Y0180335D02*
X0200887Y0180335D01*
X0200887Y0181333D02*
X0007037Y0181333D01*
X0007037Y0182332D02*
X0200887Y0182332D01*
X0200887Y0183330D02*
X0007037Y0183330D01*
X0007037Y0184329D02*
X0200887Y0184329D01*
X0200887Y0185327D02*
X0007037Y0185327D01*
X0007037Y0186326D02*
X0200887Y0186326D01*
X0200887Y0187324D02*
X0007037Y0187324D01*
X0007037Y0188323D02*
X0200887Y0188323D01*
X0200887Y0189321D02*
X0007037Y0189321D01*
X0007037Y0190320D02*
X0200887Y0190320D01*
X0200887Y0191318D02*
X0007037Y0191318D01*
X0007037Y0192317D02*
X0200887Y0192317D01*
X0200887Y0193315D02*
X0007037Y0193315D01*
X0007037Y0194314D02*
X0200887Y0194314D01*
X0200887Y0195312D02*
X0007037Y0195312D01*
X0007037Y0196311D02*
X0200887Y0196311D01*
X0200887Y0197309D02*
X0007037Y0197309D01*
X0007037Y0198308D02*
X0200887Y0198308D01*
X0200887Y0199307D02*
X0007037Y0199307D01*
X0007037Y0200305D02*
X0200887Y0200305D01*
X0200887Y0201304D02*
X0007037Y0201304D01*
X0007037Y0202302D02*
X0200887Y0202302D01*
X0200887Y0203301D02*
X0007037Y0203301D01*
X0007037Y0204299D02*
X0200887Y0204299D01*
X0200887Y0205298D02*
X0007037Y0205298D01*
X0007037Y0206296D02*
X0200887Y0206296D01*
X0200887Y0207295D02*
X0007037Y0207295D01*
X0007037Y0208293D02*
X0200887Y0208293D01*
X0200887Y0209292D02*
X0007037Y0209292D01*
X0007037Y0210290D02*
X0200887Y0210290D01*
X0200887Y0211289D02*
X0007037Y0211289D01*
X0007037Y0212287D02*
X0200887Y0212287D01*
X0200887Y0213286D02*
X0007037Y0213286D01*
X0007037Y0214284D02*
X0200887Y0214284D01*
X0200887Y0215283D02*
X0007037Y0215283D01*
X0007037Y0216281D02*
X0200887Y0216281D01*
X0200887Y0217280D02*
X0007037Y0217280D01*
X0007037Y0218278D02*
X0200887Y0218278D01*
X0200887Y0219277D02*
X0007037Y0219277D01*
X0007093Y0220275D02*
X0200831Y0220275D01*
X0200653Y0221274D02*
X0007272Y0221274D01*
X0007596Y0222272D02*
X0200328Y0222272D01*
X0200004Y0223271D02*
X0007920Y0223271D01*
X0008614Y0224269D02*
X0199311Y0224269D01*
X0198585Y0225268D02*
X0009339Y0225268D01*
X0010587Y0226266D02*
X0197337Y0226266D01*
X0195506Y0227265D02*
X0012419Y0227265D01*
X0010616Y0229941D02*
X0010166Y0229795D01*
X0007259Y0227683D01*
X0006137Y0226139D01*
X0006137Y0229955D01*
X0010616Y0229941D01*
X0010166Y0229795D02*
X0010166Y0229795D01*
X0009432Y0229262D02*
X0006137Y0229262D01*
X0006137Y0228263D02*
X0008058Y0228263D01*
X0007259Y0227683D02*
X0007259Y0227683D01*
X0007259Y0227683D01*
X0006955Y0227265D02*
X0006137Y0227265D01*
X0006137Y0226266D02*
X0006230Y0226266D01*
X0083574Y0167354D02*
X0084574Y0167354D01*
X0084574Y0166356D02*
X0083574Y0166356D01*
X0083574Y0165357D02*
X0084574Y0165357D01*
X0084574Y0164359D02*
X0083574Y0164359D01*
X0083574Y0163360D02*
X0084574Y0163360D01*
X0084574Y0162362D02*
X0083574Y0162362D01*
X0083574Y0159366D02*
X0084574Y0159366D01*
X0084574Y0158368D02*
X0083574Y0158368D01*
X0083574Y0157369D02*
X0084574Y0157369D01*
X0084574Y0156371D02*
X0083574Y0156371D01*
X0083574Y0155372D02*
X0084574Y0155372D01*
X0090889Y0166356D02*
X0094337Y0166356D01*
X0094337Y0167354D02*
X0090699Y0167354D01*
X0084574Y0142391D02*
X0083574Y0142391D01*
X0083574Y0141393D02*
X0084574Y0141393D01*
X0084574Y0140394D02*
X0083574Y0140394D01*
X0083574Y0139396D02*
X0084574Y0139396D01*
X0084574Y0138397D02*
X0083574Y0138397D01*
X0083574Y0137399D02*
X0084574Y0137399D01*
X0091089Y0123420D02*
X0092537Y0123420D01*
X0092537Y0122421D02*
X0091089Y0122421D01*
X0091077Y0121423D02*
X0092537Y0121423D01*
X0107574Y0120155D02*
X0107574Y0116555D01*
X0108574Y0116555D01*
X0108574Y0120155D01*
X0107574Y0120155D01*
X0107574Y0119426D02*
X0108574Y0119426D01*
X0108574Y0118427D02*
X0107574Y0118427D01*
X0107574Y0117429D02*
X0108574Y0117429D01*
X0146653Y0091467D02*
X0157337Y0091467D01*
X0157337Y0092466D02*
X0147652Y0092466D01*
X0148650Y0093464D02*
X0157337Y0093464D01*
X0162137Y0135402D02*
X0200887Y0135402D01*
X0200887Y0136400D02*
X0162137Y0136400D01*
X0162137Y0137399D02*
X0200887Y0137399D01*
X0200887Y0138397D02*
X0162137Y0138397D01*
X0162137Y0139396D02*
X0200887Y0139396D01*
X0200887Y0140394D02*
X0162137Y0140394D01*
X0162137Y0141393D02*
X0200887Y0141393D01*
X0200887Y0142391D02*
X0162137Y0142391D01*
X0162137Y0143390D02*
X0200887Y0143390D01*
X0200887Y0144388D02*
X0162137Y0144388D01*
X0162137Y0145387D02*
X0200887Y0145387D01*
X0200887Y0146385D02*
X0162137Y0146385D01*
X0162137Y0147384D02*
X0200887Y0147384D01*
X0200887Y0148382D02*
X0162137Y0148382D01*
X0162137Y0149381D02*
X0200887Y0149381D01*
X0200887Y0150379D02*
X0162137Y0150379D01*
X0162137Y0151378D02*
X0200887Y0151378D01*
X0200887Y0152376D02*
X0162137Y0152376D01*
X0162137Y0153375D02*
X0200887Y0153375D01*
X0200887Y0154373D02*
X0162137Y0154373D01*
X0162137Y0155372D02*
X0200887Y0155372D01*
X0200887Y0156371D02*
X0162137Y0156371D01*
X0162137Y0157369D02*
X0200887Y0157369D01*
X0200887Y0158368D02*
X0162137Y0158368D01*
X0162137Y0159366D02*
X0200887Y0159366D01*
X0200887Y0160365D02*
X0162137Y0160365D01*
X0162137Y0161363D02*
X0200887Y0161363D01*
X0200887Y0162362D02*
X0162137Y0162362D01*
X0162137Y0163360D02*
X0200887Y0163360D01*
X0200887Y0164359D02*
X0162137Y0164359D01*
X0162137Y0165357D02*
X0200887Y0165357D01*
X0200887Y0166356D02*
X0162137Y0166356D01*
X0162137Y0167354D02*
X0200887Y0167354D01*
X0200887Y0168353D02*
X0162137Y0168353D01*
X0162137Y0169351D02*
X0200887Y0169351D01*
X0200887Y0170350D02*
X0162137Y0170350D01*
X0162137Y0171348D02*
X0200887Y0171348D01*
X0200887Y0172347D02*
X0162137Y0172347D01*
X0162137Y0173345D02*
X0200887Y0173345D01*
X0203537Y0222438D02*
X0202777Y0224777D01*
X0200665Y0227683D01*
X0198342Y0229371D01*
X0203537Y0229355D01*
X0203537Y0222438D01*
X0203537Y0223271D02*
X0203266Y0223271D01*
X0203537Y0224269D02*
X0202942Y0224269D01*
X0202777Y0224777D02*
X0202777Y0224777D01*
X0202420Y0225268D02*
X0203537Y0225268D01*
X0203537Y0226266D02*
X0201695Y0226266D01*
X0200969Y0227265D02*
X0203537Y0227265D01*
X0203537Y0228263D02*
X0199867Y0228263D01*
X0200665Y0227683D02*
X0200665Y0227683D01*
X0200665Y0227683D01*
X0198493Y0229262D02*
X0203537Y0229262D01*
X0135924Y0164359D02*
X0135024Y0164359D01*
X0135024Y0163360D02*
X0135924Y0163360D01*
X0135924Y0161363D02*
X0135024Y0161363D01*
X0135024Y0160365D02*
X0135924Y0160365D01*
X0135924Y0159366D02*
X0135024Y0159366D01*
D22*
X0117917Y0118403D02*
X0108074Y0118403D01*
X0108074Y0115903D01*
D23*
X0109937Y0115955D03*
X0109937Y0111755D03*
X0105737Y0111755D03*
X0105737Y0115955D03*
X0105737Y0120155D03*
X0109937Y0120155D03*
X0097337Y0126755D03*
X0106937Y0134555D03*
X0110537Y0134555D03*
X0110537Y0138155D03*
X0106937Y0138155D03*
X0106937Y0141755D03*
X0110537Y0141755D03*
X0124937Y0126755D03*
X0106337Y0097955D03*
X0106337Y0094355D03*
X0102137Y0094355D03*
X0102137Y0097955D03*
X0097937Y0097955D03*
X0097937Y0094355D03*
X0074537Y0126755D03*
X0074537Y0130355D03*
X0074537Y0133955D03*
X0074537Y0137555D03*
X0024137Y0125555D03*
X0019937Y0125555D03*
D24*
X0117917Y0113403D02*
X0118365Y0112955D01*
X0121337Y0112955D01*
X0124729Y0109563D01*
X0130874Y0109563D01*
D25*
X0124937Y0105155D02*
X0121937Y0108155D01*
X0118165Y0108155D01*
X0117917Y0108403D01*
X0124937Y0105155D02*
X0124937Y0097355D01*
X0129737Y0092555D01*
X0145337Y0092555D01*
X0149400Y0096618D01*
X0149400Y0109567D01*
X0152749Y0109567D01*
X0155537Y0112355D01*
X0155537Y0124730D01*
X0149400Y0130867D01*
X0149400Y0138347D02*
X0149400Y0157492D01*
X0144737Y0162155D01*
X0135676Y0162155D01*
X0135474Y0161953D01*
X0131620Y0130387D02*
X0128569Y0130387D01*
X0124937Y0126755D01*
X0098232Y0123403D02*
X0097337Y0124298D01*
X0097337Y0126755D01*
X0098232Y0108403D02*
X0090034Y0108403D01*
X0086274Y0104643D01*
M02*
